v -2.67596 -0.5097 2.3294
v -2.41161 -0.576637 2.39715
v -2.39737 -0.361504 2.45397
v -2.8722 -0.216748 2.08666
v -2.67693 -0.280902 2.33907
v -2.18311 -0.970781 2.22692
v -1.95873 -0.948308 2.13076
v -2.01286 -0.82098 2.22665
v -2.20339 -1.12146 2.08845
v -1.96914 -1.10325 1.97181
v -2.66272 -0.912882 2.22192
v -2.87678 -0.664494 2.12635
v -2.87243 -0.871442 2.1213
v -2.0911 -0.211089 2.40352
v -2.36636 -0.133786 2.49156
v -2.12193 -0.432639 2.38273
v -1.59656 -0.360517 2.0794
v -1.58354 -0.124779 2.05849
v -1.83838 -0.287964 2.25605
v -2.64626 -0.0439874 2.34973
v -2.85239 0.0214754 2.06894
v -2.34073 0.116808 2.50498
v -2.05558 0.0253062 2.40818
v -1.77618 0.179802 2.23604
v -2.00551 0.264077 2.4129
v -1.81708 -0.0543581 2.24093
v -2.80305 0.260104 2.03027
v -2.61746 0.203306 2.32365
v -2.72757 0.483072 1.9664
v -2.48932 0.668005 2.22891
v -2.56188 0.443545 2.28358
v -2.29243 0.367707 2.48839
v -2.22871 0.610281 2.43678
v -2.43024 0.888591 2.18394
v -1.71549 0.415209 2.24932
v -1.52608 0.331805 2.05711
v -2.36524 1.1063 2.12617
v -2.27807 1.2812 2.04188
v -2.49387 1.08303 1.80313
v -2.1646 0.845139 2.36865
v -1.87636 0.749441 2.36239
v -1.9373 0.506351 2.40906
v -1.64478 0.657768 2.23639
v -1.47485 0.583583 2.05758
v -2.55826 0.886659 1.85372
v -2.63237 0.683642 1.89984
v -1.94133 1.41916 2.06915
v -1.85598 1.59342 1.97308
v -2.05321 1.59746 1.85231
v -1.75634 1.73675 1.82989
v -2.42107 -0.766466 2.32214
v -2.17189 -0.802703 2.29341
v -2.15296 -0.629756 2.33898
v -2.67279 -0.725443 2.29618
v -2.66417 -1.09081 2.15123
v -2.43974 -1.11275 2.14996
v -2.42819 -0.951497 2.26057
v -1.81568 0.968872 2.26509
v -1.68484 1.35598 2.06829
v -1.61229 1.5695 1.96676
v -2.93557 -0.822574 1.87205
v -2.81676 0.26649 1.67253
v -1.50152 0.560029 1.83922
v -1.54429 0.0999939 2.04083
v -1.55661 0.305448 1.82329
v -1.575 -0.162204 1.80484
v -2.87253 -0.444581 2.1006
v -2.94353 -0.421549 1.7972
v -2.95276 -0.633194 1.83702
v -2.89095 0.0361104 1.72017
v -2.92674 -0.198536 1.76025
v -2.38473 1.24033 1.73975
v -2.11345 1.47409 1.67002
v -1.83455 1.63682 1.70063
v -1.79571 1.41076 1.58177
v -1.40991 1.26907 1.90844
v -1.43822 1.28203 2.02944
v -1.471 1.08186 2.08006
v -1.44349 1.46458 1.94802
v -1.42939 1.43644 1.77775
v -1.3672 0.857038 1.9922
v -1.37227 0.869 1.81667
v -1.37851 1.08531 1.91546
v -1.92025 -0.69929 2.22839
v -1.74606 -0.82005 2.04973
v -1.8715 -0.508394 2.25125
v -1.64557 -0.600614 2.07234
v -1.63442 -0.670092 1.81464
v -1.57785 -0.408974 1.81909
v -1.75045 -0.929813 1.84562
v -2.25296 -1.20436 1.87798
v -2.24632 -0.348347 1.22025
v -2.31982 -0.563131 1.27821
v -2.63765 -0.492816 1.28741
v -1.64862 -0.450114 1.52447
v -1.77881 -0.690137 1.5667
v -1.93462 -0.40694 1.35208
v -2.57723 -0.278872 1.23263
v -2.80765 -0.217406 1.45651
v -2.67983 -0.705357 1.35027
v -2.70072 -0.891781 1.44007
v -2.92932 -0.83415 1.59275
v -2.8932 -0.6398 1.54922
v -2.4551 -0.990645 1.42966
v -2.23589 -1.05929 1.55732
v -2.54623 -1.13784 1.54833
v -2.84504 -0.436457 1.50585
v -2.38344 -0.783478 1.34419
v -2.74446 0.00638315 1.40933
v -2.37977 0.15718 1.15606
v -2.49609 -0.0578612 1.18822
v -2.23914 0.357304 1.15052
v -2.51567 0.431767 1.31396
v -2.64467 0.225079 1.35923
v -1.74688 0.256194 1.40118
v -1.82401 0.053382 1.36514
v -2.06833 0.0875512 1.20208
v -2.36925 0.617814 1.28548
v -2.58393 0.67534 1.5537
v -1.84493 0.464409 1.28718
v -2.09007 0.535566 1.1871
v -1.95948 0.69677 1.24014
v -1.96213 0.287881 1.23597
v -2.70596 0.480988 1.60293
v -1.60024 0.739163 1.42708
v -1.83276 0.831478 1.3101
v -1.72284 0.614933 1.35159
v -2.22972 1.15635 1.48194
v -2.11287 0.935064 1.32182
v -2.36957 1.03078 1.48138
v -1.71857 0.929875 1.40755
v -1.46816 0.824062 1.52402
v -1.61953 1.00301 1.49187
v -1.78366 1.19413 1.5025
v -1.5602 1.05184 1.53041
v -1.40358 0.856544 1.73242
v -1.39216 0.878059 1.75395
v -2.47999 0.85739 1.51242
v -1.53355 1.09676 1.55081
v -1.68992 1.27729 1.56249
v -1.5332 1.1683 1.56625
v -2.25928 1.36891 1.70573
v -2.09865 1.25503 1.50964
v -1.83854 1.33364 1.55306
v -2.24371 0.788969 1.29024
v -1.51979 1.23895 1.60739
v -2.05437 -1.12912 1.73047
v -1.35718 0.587146 1.72069
v -1.24313 0.714243 1.75793
v -1.52742 0.573155 1.51826
v -1.64147 0.433758 1.4477
v -2.7766 -1.19753 1.60641
v -2.91265 -1.21943 1.71748
v -2.91499 -1.00899 1.65523
v -1.57247 0.0685865 1.78025
v -1.60878 -0.193644 1.52118
v -1.35114 0.937455 1.87679
v -1.32957 1.14737 1.74336
v -1.90177 -0.925916 1.6342
v -1.5422 1.65986 1.76782
v -1.55207 1.44837 1.64171
v -2.90626 -1.25142 1.88661
v -2.68426 -1.2409 2.0511
v -2.83624 -1.19796 2.03102
v -2.86268 -1.04174 2.07659
v -2.93253 -1.01583 1.87881
v -2.76574 -1.30289 1.74195
v -2.52633 -1.27615 1.81307
v -2.71659 -1.32123 1.89841
v -2.64392 -1.25215 1.64906
v -2.74943 -1.06257 1.51817
v -1.09997 0.732804 1.87979
v -1.03838 0.960805 1.65515
v -0.981538 0.80733 1.66705
v -1.06128 0.757685 1.6909
v -1.1723 0.731008 1.72167
v -1.27309 0.75274 1.64916
v -1.11846 2.32413 1.63869
v -1.16348 2.10624 1.61736
v -1.28793 2.10806 1.64031
v -1.04791 2.11178 1.71536
v -1.03602 2.32689 1.75334
v -1.07755 2.11187 1.88724
v -1.08821 2.33248 1.90584
v -1.26339 2.32251 1.92101
v -1.26336 2.10898 1.92781
v -1.36092 2.10801 1.7675
v -1.35983 2.3179 1.75846
v -1.03848 1.89459 1.69973
v -1.35589 1.89912 1.76604
v -1.28987 1.89656 1.65566
v -1.42921 1.72841 1.74924
v -1.16851 1.89342 1.62008
v -1.29614 1.68816 1.66825
v -1.03818 1.67161 1.7058
v -1.16999 1.67637 1.63512
v -1.06615 1.8966 1.88175
v -1.03783 1.67257 1.89753
v -1.25499 1.89397 1.91684
v -1.2571 1.68075 1.89236
v -1.16917 1.23214 1.64672
v -1.17259 1.45234 1.64222
v -1.05429 1.44846 1.69847
v -1.05506 1.43435 1.88055
v -1.05441 1.19611 1.87759
v -1.05226 1.2252 1.6909
v -1.00578 1.02478 1.7134
v -1.14004 1.03699 1.64916
v -1.2683 1.00927 1.65346
v -1.2802 1.21524 1.66209
v -1.14813 0.904342 1.91258
v -1.01666 0.957845 1.87301
v -1.24475 1.14825 1.8894
v -1.33515 0.973409 1.8154
v -1.32967 1.17629 1.77592
v -1.30157 0.897093 1.67252
v -1.00416 0.827957 1.88083
v -1.38142 2.48301 1.76787
v -1.26782 2.3269 1.62081
v -1.24212 2.5533 1.65971
v -1.08999 2.48199 1.63232
v -1.02602 2.48954 1.77427
v -1.16751 2.5591 1.90428
v -1.3105 2.4746 1.91568
v -1.28628 1.44982 1.65781
v -1.3386 1.44432 1.74483
v -1.25425 1.42752 1.88968
v -1.12942 0.911047 1.63145
v -1.06291 0.972877 1.96427
v -1.10672 0.734856 1.70255
v -0.877829 0.549168 1.70538
v -0.0790528 -0.411362 1.17813
v 0.142202 -0.370024 1.18398
v -0.127159 -0.640709 1.2491
v -0.0849903 -0.178694 1.13148
v 0.33304 -0.558587 1.30815
v 0.111532 -0.620999 1.23304
v 0.224525 -1.02279 1.41143
v 0.0350884 -0.8574 1.31433
v 0.295636 -0.803645 1.34156
v 0.497321 -0.736509 1.46459
v 0.449684 -0.972587 1.48896
v 0.105582 -1.24844 1.66407
v -0.0907192 -1.21876 1.78515
v 0.14867 -1.1882 1.52914
v 0.477325 -0.25254 1.48603
v 0.482035 -0.497555 1.48294
v 0.333154 -0.308694 1.30195
v -0.28726 -0.424589 1.23766
v -0.35737 -0.617725 1.31256
v -0.430973 -0.374447 1.29683
v -0.232054 -0.843742 1.33998
v 0.38518 -1.18796 1.52913
v -0.798303 -0.420183 1.55403
v -0.688395 -0.119419 1.46019
v -0.631087 -0.310977 1.41231
v -0.830375 -0.197842 1.633
v -0.670903 -0.616265 1.4951
v -0.534955 -0.48831 1.37081
v -0.460986 -0.208252 1.30114
v -0.512053 -0.0374983 1.3355
v 0.452366 -0.00557381 1.48687
v 0.310442 -0.0612099 1.29555
v 0.0872113 0.116696 1.1467
v 0.132879 -0.122343 1.15649
v -0.127027 0.0499869 1.11216
v 0.257277 0.178033 1.29523
v 0.178347 0.404529 1.30025
v 0.393541 0.234561 1.49123
v 0.0109103 0.343294 1.15169
v -0.201746 0.268521 1.11901
v -0.800664 0.28846 1.50157
v -0.870797 0.490639 1.54018
v -0.761133 0.506688 1.41908
v 0.307629 0.461322 1.49725
v -0.0909034 0.551837 1.17235
v -0.20645 0.740949 1.20425
v 0.0788442 0.614279 1.31381
v -0.0222623 0.811505 1.3279
v -0.419246 0.650497 1.20341
v -0.557155 0.801438 1.27992
v -0.674852 0.936368 1.38578
v -0.46859 1.03662 1.35251
v -0.885846 0.847708 1.47622
v 0.0331656 1.07283 1.51214
v 0.120965 0.877403 1.50931
v -0.744922 0.714362 1.37888
v -0.08797 1.23588 1.52901
v -0.124465 0.996731 1.33809
v -0.534394 1.39656 1.53208
v -0.375829 1.48883 1.58753
v -0.398321 1.27073 1.46249
v -0.227872 1.36862 1.54642
v -0.255854 1.14048 1.39318
v -0.691316 1.29658 1.52186
v -0.80031 1.43613 1.59477
v -0.680209 1.52435 1.60985
v -0.536212 1.59836 1.63935
v -0.394643 1.64014 1.73353
v -0.261543 1.54443 1.74083
v -0.280612 -0.20803 1.20375
v -0.326438 0.00519592 1.20701
v -0.397242 0.202897 1.22527
v -0.49231 0.391176 1.24912
v -0.302185 0.470173 1.14691
v -0.607255 0.564885 1.29811
v -0.338468 0.903578 1.25727
v -0.843729 0.282352 1.69043
v 0.269864 -1.30832 1.69186
v 0.557848 -0.911156 1.67838
v 0.567434 -0.689019 1.68633
v 0.522071 0.0349898 1.7282
v 0.457073 0.276867 1.7346
v 0.359141 0.503421 1.73918
v 0.20494 0.671328 1.50627
v 0.245017 0.711837 1.7437
v -0.133236 1.436 1.74522
v -0.896916 0.656828 1.50192
v -0.945233 0.667189 1.6153
v -0.804338 -0.489709 1.84357
v 0.565783 -0.66646 1.91906
v 0.561093 -0.879797 1.89398
v 0.0950291 1.12658 1.74606
v 0.168873 0.923446 1.74716
v -0.975434 1.29221 1.77318
v -1.01442 1.12935 1.69109
v -0.854354 0.903802 2.10286
v -0.846339 1.64164 1.74094
v -0.830261 1.51496 1.94213
v -0.746994 1.68396 1.8677
v -0.930651 1.47204 1.76264
v -0.845122 1.38748 1.98574
v -0.85388 1.21158 1.54419
v -0.925164 1.33222 1.60491
v -0.986763 0.988796 1.54215
v -0.596252 -0.919176 1.60109
v -0.482443 -0.767767 1.42013
v -0.734579 -0.719742 1.74576
v -0.0993554 -1.17567 1.59905
v -0.372106 -1.13269 1.72923
v 0.293873 -0.923593 2.17091
v 0.480766 -0.899227 2.07924
v 0.266623 -0.712289 2.26892
v 0.471303 -0.674623 2.13226
v 0.391886 -0.201659 2.20205
v 0.13933 0.0195965 2.40667
v 0.190718 -0.231375 2.38446
v -0.347931 -0.520013 2.25602
v -0.66516 -0.272428 2.16027
v -0.63061 -0.529303 2.11976
v 0.266855 0.287747 2.22648
v 0.0621315 0.267893 2.41032
v 0.342075 0.0443255 2.22023
v -0.326316 0.456316 2.42345
v -0.21852 0.224023 2.45481
v -0.0474304 0.504578 2.39599
v 0.166977 0.520964 2.22191
v 0.0512235 0.742704 2.21292
v -0.187012 0.721844 2.36429
v -0.648052 0.807994 2.25026
v -0.473431 0.649957 2.35953
v -0.215856 1.14948 2.15111
v -0.331439 1.29463 2.08296
v -0.594318 1.10036 2.14044
v -0.097855 1.30257 1.9745
v -0.60572 1.28847 2.07135
v -0.420825 1.42727 2.0208
v -0.211861 1.43125 1.94318
v -0.324624 1.53583 1.9205
v -0.504418 1.55335 1.95693
v -0.0956563 -0.269709 2.42048
v -0.391627 -0.278915 2.31254
v -0.0519453 -0.511314 2.35384
v 0.0344173 -0.972504 2.1907
v -0.010001 -0.744462 2.27596
v -0.290302 -0.752271 2.17774
v -0.591376 0.428558 2.27411
v 0.104667 -1.14338 2.0405
v -0.158636 -1.15073 1.93685
v -0.722421 0.228663 2.13146
v -0.81922 0.462428 2.09269
v -0.917183 0.572737 1.83441
v -0.852554 0.265805 1.92
v -0.844969 -0.242815 1.90303
v 0.364831 -1.11626 2.0701
v 0.506196 -1.05354 2.03521
v 0.425823 -0.44223 2.16762
v 0.536943 -0.435476 1.94557
v 0.484969 0.0523354 1.98868
v 0.521528 -0.194638 1.97242
v 0.413352 0.294405 1.99546
v 0.312081 0.523085 1.99366
v 0.200698 0.737833 1.9911
v -0.0670018 0.961506 2.20706
v -0.421285 1.63938 1.84301
v -0.81743 0.0363671 1.67244
v 0.558762 -0.454891 1.70606
v 0.0189654 1.15086 1.9915
v -0.0151636 1.29293 1.74893
v -0.631323 1.56187 1.95134
v -0.56884 1.70163 1.86148
v -0.678002 1.71131 1.71831
v -0.538731 1.71702 1.76689
v 0.459639 -1.29794 1.74193
v 0.559324 -1.12219 1.67041
v 0.428283 -1.2685 1.91497
v 0.558462 -1.07996 1.86138
v 0.173138 -1.26938 1.87595
v -0.640851 1.43695 2.00815
v -1.74752 1.15894 2.15419
v -0.582502 1.16593 1.44215
v -1.73808 1.25629 1.53186
v -0.773423 1.06963 1.48009
v -2.01615 1.24031 2.16346
v -1.86864 1.12758 1.46368
v -1.56882 0.889497 2.17
v -1.39286 0.876437 1.82091
v 0.121651 0.955026 1.99899
v -1.22668 0.833399 1.62794
v -1.11659 0.838449 1.65988
v -0.366611 0.927579 2.29324
v -1.19639 0.769598 1.66691
v -0.938544 0.661147 1.96678
v -1.42736 0.697861 1.6057
v -0.876769 0.726019 2.18985
v -0.739619 0.604021 2.1945
v -1.557 0.256337 1.56313
v -1.48744 0.453463 1.63553
v -0.571836 0.146264 1.35989
v -0.656363 0.330869 1.37891
v -0.733284 0.0834504 1.48503
v -0.83761 0.0071002 1.92454
v -0.493055 0.208692 2.30434
v -0.678587 -0.0187985 2.15199
v -1.61219 0.0465814 1.5279
v -2.16873 -0.126666 1.18984
v -1.87544 -0.17176 1.34355
v 0.550272 -0.212334 1.71965
v -0.0478459 -1.05915 1.41293
v -2.12806 -0.85339 1.46693
v -2.03102 -0.634588 1.40296
v -2.46896 -1.23387 1.98898
v -2.37108 -1.19671 1.68009
v -0.337629 -1.02163 1.48274
v 0.230685 -0.477463 2.3385
v -0.560645 -0.761626 2.01978
v -2.17656 1.44573 1.95329
v -0.234575 -0.971983 2.07312
v -1.98015 1.04287 1.39783
v -0.431788 -0.031019 2.31763
v -0.505888 -0.98945 1.9166
v -2.09347 1.05221 2.26222
v -0.146719 -0.0215354 2.45175
v -1.98168 1.3347 1.54315
v -1.37227 0.869 1.81667
v -1.01492 0.876231 1.75018
v -1.04267 0.778582 1.77888
v -1.00603 0.72233 1.89617
v -1.37227 0.869 1.81667
v -0.914582 1.20896 2.02357
f 1 2 3 5
f 1 5 4 67
f 1 67 12 54
f 1 54 51 2
f 16 3 2 53
f 2 51 52 53
f 3 15 20 5
f 68 67 4 71
f 5 20 21 4
f 6 7 8 52
f 9 10 7 6
f 8 7 85 84
f 57 56 9 6
f 442 91 9 56
f 10 90 85 7
f 10 9 91 147
f 12 13 11 54
f 51 54 11 57
f 61 13 12 69
f 12 67 68 69
f 55 11 13 165
f 13 61 166 165
f 26 23 14 19
f 16 14 15 3
f 23 22 15 14
f 19 14 16 86
f 16 53 84 86
f 17 89 66 18
f 19 17 18 26
f 18 64 24 26
f 19 86 87 17
f 20 15 22 28
f 27 21 20 28
f 21 27 62 70
f 71 4 21 70
f 25 32 22 23
f 31 28 22 32
f 24 25 23 26
f 36 35 24 64
f 33 32 25 42
f 25 24 35 42
f 29 27 28 31
f 29 31 30 46
f 62 27 29 124
f 30 31 32 33
f 34 30 33 40
f 33 42 41 40
f 34 37 39 45
f 34 45 46 30
f 43 35 36 44
f 63 44 36 65
f 40 452 37 34
f 37 452 414 38
f 39 37 38 72
f 38 414 47 447
f 39 130 138 45
f 40 41 58 452
f 416 58 41 43
f 43 41 42 35
f 81 416 43 44
f 82 81 44 63
f 45 138 119 46
f 46 119 124 29
f 47 48 49 447
f 47 59 60 48
f 49 48 50 74
f 142 447 49 73
f 60 160 50 48
f 50 160 161 74
f 52 51 57 6
f 52 8 84 53
f 55 56 57 11
f 442 56 55 163
f 78 410 58 416
f 58 410 414 452
f 414 410 59 47
f 77 79 60 59
f 61 69 103 102
f 62 114 109 70
f 63 428 148 82
f 65 36 64 155
f 64 18 66 155
f 428 63 65 427
f 103 69 68 107
f 70 109 99 71
f 107 68 71 99
f 130 39 72 128
f 72 38 447 142
f 74 75 73 49
f 143 142 73 454
f 73 75 144 454
f 146 75 74 161
f 144 75 140 412
f 76 77 78 83
f 76 80 79 77
f 77 59 410 78
f 81 83 78 416
f 79 80 160 60
f 80 76 83 158
f 83 81 455 158
f 82 148 149 172
f 209 216 455 214
f 211 214 82 172
f 459 216 419 157
f 86 84 85 87
f 87 88 89 17
f 87 85 90 88
f 88 96 95 89
f 159 96 88 90
f 89 95 156 66
f 90 10 147 159
f 105 147 91 443
f 91 442 168 443
f 92 93 94 98
f 437 97 92 436
f 97 441 93 92
f 93 108 100 94
f 440 108 93 441
f 99 98 94 107
f 103 107 94 100
f 95 97 437 156
f 97 95 96 441
f 440 441 96 159
f 109 111 98 99
f 98 111 436 92
f 100 101 102 103
f 101 100 108 104
f 101 171 154 102
f 102 154 166 61
f 171 101 104 106
f 106 104 105 443
f 105 104 108 440
f 110 111 109 114
f 113 112 110 114
f 110 117 436 111
f 112 123 117 110
f 112 113 118 121
f 119 118 113 124
f 124 113 114 62
f 115 116 117 123
f 428 427 115 151
f 435 116 115 427
f 116 435 156 437
f 116 437 436 117
f 122 121 118 145
f 119 138 145 118
f 120 121 122 127
f 150 151 120 127
f 121 120 123 112
f 122 126 125 127
f 122 145 129 126
f 151 115 123 120
f 150 127 125 424
f 177 424 125 132
f 126 131 132 125
f 449 131 126 129
f 129 130 128 449
f 128 72 142 143
f 128 143 415 449
f 145 138 130 129
f 131 133 136 132
f 134 135 133 415
f 133 131 449 415
f 139 135 134 412
f 134 415 143 454
f 135 137 136 133
f 135 139 417 137
f 136 176 177 132
f 176 136 137 230
f 422 230 137 417
f 140 141 139 412
f 140 75 146 141
f 141 157 417 139
f 146 459 157 141
f 158 459 146 161
f 147 105 440 159
f 151 150 148 428
f 150 424 149 148
f 149 424 177 457
f 152 153 154 171
f 167 153 152 170
f 153 162 166 154
f 156 435 155 66
f 155 435 427 65
f 158 161 160 80
f 163 164 162 169
f 167 169 162 153
f 165 164 163 55
f 164 165 166 162
f 168 169 167 170
f 169 168 442 163
f 170 152 171 106
f 443 168 170 106
f 423 172 149 457
f 211 458 217 212
f 173 174 175 420
f 284 174 173 335
f 326 335 173 229
f 174 318 319 175
f 230 422 175 319
f 176 230 231 382
f 178 179 180 219
f 181 179 178 182
f 222 182 178 221
f 179 181 189 193
f 179 193 191 180
f 188 219 180 187
f 190 187 180 191
f 183 181 182 184
f 185 186 183 184
f 189 181 183 197
f 222 223 184 182
f 187 186 185 188
f 223 224 185 184
f 186 187 190 199
f 186 199 197 183
f 224 218 188 185
f 189 195 196 193
f 200 199 190 192
f 192 190 191 194
f 192 194 225 226
f 194 191 193 196
f 195 189 197 198
f 195 203 202 196
f 195 198 204 203
f 196 202 225 194
f 198 197 199 200
f 200 227 204 198
f 200 192 226 227
f 201 202 203 206
f 201 210 225 202
f 204 205 206 203
f 211 212 205 213
f 227 213 205 204
f 206 207 208 201
f 212 207 206 205
f 228 208 207 456
f 208 209 210 201
f 208 228 216 209
f 214 215 210 209
f 226 225 210 215
f 212 217 456 207
f 214 211 213 215
f 227 226 215 213
f 327 229 217 458
f 219 188 218 220
f 219 220 221 178
f 222 221 220 223
f 220 218 224 223
f 419 216 228 420
f 420 228 456 173
f 230 319 273 231
f 231 308 383 382
f 232 249 301 235
f 234 232 233 237
f 233 232 235 265
f 236 237 233 248
f 233 265 263 248
f 239 252 234 237
f 234 250 249 232
f 235 301 302 266
f 241 240 236 247
f 240 239 237 236
f 239 240 238 439
f 241 242 238 240
f 238 242 253 245
f 444 252 239 439
f 241 311 310 242
f 241 247 397 311
f 253 309 243 245
f 245 243 244 339
f 244 243 309 408
f 340 339 244 379
f 378 379 244 408
f 245 339 439 238
f 246 262 312 438
f 246 438 397 247
f 248 246 247 236
f 262 246 248 263
f 249 251 260 301
f 251 249 250 259
f 250 234 252 337
f 256 260 251 259
f 336 337 252 444
f 253 242 310 405
f 253 405 404 309
f 255 256 254 257
f 259 258 254 256
f 255 261 260 256
f 255 257 396 431
f 257 254 320 384
f 258 338 320 254
f 336 338 258 337
f 259 250 337 258
f 301 260 261 302
f 261 429 303 302
f 431 429 261 255
f 267 269 262 263
f 264 267 263 265
f 268 267 264 270
f 271 270 264 266
f 266 264 265 235
f 269 267 268 275
f 276 278 268 270
f 315 275 268 278
f 312 262 269 313
f 314 313 269 275
f 276 270 271 305
f 271 266 302 303
f 271 303 304 305
f 272 273 274 430
f 272 431 396 308
f 429 431 272 430
f 273 272 308 231
f 318 274 273 319
f 274 318 287 306
f 274 306 304 430
f 280 277 276 305
f 278 276 277 279
f 285 286 279 289
f 307 289 279 277
f 279 286 315 278
f 307 277 280 281
f 281 282 283 307
f 284 282 281 287
f 281 280 306 287
f 335 413 282 284
f 283 282 413 411
f 318 174 284 287
f 323 324 286 285
f 288 285 289 294
f 323 285 288 399
f 290 297 298 291
f 292 290 291 293
f 291 298 299 300
f 292 411 295 290
f 294 292 293 288
f 300 317 293 291
f 399 288 293 317
f 307 283 294 289
f 294 283 411 292
f 295 296 297 290
f 334 296 295 333
f 297 296 331 328
f 297 328 402 298
f 298 402 403 299
f 299 395 369 300
f 401 395 299 403
f 300 369 368 317
f 303 429 430 304
f 306 280 305 304
f 310 311 321 322
f 388 321 311 397
f 312 389 390 438
f 312 313 391 389
f 392 391 313 314
f 315 316 314 275
f 315 286 324 316
f 392 314 316 393
f 387 344 321 388
f 344 342 322 321
f 405 310 322 407
f 324 418 393 316
f 324 323 398 418
f 332 331 325 460
f 333 326 325 334
f 460 325 326 229
f 413 335 326 333
f 460 364 366 332
f 425 360 327 458
f 328 329 330 402
f 331 332 329 328
f 329 332 366 409
f 400 330 329 409
f 370 401 330 400
f 334 325 331 296
f 411 413 333 295
f 336 444 340 451
f 446 338 336 451
f 350 320 338 446
f 439 339 340 444
f 340 379 448 451
f 375 374 341 343
f 341 385 386 342
f 343 341 342 344
f 407 322 342 386
f 373 375 343 445
f 344 387 445 343
f 346 347 345 353
f 345 387 388 390
f 389 353 345 390
f 346 352 355 453
f 371 347 346 453
f 347 371 373 445
f 387 345 347 445
f 349 350 348 372
f 432 384 349 434
f 349 372 450 434
f 350 446 376 348
f 384 320 350 349
f 353 351 352 346
f 352 351 357 356
f 391 351 353 389
f 356 354 355 352
f 355 354 377 433
f 450 453 355 433
f 356 359 361 354
f 357 358 359 356
f 391 392 357 351
f 393 358 357 392
f 360 361 359 421
f 394 421 359 358
f 364 327 360 421
f 377 354 361 426
f 425 426 361 360
f 365 363 362 398
f 418 398 362 394
f 364 362 363 366
f 368 367 363 365
f 394 362 364 421
f 366 363 367 409
f 369 370 367 368
f 368 365 399 317
f 369 395 401 370
f 409 367 370 400
f 373 371 372 348
f 372 371 453 450
f 376 375 373 348
f 374 375 376 448
f 379 378 374 448
f 385 341 374 378
f 406 385 378 408
f 380 381 382 383
f 380 383 432 434
f 426 423 381 377
f 433 377 381 380
f 382 381 423 457
f 383 308 396 432
f 396 257 384 432
f 406 407 386 385
f 438 390 388 397
f 394 358 393 418
f 399 365 398 323
f 402 330 401 403
f 404 406 408 309
f 405 407 406 404
f 454 144 412 134
f 419 422 417 157
f 422 419 420 175
f 423 426 425 458
f 433 380 434 450
f 446 451 448 376
f 455 81 82 214
f 456 217 229 173
f 457 177 176 382
f 458 211 172 423
f 459 158 455 216
f 460 229 327 364
