v -2.25706 -1.17766 1.99057
v -2.76719 -1.1203 2.11193
v -2.61515 -1.31665 1.82802
v -1.9758 0.894859 2.34826
v -2.13319 0.43407 2.47918
v -1.51519 0.771094 2.1533
v -1.33999 1.2234 1.93164
v -1.83513 1.27689 2.12769
v -2.25626 1.34757 1.98453
v -1.55462 1.53365 1.91417
v -2.0069 1.63138 1.82968
v -1.79927 1.53651 2.02386
v -2.28036 -0.867147 2.29008
v -2.83424 -0.793796 2.18231
v -1.68008 0.336663 2.20227
v -2.66933 0.522112 2.08058
v -2.83424 0.0741439 2.08457
v -2.27404 -0.0198969 2.49594
v -2.3464 -0.236714 1.17299
v -2.63305 0.416548 1.43261
v -2.17173 0.196864 1.15348
v -1.92217 -0.416579 1.36186
v -2.00421 0.623201 1.21656
v -1.66238 0.443375 1.42851
v -1.52581 -0.0753716 1.71064
v -1.52408 0.358952 1.74909
v -1.43379 0.844143 1.55313
v -1.82624 0.98917 1.39763
v -1.66525 1.3391 1.57502
v -1.28574 0.629714 1.8429
v -2.92988 -1.09673 1.8075
v -2.94154 -0.818713 1.64265
v -2.62659 -1.02235 1.47113
v -2.86249 -0.457162 1.52965
v -2.82705 -0.391012 2.17174
v -1.69829 1.6291 1.68535
v -1.82463 -0.965737 1.7144
v -1.87855 -0.867497 2.13476
v -2.78044 -1.23276 1.63185
v -0.931461 0.730575 1.94673
v -0.901667 0.530625 1.68489
v -0.832432 0.542671 1.90735
v -1.06791 0.72945 1.73861
v -0.938884 0.741955 1.5727
v -0.803263 0.873977 1.44989
v 0.215254 -0.250484 1.20509
v 0.458846 -0.196564 1.46089
v 0.488667 -0.560951 1.48288
v 0.486864 -0.925681 1.51517
v 0.229041 -0.61149 1.2576
v -0.202307 -0.888191 1.35133
v 0.0675676 -1.19835 1.56138
v -0.300259 -1.10087 1.54806
v -0.768339 -0.496899 1.53787
v -0.823316 -0.17277 1.59973
v -0.49246 -0.301123 1.32411
v 0.139809 0.108123 1.17913
v 0.382692 0.163102 1.44268
v -0.13769 -0.297142 1.16375
v 0.239835 0.500289 1.4244
v -0.00786521 0.447684 1.17155
v -0.238021 0.743674 1.20046
v 0.0545369 0.808984 1.39641
v -0.129667 1.09769 1.39101
v 0.19916 0.83357 1.74829
v -0.813049 0.543914 1.45591
v -0.483245 0.987232 1.32852
v -0.316249 1.31976 1.48922
v -0.0799381 1.39243 1.77655
v -0.391788 -0.556767 1.31482
v 0.164855 -0.941733 1.36193
v -0.110927 -0.607913 1.23567
v 0.396681 -1.25822 1.58628
v -0.00297093 -1.21829 1.88859
v 0.40826 -1.25661 1.94444
v 0.559155 -0.883679 1.84218
v 0.350638 0.525481 1.78129
v -0.747611 1.42717 1.55936
v -0.935851 1.05062 2.07934
v -0.935863 1.37751 1.80163
v -0.735625 1.71573 1.81489
v -0.512564 1.53784 1.6044
v -0.290599 -1.17138 1.825
v -0.654527 -0.911722 1.70993
v -0.85504 -0.249852 1.97134
v -0.779764 -0.600545 1.8803
v -0.567336 -0.284254 2.21752
v 0.493485 -0.826823 2.10263
v 0.200095 -0.619257 2.31787
v 0.253479 -0.959515 2.16926
v 0.423522 -0.194935 2.16094
v 0.0754946 0.10778 2.43082
v 0.143262 -0.258816 2.40593
v 0.355337 0.162372 2.16669
v 0.241723 0.501512 2.14433
v -0.0297106 0.458243 2.40442
v -0.51196 0.720512 2.33464
v -0.383793 0.408553 2.40387
v -0.173289 0.772714 2.34137
v 0.104868 0.811443 2.11604
v -0.792279 0.724795 2.17594
v -0.653409 1.03179 2.15106
v -0.267697 1.31598 2.06228
v -0.358206 1.03056 2.22445
v -0.0364137 1.10351 2.10238
v -0.334192 1.58968 1.79594
v -0.511033 1.50869 1.9818
v -0.22926 -0.292547 2.37603
v -0.159671 -0.643121 2.27721
v -0.296023 0.0643266 2.41169
v -0.0933123 -0.981706 2.14242
v -0.419838 -0.948109 1.99365
v -1.02841 0.949263 1.80981
v 0.572715 -0.534047 1.81938
v 0.46376 -0.550476 2.12585
v 0.552148 -0.173275 1.81508
v 0.487587 0.188522 1.80578
v 0.087693 1.14041 1.74007
v -0.843878 0.169296 1.63642
v -0.846212 0.12824 1.96432
v -0.817204 1.34213 2.00625
v -0.481767 1.23542 2.10757
v -0.627865 1.22105 1.47787
v -1.9872 1.41938 1.59686
v -2.44837 0.824796 1.46144
v -2.49691 0.949188 2.05422
v -2.27539 1.1852 1.52236
v -0.354998 0.345129 1.17449
v -0.570341 0.628439 1.27514
v -0.647397 0.250168 1.39206
v -0.218472 0.0280187 1.14684
v -0.66911 0.421017 2.21307
v -0.54862 -0.0364574 1.36142
v -1.75349 -0.0701072 2.196
v -0.59837 0.078117 2.21219
v -2.46483 -0.667226 1.30497
v -2.10854 -0.825807 1.46137
v -0.543643 -0.74532 1.45161
v -1.57846 -0.560918 1.67089
v -1.75271 -0.50984 2.17953
v -2.36016 -1.16987 1.64146
v -2.7917 -0.0294776 1.46326
v -0.497787 -0.633626 2.13418
v -2.24504 -0.473525 2.40784
v -1.8007 0.0310842 1.38398
v -0.946182 0.781869 1.717
v -0.989323 0.85802 1.62142
v -0.954277 1.14432 1.53941
f 1 2 3 141
f 1 37 38 13
f 137 37 1 141
f 13 14 2 1
f 3 2 31 39
f 32 31 2 14
f 7 8 4 6
f 4 8 9 126
f 6 4 5 15
f 126 16 5 4
f 26 30 6 15
f 7 6 30 27
f 36 10 7 29
f 10 12 8 7
f 12 11 9 8
f 12 10 36 11
f 127 9 11 124
f 35 14 13 144
f 14 35 34 32
f 15 5 18 134
f 16 17 18 5
f 17 16 20 142
f 34 35 17 142
f 18 17 35 144
f 20 21 19 142
f 34 142 19 136
f 23 21 20 125
f 126 125 20 16
f 22 19 21 145
f 21 23 24 145
f 25 139 22 145
f 22 139 37 137
f 136 19 22 137
f 23 28 27 24
f 127 28 23 125
f 24 26 25 145
f 25 134 140 139
f 27 30 26 24
f 134 25 26 15
f 29 7 27 28
f 124 29 28 127
f 31 32 33 39
f 136 33 32 34
f 124 11 36 29
f 139 140 38 37
f 144 13 38 140
f 39 33 141 3
f 41 42 40 43
f 40 146 44 43
f 40 101 79 113
f 147 146 40 113
f 41 43 44 66
f 130 119 41 66
f 101 40 42 132
f 119 120 42 41
f 45 44 146 147
f 66 44 45 129
f 46 47 48 50
f 46 57 58 47
f 47 116 114 48
f 48 114 76 49
f 50 48 49 71
f 52 71 49 73
f 75 73 49 76
f 59 46 50 72
f 52 53 51 71
f 74 83 53 52
f 138 51 53 84
f 54 56 70 138
f 56 54 55 133
f 86 85 55 54
f 131 59 56 133
f 57 46 59 131
f 58 57 61 60
f 58 117 116 47
f 70 56 59 72
f 60 61 62 63
f 65 77 60 63
f 60 77 117 58
f 61 57 131 128
f 62 67 64 63
f 62 61 128 129
f 65 63 64 118
f 64 68 69 118
f 65 100 95 77
f 128 130 66 129
f 67 123 68 64
f 67 45 148 123
f 67 62 129 45
f 106 69 68 82
f 105 118 69 103
f 72 50 71 51
f 72 51 138 70
f 74 52 73 75
f 90 111 74 75
f 88 90 75 76
f 148 80 78 123
f 78 80 81 82
f 79 101 97 102
f 121 80 79 102
f 147 113 148 45
f 81 107 106 82
f 81 80 121 107
f 82 68 123 78
f 84 53 83 112
f 111 112 83 74
f 85 120 119 55
f 135 120 85 87
f 87 85 86 143
f 86 84 112 143
f 86 54 138 84
f 87 143 109 108
f 89 90 88 115
f 114 115 88 76
f 89 115 91 93
f 108 109 89 93
f 90 89 109 111
f 92 93 91 94
f 92 94 95 96
f 92 96 98 110
f 110 108 93 92
f 94 91 116 117
f 117 77 95 94
f 100 99 96 95
f 99 97 98 96
f 101 132 98 97
f 102 97 99 104
f 100 105 104 99
f 100 65 118 105
f 102 104 122 121
f 104 105 103 122
f 106 107 103 69
f 103 107 121 122
f 108 110 135 87
f 112 111 109 143
f 110 98 132 135
f 116 91 115 114
f 119 130 133 55
f 132 42 120 135
f 126 9 127 125
f 131 133 130 128
f 134 18 144 140
f 141 33 136 137
f 148 113 79 80
