v -0.98637 1.64001 -2.26866
v -1.00817 1.61927 -1.77674
v -1.34385 1.85345 -2.24815
v -1.37739 1.79277 -1.79686
v -1.70269 2.07991 -2.23148
v -1.42736 2.11229 -0.619548
v -1.37537 1.97002 -0.978628
v -0.941164 1.99187 -0.52927
v -0.644871 1.54064 -2.13778
v -0.485884 1.81661 -2.23733
v -0.785183 1.9897 -2.48164
v -2.36274 2.25591 -0.224551
v -2.20072 2.23565 -0.53834
v -2.28036 1.93577 -0.552931
v -2.40336 2.01019 -0.181178
v -2.18273 2.23336 -0.611703
v -2.19202 2.28873 -0.324093
v -2.4062 2.32242 -0.783554
v -1.73786 2.18963 -1.02005
v -2.81026 2.15246 -0.285767
v -2.71999 2.36519 -0.307075
v -2.51948 2.01265 -0.79606
v -2.71332 2.40643 -0.668657
v -2.79934 2.13492 -0.652479
v -2.73399 2.44073 -0.699503
v -2.6794 2.59156 -0.295402
v -2.28144 2.47833 -0.163616
v -0.80016 3.0036 -1.13715
v -1.01804 2.80773 -1.15558
v -2.23225 2.48249 -0.0941843
v -1.84429 2.38957 -0.711393
v -1.9659 2.37037 -1.11635
v -2.51294 2.39111 -0.125582
v -2.04539 2.49653 -0.518593
v -0.498651 1.88773 -0.945983
v -0.259046 2.26089 -1.16153
v -0.514247 2.19579 -0.631701
v -1.8365 2.40018 -0.377372
v -1.20999 2.29533 -0.904383
v -1.15185 2.72229 -0.581064
v -0.944697 2.47019 -0.754143
v -1.6238 2.47544 -0.851234
v -1.43571 2.76186 -0.996968
v -1.42747 2.33488 -0.34736
v -1.49059 2.54421 -0.06836
v -0.997055 2.31955 -0.291769
v -1.13716 2.65844 -0.191093
v -2.41674 2.31952 -0.839533
v -2.66502 2.72533 -0.766839
v -2.1986 2.53929 -0.918974
v -1.05512 2.87698 -0.417963
v -0.803363 2.56885 -0.814071
v -0.836758 2.89327 -0.563582
v -2.78337 2.44929 -0.32736
v -2.60936 2.73315 -0.0818608
v -2.78056 2.74146 -0.371324
v -1.7728 2.95254 -0.830316
v -1.50382 2.60132 -0.55143
v -2.68834 2.6835 -0.709545
v -0.760152 2.92061 -0.68963
v -0.781757 2.74473 -0.751851
v -0.197463 2.88389 -1.12062
v -0.224216 2.64357 -1.40368
v -0.916874 2.98217 -1.10048
v -0.681134 3.0677 -1.15364
v -1.87752 2.52229 -0.0499421
v -2.31723 2.74905 0.105549
v -1.94436 2.77906 0.212179
v -0.630477 2.96214 -0.750704
v -2.69114 2.85023 -0.238113
v -0.294661 2.43622 -1.6932
v -0.458065 2.76992 -1.86689
v -1.54967 2.82967 0.197672
v -1.4256 3.09605 -0.934357
v -0.362663 2.98277 -1.61258
v -1.23186 2.94082 0.0201226
v -2.42773 2.9609 -1.91323
v -2.06413 2.94077 -2.22938
v -2.24671 2.67454 -2.05051
v -1.86665 2.95331 0.0107658
v -1.4933 2.9215 -0.0197996
v -1.7452 2.83895 -0.417426
v -1.43008 2.90598 -0.367509
v -1.20284 2.73135 -1.00313
v -1.11721 3.17741 -0.985964
v -1.5722 3.37031 -0.891411
v -2.19018 2.71794 -0.0245088
v -2.1497 3.05997 -0.141981
v -1.99184 3.06747 -0.400959
v -1.3043 3.145 -0.377447
v -0.805264 2.83815 -0.284192
v -1.00713 3.09934 -0.231407
v -2.42693 3.07064 0.201652
v -0.985113 3.24165 -0.591512
v -0.863446 3.20447 -0.706449
v -2.03435 3.13264 0.336229
v -0.59975 3.16893 -0.905104
v -2.97662 3.06699 -0.620423
v -2.61259 2.84598 -1.61152
v -2.68382 2.79622 -1.23871
v -2.88816 3.19146 -1.58462
v -2.97872 3.13549 -1.17875
v -1.93784 2.79198 -0.4884
v -2.16127 2.91387 -0.780091
v -2.48122 2.92905 -1.07188
v -2.44825 3.01341 -1.6819
v -2.72288 3.22609 -1.53973
v -2.16406 3.15308 -2.07905
v -2.11579 3.34705 -2.11979
v -2.49668 3.40847 -0.46793
v -2.16827 3.28047 -0.929681
v -0.842841 3.16567 -1.31311
v -2.61234 2.97808 -0.678444
v -2.4081 3.19609 -0.592751
v -1.36478 3.48472 -0.864787
v -0.594368 3.08604 -0.479955
v -2.60702 3.0678 -0.624982
v -2.75068 3.23479 -0.289726
v -1.40108 3.24523 0.00331502
v -1.74603 3.2991 0.144914
v -1.41451 3.8492 -0.967197
v -2.66357 3.16444 -0.264971
v -2.4794 3.44462 -0.316005
v -2.07542 3.30874 0.136431
v -2.00438 3.41254 -1.89495
v -2.22893 3.22394 -1.84413
v -2.74011 3.03623 -0.330511
v -2.93036 3.46332 -0.261293
v -0.482656 3.35786 -0.696435
v -0.819652 3.3214 -0.444215
v -2.78934 3.21265 0.0453223
v -3.00728 3.39542 0.0393138
v -2.71448 3.29996 -0.209861
v -2.76477 3.44768 -0.0360111
v -2.88398 3.30423 -0.308568
v -2.90199 3.70539 -0.147996
v -2.80197 3.56908 0.143779
v -1.04968 3.22408 -0.276328
v -1.0593 3.52556 -0.453432
v -0.818926 3.63345 -0.439577
v -1.82344 3.86725 -1.75426
v -1.90546 3.30702 -2.12572
v -2.88854 3.18928 -0.672854
v -2.75897 3.40393 -0.291063
v -2.86777 3.48113 -0.541253
v -0.615941 3.25966 -1.73156
v -0.880886 3.50157 -1.7927
v -0.811827 3.74009 -1.61577
v -0.987137 3.63254 -1.07929
v -2.25347 3.43629 -0.650054
v -2.73053 3.57148 -1.73766
v -2.58469 3.29507 -1.8616
v -2.84886 3.54038 -1.42651
v -0.965576 3.57513 -0.773983
v -1.30336 3.4018 -0.700968
v -2.32879 3.80869 -0.907482
v -1.53565 3.4123 -0.788059
v -1.63207 3.48618 -0.91553
v -2.17318 3.5441 -1.97942
v -1.87484 3.34534 -0.77784
v -2.1465 3.83839 -1.2992
v -2.04394 3.3463 -1.35375
v -2.24791 3.45758 -2.21583
v -2.73825 3.56604 -1.99904
v -2.40025 3.44048 -2.037
v -2.5625 3.74357 -1.91692
v -2.41647 3.467 -2.24907
v -1.44419 3.29397 -1.07507
v -1.44419 3.29397 -1.07507
v -1.53085 3.20864 -1.06076
v -3.0372 3.50439 -0.678564
v -0.830427 3.66775 -0.684098
v -1.26176 3.7537 -0.594104
v -1.14657 3.68589 -1.77754
v -2.0405 3.6877 -0.0906746
v -1.42361 3.59365 -0.083378
v -1.31893 3.47268 -0.329026
v -2.8936 3.8273 -0.627844
v -2.52826 3.61499 0.0337649
v -2.71463 3.55785 0.169059
v -2.93046 3.65586 0.13443
v -0.989618 3.90541 -0.643529
v -1.66683 3.64471 0.0932611
v -2.82973 3.67438 -0.215315
v -2.00902 3.7347 -1.57913
v -1.94457 3.49404 -1.60429
v -1.08934 3.90025 -1.5832
v -1.64364 3.62089 -1.85669
v -1.51093 3.71824 -1.83621
v -1.44419 3.29397 -1.07507
v -1.49847 3.30046 -1.02851
v -1.97012 3.65572 -0.573132
v -1.93845 3.59026 -0.720557
v -2.80264 3.76332 -0.573399
v -0.983889 3.62105 -0.131681
v -2.0749 3.47682 -1.99408
v -1.82344 3.86725 -1.75426
v -2.67778 3.89943 -1.69579
v -1.15253 4.02081 -0.379259
v -2.68802 3.86212 -1.34541
v -1.2315 3.56172 -1.9943
v -1.34933 3.79526 -1.74022
v -1.60458 3.3121 -0.933617
v -1.53316 3.45868 -1.04073
v -2.35169 3.60975 -1.90321
v -1.49362 3.82628 -1.58516
v -1.66536 3.62348 -1.15039
v -2.84239 3.81962 0.155273
v -2.67743 3.85568 -0.212205
v -2.68092 3.74713 -0.182812
v -1.32045 3.95775 -0.915057
v -1.61542 3.84323 -0.652041
v -1.04939 3.83651 -0.771528
v -2.55251 3.8495 -0.555811
v -1.41312 3.82163 -0.999429
v -1.45887 3.79749 -1.00097
v -1.47886 3.83493 -0.938908
v -1.53231 3.9088 -0.852308
v -1.37854 3.89218 -0.877744
v -1.49608 4.03021 -0.927392
v -1.50487 4.08809 -0.809578
v -1.734 4.21661 -0.889501
v -1.56406 3.99169 -0.754924
v -1.51153 3.79301 -0.936692
v -1.51555 3.93422 -0.925901
v -1.63134 3.7223 -1.66747
v -1.49142 3.78712 -1.53999
v -1.51669 3.76385 -1.69747
v -1.72949 3.99938 -0.70931
v -1.61665 4.08813 -0.65715
v -1.62953 3.97386 -0.70413
v -2.11567 3.68036 -0.819793
v -1.79328 4.07382 -0.572958
v -2.0592 3.76614 -0.894228
v -1.51167 4.10608 -1.04396
v -1.91367 3.87153 -1.76953
v -1.57509 3.66947 -0.470366
v -1.55876 3.87998 -0.258023
v -1.49895 3.48517 -0.804908
v -1.36951 3.97762 -1.44895
v -1.30271 3.84374 -1.54338
v -1.83785 4.04909 -0.553123
v -1.27795 3.97083 -1.58891
v -2.12823 3.84406 -1.12489
v -1.58283 3.91589 -0.996933
v -2.21711 3.99984 -1.7189
v -2.06602 3.96567 -1.76645
v -1.82025 4.06164 -0.881022
v -1.39197 3.85271 -1.50638
v -1.45959 4.06581 -1.31105
v -1.30161 4.03918 -0.68917
v -2.53488 3.92898 -0.673159
v -2.0592 3.76614 -0.894228
v -2.70084 3.82441 0.138345
v -2.99882 3.69285 -0.0636943
v -2.48423 3.95446 -1.0565
v -1.61205 3.94904 -1.11398
v -1.47867 3.78728 -1.16583
v -1.77249 3.88788 -1.47723
v -1.67211 4.00514 -1.08614
v -3.05769 3.81818 -0.0449001
v -2.77033 3.96142 -0.535005
v -2.63741 3.94029 -0.747081
v -2.12575 4.01425 -0.983949
v -2.15947 3.99106 -1.39095
v -2.51287 4.04601 -0.257106
v -2.46659 3.97846 -1.36895
v -2.29636 4.05814 -1.76933
v -1.72015 4.11472 -1.07935
v -2.09675 3.94352 -1.5824
v -2.20399 3.96424 0.0274395
v -1.92971 3.80014 -0.271487
v -2.29858 4.01275 -1.2084
v -1.80435 4.06785 -1.18688
v -1.73302 4.09407 -1.20861
v -1.73081 3.89181 -0.142847
v -1.81789 4.05892 0.119414
v -1.87582 4.16716 -0.316813
v -2.45296 3.98943 -1.62472
v -2.24344 4.04863 -1.61831
v -2.06116 3.96617 -0.60824
v -1.93799 4.04055 -1.66658
v -3.01865 4.11194 0.0829351
v -2.4514 4.12646 -0.576344
v -2.04067 3.99737 -0.574715
v -1.91407 4.07552 -0.411966
v -1.75908 4.06477 -1.35811
v -1.71703 4.00239 -1.25085
v -1.68519 4.02265 -1.45925
v -1.75661 4.13843 -1.65917
v -1.80407 4.09181 -1.54116
v -1.76024 4.06263 -1.4363
v -2.81686 4.11223 -0.21818
v -2.18036 4.06204 -1.3627
v -2.26262 4.27931 -0.940944
v -1.05688 4.1654 -1.39295
v -1.32791 4.24275 -1.11652
v -1.01176 4.09543 -1.05306
v -2.5833 4.18174 -0.637546
v -1.92625 4.20079 -1.67415
v -1.30271 3.84374 -1.54338
v -1.67337 4.00109 -0.576073
v -1.70999 4.11746 -1.60076
v -1.64204 4.1848 -1.68124
v -1.47171 3.9863 -1.52457
v -1.6064 4.15486 -1.3849
v -1.84047 4.19905 -1.70589
v -1.50102 4.00268 -1.60679
v -2.57324 3.99649 -0.995766
v -2.46785 4.36241 -1.47776
v -2.34737 4.26976 -1.06331
v -2.02419 4.31647 -1.37036
v -1.89196 4.08046 -1.26336
v -1.79607 4.08873 -1.24703
v -1.94787 4.71815 -0.930159
v -2.04366 4.88293 -1.00952
v -1.81053 4.13949 -0.337188
v -1.90922 4.0322 -0.439393
v -1.97604 3.9934 -0.489265
v -1.80305 4.36855 -1.10965
v -1.61663 4.21665 -1.11121
v -1.64705 3.76753 -1.10477
v -1.60465 3.92949 -0.931387
v -1.73948 4.3652 -0.86714
v -1.75776 4.20841 -0.181918
v -2.13727 4.7236 -1.19792
v -1.93735 3.8184 -0.257768
v -1.80637 4.14226 -0.269726
v -1.8893 4.20981 -0.561438
v -1.85364 3.92026 -0.471306
v -1.89315 3.99753 -0.71211
v -1.60211 3.92759 -0.902346
v -2.62384 4.33608 -1.03592
v -2.51576 4.24745 -1.08324
v -2.4084 4.52981 -1.263
v -1.85974 4.29148 -0.477867
v -2.14142 4.65632 -0.929288
v -2.19998 4.7746 -0.648487
v -2.29234 4.82613 -0.807013
v -1.90127 4.57946 -0.78485
v -2.07519 4.75926 -0.84473
v -2.37397 4.86696 -0.967483
v -2.48711 4.80512 -0.990415
v -2.33118 4.92925 -1.13151
v -2.63489 4.75997 -1.363
v -2.83027 4.47876 -0.74591
v -1.91872 4.20071 -0.384061
v -1.94726 4.70886 -1.0345
v -1.91601 4.4088 -0.479777
v -1.88286 5.02 -0.56242
v -2.03354 4.4978 -0.339588
v -1.77621 4.63234 -0.36115
v -1.70276 4.5289 -0.564354
v -1.88398 4.9173 -0.708576
v -2.57544 4.41545 -0.946295
v -2.10151 4.95688 -0.80604
v -2.16149 5.06962 -0.707191
v -2.44258 5.27623 -0.978772
v -2.12171 4.89112 -0.520859
v -2.18055 5.0191 -0.472664
v -2.2621 5.05319 -0.786444
v -2.37783 5.09991 -0.957889
v -2.77639 4.83661 -1.0021
v -2.33491 5.22338 -0.749633
v -2.05968 5.2661 -0.810394
v -1.77865 4.78075 -0.621249
v -1.89921 5.07901 -0.618101
v -2.10859 5.03733 -0.774353
v -1.62179 5.13021 -0.495829
v -2.15179 5.31272 -0.403985
v -1.88123 5.358 -0.552939
v -2.1715 5.31113 -0.637477
v -0.303313 3.22836 -1.36544
v -0.280763 3.13027 -0.86543
v -1.80738 3.69452 -1.71303
v -1.78021 3.78053 -1.65111
v -0.58639 2.36741 -2.46665
v -0.406985 2.14849 -2.27129
v -0.616792 1.57446 -1.74665
v -0.373211 1.88991 -1.85478
v -0.321991 2.27232 -2.00776
v -0.544562 3.69054 -0.918477
v -0.698573 3.46212 -0.589867
v -0.39456 2.8097 -0.619206
v -0.823717 3.96782 -1.37356
v -0.561533 3.75888 -1.28173
v -0.772222 3.91908 -0.995356
v -0.354918 3.46972 -1.11217
v -0.273618 2.52371 -0.856428
v -0.620496 2.52272 -0.397258
v -0.54275 1.69665 -1.3373
v -0.96657 1.78659 -0.91691
v -1.36631 1.85806 -1.37171
v -1.73558 2.03908 -1.38249
v -2.04421 2.25843 -1.35959
v -2.24756 2.58912 -1.31323
v -2.30551 2.57253 -1.68999
v -2.0345 2.3463 -2.18248
v -2.08115 2.2214 -1.77022
v -1.74812 1.97874 -1.79811
v -1.84316 2.6743 -2.42336
v -1.51137 2.41051 -2.51596
v -1.14349 2.18952 -2.53397
v -1.26075 2.82702 -2.56028
v -1.6208 3.07808 -2.40812
v -1.4274 3.46319 -2.17568
v -1.02733 3.19787 -2.37939
v -0.927647 3.35716 -2.06564
v -0.700846 2.91248 -2.33495
v -0.67253 3.07638 -2.00171
v -0.469133 2.60636 -2.18871
v -0.892072 2.59749 -2.56988
v -0.309834 2.05225 -1.50185
v -2.84702 3.87125 -1.05118
v -2.96695 3.61913 -1.49981
v -2.78894 3.91463 -1.40481
v -2.56105 4.00578 -1.77945
v -2.70284 3.2721 -1.97593
v -2.64851 3.32096 -0.010367
v -2.6606 3.03267 -0.0227859
v -2.4774 3.39349 0.202493
v -1.70032 3.645 0.3305
v -2.12316 3.52221 0.328239
v -1.29461 3.74188 0.173621
v -1.23203 3.26823 0.178989
v -1.61598 3.20746 0.332613
v -1.47307 4.14624 -0.198456
v -2.27634 2.60263 -0.834941
v -2.95508 4.54646 -1.25817
v -1.70944 4.29913 -0.898836
v -1.93018 4.84606 -0.725623
v -2.93649 3.52263 -1.02222
v -2.75307 3.80759 -0.966736
v -2.84217 3.14629 -1.11287
v -1.83892 4.12042 -1.59452
v -1.71015 4.07613 -1.48434
v -1.42154 4.18407 -1.40931
v -1.28385 3.28278 -0.528903
v -2.13745 5.0664 -0.388364
v -1.77193 4.63535 -0.154425
v -1.76954 4.44768 -0.525839
v -1.76794 4.6177 -0.401509
v -0.534503 3.5138 -1.53016
v -1.4545 3.62867 -1.13255
v -0.976724 1.70326 -1.341
v -3.03182 3.54437 -1.10902
v -2.27858 4.10005 -0.700761
v -1.47603 3.76946 -1.35994
v -1.64895 3.98515 -1.29306
v -1.58367 3.85792 -1.53487
v -1.68742 3.9029 -1.65733
v -1.47422 3.80269 -1.40053
v -0.769974 2.82815 -0.721254
v -0.681134 3.0677 -1.15364
v -1.82344 3.86725 -1.75426
v -1.44419 3.29397 -1.07507
v -1.44419 3.29397 -1.07507
v -1.82344 3.86725 -1.75426
v -1.85109 3.84242 -1.72993
v -2.0592 3.76614 -0.894228
v -2.0592 3.76614 -0.894228
v -1.94078 4.18347 -1.77728
v -2.08731 4.41314 -1.90357
v -2.05043 4.45442 -1.88546
v -2.06143 4.4356 -1.89444
v -2.09141 4.60586 -0.594921
v -1.88286 5.02 -0.56242
v -2.01213 4.81718 -0.61002
v -0.781757 2.74473 -0.751851
v -1.88286 5.02 -0.56242
v -0.769974 2.82815 -0.721254
v -1.44419 3.29397 -1.07507
v -1.82344 3.86725 -1.75426
v -2.30461 4.84412 -1.18738
v -2.71674 3.50063 -0.210223
v -1.88989 3.97931 -1.09171
v -2.01618 3.12282 -0.5829
v -2.17318 5.05924 -1.00554
v -1.92346 4.81649 -0.553659
v -1.71831 4.27273 -1.60627
v -1.70303 4.14093 -0.523347
v -2.87001 3.24076 -0.252326
v -1.04718 2.71709 -1.05096
v -2.74217 3.55813 -0.00563861
v -2.22473 5.34567 -1.15638
v -1.30271 3.84374 -1.54338
v -1.82344 3.86725 -1.75426
v -1.44419 3.29397 -1.07507
v -1.73321 4.0533 -0.560601
v -1.83414 3.90627 -0.540223
v -1.1827 3.42549 -0.709381
v -2.2059 3.9181 -0.417087
v -1.9902 4.86674 -0.871786
v -2.29614 4.43983 -0.94674
v -2.18301 3.97162 -1.91634
v -1.65786 3.83369 -1.65168
v -1.44419 3.29397 -1.07507
v -2.21048 5.31603 -1.04375
v -2.62852 4.33098 -1.09428
v -2.16105 4.96774 -1.04234
v -2.70643 4.35884 -1.30377
v -1.44419 3.29397 -1.07507
v -2.03019 4.63955 -0.981762
v -1.81587 4.51347 -0.959733
f 10 9 1 11
f 1 3 403 11
f 3 1 2 4
f 9 379 2 1
f 2 379 391 445
f 2 445 393 4
f 3 5 402 403
f 5 3 4 400
f 4 393 394 400
f 399 398 5 400
f 401 402 5 398
f 19 7 6 31
f 6 44 38 31
f 6 8 46 44
f 8 6 7 392
f 35 37 8 392
f 377 378 10 11
f 10 380 379 9
f 412 377 11 403
f 12 13 14 15
f 12 21 26 27
f 34 13 12 27
f 428 18 13 34
f 14 13 18 22
f 14 22 48 16
f 15 14 16 17
f 15 20 21 12
f 15 17 30 33
f 38 17 16 31
f 16 48 50 31
f 17 38 66 30
f 19 394 393 7
f 19 32 395 394
f 20 15 33 54
f 21 20 24 23
f 21 23 59 26
f 23 24 22 18
f 22 24 25 48
f 428 59 23 18
f 24 20 54 25
f 87 27 26 70
f 483 29 28 64
f 28 454 65 64
f 60 453 469 61
f 32 19 31 50
f 67 55 33 30
f 34 27 87 103
f 37 35 36 389
f 36 63 62 389
f 36 413 71 63
f 36 35 391 413
f 37 390 46 8
f 38 44 45 66
f 41 39 40 51
f 42 58 40 39
f 40 58 82 83
f 40 83 90 51
f 41 483 84 39
f 42 43 74 57
f 84 43 42 39
f 45 44 46 47
f 73 45 47 76
f 390 91 47 46
f 48 25 49 50
f 54 56 49 25
f 100 396 50 49
f 50 396 395 32
f 52 41 51 53
f 94 53 51 438
f 85 84 483 64
f 53 60 61 52
f 55 56 54 33
f 98 49 56 127
f 420 127 56 55
f 58 42 57 82
f 70 26 59 113
f 104 113 59 428
f 94 95 60 53
f 471 453 60 69
f 62 374 384 389
f 63 71 72 75
f 63 75 373 62
f 85 64 65 112
f 65 69 97 112
f 67 30 66 68
f 66 45 73 68
f 67 93 420 55
f 93 67 68 96
f 69 60 95 97
f 70 113 114 122
f 71 413 380 381
f 71 381 411 72
f 96 68 73 426
f 425 426 73 76
f 84 85 74 43
f 74 115 86 57
f 74 85 121 115
f 75 72 410 146
f 76 47 91 92
f 138 425 76 92
f 78 79 77 108
f 77 99 101 418
f 159 108 77 418
f 77 79 397 99
f 78 108 109 142
f 405 401 78 142
f 401 398 79 78
f 82 80 81 83
f 90 83 81 119
f 81 80 120 119
f 82 57 477 89
f 82 89 88 80
f 103 89 477 104
f 86 157 158 160
f 87 88 89 103
f 87 70 122 88
f 120 80 88 124
f 88 122 123 124
f 176 177 90 119
f 90 177 438 51
f 384 116 91 390
f 92 91 116 130
f 139 138 92 130
f 491 95 94 155
f 95 491 154 97
f 421 93 96 423
f 422 423 96 426
f 100 49 98 102
f 98 482 128 171
f 101 99 100 102
f 397 396 100 99
f 101 102 446 415
f 102 98 171 446
f 428 34 103 104
f 114 113 104 477
f 105 106 107 434
f 110 111 105 117
f 162 106 105 111
f 106 126 152 107
f 186 125 106 162
f 107 152 151 153
f 141 142 109 167
f 109 108 159 163
f 165 205 109 163
f 110 117 118 144
f 156 111 110 214
f 110 475 210 214
f 111 156 161 162
f 112 149 121 85
f 112 97 154 149
f 123 122 114 150
f 160 150 114 477
f 157 86 491 155
f 374 129 116 384
f 434 143 117 105
f 132 131 118 135
f 118 131 137 144
f 118 117 143 135
f 119 120 183 176
f 120 124 175 183
f 154 115 121 149
f 192 175 124 123
f 126 106 125 196
f 132 128 482 131
f 482 133 134 131
f 127 420 419 133
f 128 132 137 136
f 130 116 129 383
f 388 382 129 374
f 136 137 131 134
f 484 134 133 419
f 137 132 135 144
f 171 128 136 178
f 484 179 180 181
f 208 209 484 181
f 138 139 140 195
f 138 195 424 425
f 139 173 182 140
f 383 172 139 130
f 188 189 141 375
f 201 406 141 189
f 406 405 142 141
f 144 135 143 145
f 194 184 475 145
f 475 180 208 210
f 434 432 145 143
f 146 147 148 443
f 373 75 146 443
f 201 174 147 408
f 410 408 147 146
f 148 147 174 187
f 148 187 296 385
f 386 443 148 385
f 192 123 150 193
f 164 151 152 165
f 196 165 152 126
f 153 151 198 200
f 433 432 153 200
f 153 432 434 107
f 158 157 155 239
f 155 94 438 239
f 156 214 194 433
f 460 193 158 239
f 166 473 159 418
f 167 163 159 487
f 160 158 193 150
f 161 270 197 185
f 198 270 161 200
f 433 200 161 156
f 185 186 162 161
f 198 151 164 205
f 167 164 165 163
f 458 205 165 196
f 495 473 166 417
f 166 415 416 417
f 167 109 205 164
f 168 169 170 457
f 204 444 497 190
f 207 497 206 259
f 452 206 497 444
f 472 204 203 170
f 224 204 472 323
f 502 168 232 492
f 488 234 248 322
f 191 457 170 203
f 173 139 172 213
f 387 213 172 382
f 182 173 251 199
f 243 187 174 202
f 175 327 276 183
f 176 238 237 177
f 176 183 276 238
f 239 438 177 237
f 178 136 209 252
f 178 414 446 171
f 208 180 492 209
f 492 232 252 209
f 492 271 272 502
f 419 421 179 484
f 179 421 423 271
f 180 475 184 181
f 195 140 182 199
f 184 210 208 181
f 197 125 186 185
f 187 243 437 296
f 202 189 188 228
f 188 375 226 228
f 190 191 203 204
f 327 175 192 456
f 192 193 460 456
f 210 184 194 214
f 194 145 432 433
f 427 424 195 199
f 202 174 201 189
f 407 406 201 408
f 198 205 458 270
f 282 259 496 455
f 337 315 316 326
f 207 244 232 168
f 225 212 211 235
f 297 235 211 298
f 213 211 212 173
f 212 225 223 231
f 230 302 212 231
f 251 173 212 302
f 298 211 213 387
f 215 217 245 257
f 215 258 444 216
f 217 215 216 219
f 220 219 216 224
f 217 219 218 245
f 218 219 220 221
f 220 430 222 221
f 221 223 225 218
f 223 221 222 229
f 242 229 222 248
f 504 248 222 348
f 474 333 334 358
f 340 341 503 430
f 223 229 230 231
f 430 220 224 323
f 444 204 224 216
f 225 260 245 218
f 225 235 269 260
f 228 226 227 249
f 241 240 227 450
f 376 450 227 226
f 243 202 228 249
f 489 481 230 229
f 232 244 256 252
f 233 461 281 242
f 234 233 242 248
f 495 268 246 247
f 460 490 318 319
f 239 237 490 460
f 238 276 325 317
f 240 250 249 227
f 240 486 314 275
f 321 250 240 275
f 486 308 290 289
f 486 305 304 308
f 241 450 451 496
f 241 206 452 305
f 489 286 278 481
f 489 281 285 286
f 243 249 250 437
f 244 207 259 265
f 246 268 279 280
f 282 247 246 280
f 455 236 247 282
f 250 321 320 437
f 251 302 427 199
f 414 178 252 256
f 263 264 253 255
f 283 254 253 284
f 295 284 253 264
f 255 253 254 261
f 262 261 254 266
f 254 283 293 266
f 255 283 284 263
f 255 261 293 283
f 256 244 265 267
f 258 215 257 449
f 260 288 257 245
f 260 274 287 288
f 293 261 262 299
f 447 309 262 266
f 476 264 263 273
f 295 273 263 284
f 314 295 264 275
f 279 267 265 280
f 265 259 282 280
f 299 447 266 293
f 267 416 414 256
f 267 279 417 416
f 417 279 268 495
f 269 476 274 260
f 269 235 297 320
f 271 277 278 272
f 422 277 271 423
f 272 329 332 502
f 274 476 273 313
f 321 476 269 320
f 276 327 328 325
f 481 278 277 427
f 277 422 424 427
f 329 272 278 286
f 331 285 281 461
f 286 285 331 336
f 294 306 301 465
f 287 289 290 291
f 292 288 287 291
f 313 289 287 274
f 449 257 288 292
f 289 313 314 486
f 290 463 300 291
f 435 292 291 300
f 292 435 436 449
f 294 447 299 311
f 294 310 309 447
f 294 465 464 310
f 295 314 313 273
f 296 297 298 385
f 437 320 297 296
f 386 385 298 387
f 299 262 309 311
f 462 435 300 463
f 312 480 301 306
f 304 305 303 465
f 303 448 436 307
f 448 303 305 452
f 311 312 306 294
f 307 436 435 462
f 307 464 465 303
f 465 301 308 304
f 311 309 310 312
f 312 310 464 480
f 315 337 338 431
f 316 315 431 356
f 318 490 317 347
f 347 317 353 349
f 319 318 347 349
f 351 330 319 349
f 323 472 322 324
f 324 504 493 350
f 324 340 430 323
f 325 352 353 317
f 338 337 494 339
f 343 339 494 499
f 478 344 326 316
f 327 456 330 328
f 352 325 328 440
f 329 286 336 466
f 329 466 366 442
f 330 351 440 328
f 330 456 460 319
f 441 336 331 332
f 332 329 442 441
f 332 331 461 169
f 335 501 499 494
f 333 474 500 342
f 355 501 429 346
f 344 345 335 326
f 335 345 429 501
f 470 466 336 441
f 338 360 367 431
f 356 357 339 361
f 360 338 339 357
f 350 359 340 324
f 485 342 500 364
f 341 340 359 368
f 500 493 365 364
f 342 355 346 333
f 343 499 346 363
f 361 339 343 362
f 362 343 344 485
f 363 345 344 343
f 344 478 498 485
f 348 474 358 365
f 493 341 368 350
f 470 351 349 479
f 372 371 350 368
f 470 439 440 351
f 470 441 442 439
f 369 467 353 352
f 369 366 354 467
f 354 366 466 468
f 355 342 358 334
f 367 357 356 431
f 371 372 357 367
f 371 370 359 350
f 359 370 372 368
f 360 357 372 370
f 498 478 361 364
f 364 361 362 485
f 429 345 363 346
f 367 360 370 371
f 440 439 369 352
f 369 439 442 366
f 374 62 373 388
f 373 443 386 388
f 376 226 375 487
f 409 411 377 412
f 378 381 380 10
f 411 381 378 377
f 391 379 380 413
f 383 129 382 172
f 386 387 382 388
f 389 384 390 37
f 391 35 392 445
f 392 7 393 445
f 397 399 395 396
f 400 394 395 399
f 398 399 397 79
f 401 405 404 402
f 403 402 404 412
f 404 405 406 407
f 412 404 407 409
f 409 407 408 410
f 411 409 410 72
f 418 101 415 166
f 446 414 416 415
f 420 93 421 419
f 425 424 422 426
f 448 452 444 258
f 449 436 448 258
f 450 376 459 451
f 125 270 458 196
f 236 459 376 473
f 459 455 496 451
f 457 191 190 497
f 488 461 233 234
f 480 464 463 290
f 463 464 307 462
f 470 479 468 466
f 468 479 467 354
f 488 170 169 461
f 487 375 141 167
f 503 348 222 430
f 475 110 144 145
f 476 321 275 264
f 477 57 86 160
f 478 316 356 361
f 479 349 353 467
f 480 290 308 301
f 481 427 302 230
f 482 98 127 133
f 483 41 52 29
f 484 209 136 134
f 485 498 358 342
f 486 240 241 305
f 487 159 473 376
f 488 322 472 170
f 489 229 242 281
f 490 237 238 317
f 491 86 115 154
f 492 180 179 271
f 493 504 348 365
f 494 337 326 335
f 495 247 236 473
f 496 259 206 241
f 497 207 168 457
f 498 364 365 358
f 499 334 333 346
f 500 503 341 493
f 501 355 334 499
f 502 332 169 168
f 503 500 474 348
f 504 324 322 248
