v -1.15452 1.72988 -1.57087
v -1.70398 1.97031 -1.58628
v -1.18258 1.73157 -2.22407
v -1.70141 2.13437 -1.07607
v -2.15416 2.46518 -1.00634
v -2.66095 2.0606 -0.778824
v -2.35404 2.37392 -0.672562
v -2.32057 1.93902 -0.553135
v -1.91347 2.44379 -0.613693
v -1.43124 3.03024 -1.06302
v -1.12648 2.64488 -1.08498
v -2.56491 2.67954 -0.139869
v -2.01083 2.563 -0.418567
v -2.62299 2.09251 -0.22812
v -1.61934 2.69062 -0.956915
v -1.80604 2.95816 -0.770825
v -1.36727 2.62796 -0.626508
v -1.83188 2.80381 -0.477092
v -1.76708 3.38477 -0.776959
v -2.55641 2.71686 -0.808341
v -0.759111 3.04595 -0.955543
v -2.1471 2.29932 -1.51421
v -2.46595 2.65988 -1.15625
v -1.1841 3.5197 -1.20707
v -0.516629 3.11036 -1.71412
v -0.21164 2.56877 -1.31448
v -0.304534 2.27606 -1.86108
v -0.583928 2.77734 -2.26084
v -1.73962 2.7803 -1.49415
v -0.650147 2.40853 -0.405334
v -0.933266 3.27783 -0.35881
v -1.19854 2.84642 -0.0945217
v -1.56347 2.85448 -0.131986
v -1.08633 3.13267 -0.431011
v -0.32038 2.95317 -0.746443
v -1.88462 3.04645 0.184468
v -2.31742 2.62768 -1.52219
v -2.9595 3.01245 -0.914658
v -1.89336 2.8768 0.276775
v -1.78433 3.06696 0.325878
v -2.48708 3.18647 -0.563164
v -0.789834 3.7365 -0.962834
v -1.28618 3.89323 -0.958416
v -2.02065 2.63362 -2.31468
v -1.93821 2.64341 -1.70072
v -1.63505 3.34264 -2.23016
v -0.808245 3.40742 -0.779003
v -1.73962 2.7803 -1.49415
v -1.11233 3.43741 -0.678238
v -2.68543 3.08176 -0.0746327
v -2.62867 3.60948 0.054959
v -2.37653 2.96636 -1.0945
v -2.37653 2.96636 -1.0945
v -1.21894 3.49753 -0.227623
v -1.73962 2.7803 -1.49415
v -2.87286 2.97872 -0.527773
v -2.91901 3.40075 -0.459856
v -2.52926 3.20562 -0.012694
v -1.68964 3.61311 -0.0437776
v -1.73962 2.7803 -1.49415
v -1.73962 2.7803 -1.49415
v -2.17175 3.35366 0.234775
v -2.38833 3.61902 -0.565499
v -1.66918 3.53993 -0.184969
v -2.39276 2.9497 -1.18097
v -1.73962 2.7803 -1.49415
v -2.31912 3.01437 -1.45215
v -1.73962 2.7803 -1.49415
v -2.42558 3.54242 0.087196
v -2.13884 3.33542 0.339208
v -1.78311 3.6638 -1.1898
v -1.93387 3.33187 -0.763847
v -1.43363 3.85417 -0.769431
v -2.16153 3.79799 -0.338012
v -2.51713 3.15615 -1.12312
v -2.11677 4.1001 -0.487845
v -2.03359 3.46224 -1.35438
v -2.62867 3.60948 0.054959
v -2.62867 3.60948 0.054959
v -2.62341 3.61845 0.0440479
v -2.62867 3.60948 0.054959
v -2.62614 3.61306 0.0508969
v -2.61984 3.62158 0.0414383
v -2.62341 3.61845 0.0440479
v -2.35215 3.7127 -0.273713
v -2.62867 3.60948 0.054959
v -2.25945 3.8136 -0.225516
v -2.62867 3.60948 0.054959
v -2.49946 3.46283 0.0809368
v -2.5856 3.5606 0.0636183
v -2.5056 3.67752 -0.0385325
v -0.409885 3.55936 -1.23294
v -0.958817 3.53318 -1.82657
v -0.941637 4.02957 -1.43665
v -2.1473 2.34241 -1.98732
v -1.32193 4.22204 -0.740243
v -0.827085 3.73244 -0.725814
v -0.449743 1.95906 -0.949147
v -1.15128 1.85918 -0.954689
v -1.26832 2.16887 -0.408263
v -1.54356 2.52528 -0.0616597
v -1.97623 2.49726 -0.183668
v -0.633004 1.54945 -2.14626
v -0.507021 1.68056 -1.57317
v -1.69019 2.03719 -2.17938
v -0.467899 2.00845 -2.31273
v -0.907513 2.24679 -2.54209
v -1.12651 3.11783 -2.46503
v -2.66699 3.68238 -0.931781
v -2.20993 2.77607 0.149304
v -2.34744 3.24965 0.271769
v -2.63635 2.91049 -0.952884
v -1.94326 3.33078 -0.489273
v -2.67398 2.52489 -0.263052
v -1.46589 2.48285 -2.53814
v -1.18422 3.3746 -0.920918
v -0.772505 3.43782 -1.26875
v -2.62867 3.60948 0.054959
v -2.62867 3.60948 0.054959
v -1.73962 2.7803 -1.49415
v -1.73962 2.7803 -1.49415
v -1.73962 2.7803 -1.49415
v -2.21278 2.91529 -1.29897
v -2.46259 2.87719 -1.20444
v -2.62804 3.61038 0.0539435
v -2.62607 3.61366 0.0499679
v -2.62867 3.60948 0.054959
v -1.33274 3.72331 -1.54128
v -2.61984 3.62158 0.0414383
v -2.62867 3.60948 0.054959
v -2.05415 3.18209 -0.594862
v -2.62867 3.60948 0.054959
v -2.62867 3.60948 0.054959
v -2.20481 3.71942 -0.673993
v -1.73962 2.7803 -1.49415
v -2.63933 2.55602 -0.776369
v -2.22369 3.46548 -0.852363
v -2.62867 3.60948 0.054959
f 4 2 1 99
f 3 1 2 105
f 2 4 5 22
f 3 103 104 1
f 5 4 9 7
f 23 22 5 136
f 8 6 7 9
f 7 6 14 114
f 38 23 136 56
f 12 13 8 14
f 8 13 20 6
f 9 102 14 8
f 99 100 9 4
f 10 19 16 15
f 21 116 10 11
f 11 10 15 17
f 36 13 12 58
f 41 58 12 20
f 14 6 20 12
f 14 102 110 114
f 17 15 16 18
f 113 18 16 19
f 17 34 21 11
f 17 18 33 34
f 20 13 131 41
f 131 13 36 33
f 41 131 138 58
f 131 113 137 138
f 19 10 116 73
f 21 34 49 47
f 24 116 21 117
f 22 95 105 2
f 23 37 95 22
f 25 26 27 28
f 25 92 35 26
f 94 92 25 93
f 27 26 98 104
f 107 28 27 106
f 93 25 28 108
f 124 123 29 65
f 31 32 30 35
f 99 98 30 100
f 30 32 101 100
f 92 97 31 35
f 32 40 39 101
f 32 31 64 40
f 49 34 33 54
f 98 26 35 30
f 36 59 54 33
f 37 23 38 67
f 37 45 44 95
f 37 67 135 45
f 38 109 77 67
f 102 101 39 110
f 111 110 39 70
f 40 62 70 39
f 133 62 40 64
f 43 42 47 49
f 116 24 43 49
f 117 42 43 24
f 105 95 44 115
f 44 46 108 115
f 46 44 45 48
f 117 21 47 42
f 135 66 122 61
f 49 54 73 116
f 50 111 89 132
f 50 114 110 111
f 56 50 132 57
f 77 109 51 72
f 121 72 138 137
f 125 82 127 79
f 53 52 112 75
f 52 123 124 112
f 71 55 118 74
f 56 57 109 38
f 56 136 114 50
f 58 51 59 36
f 59 76 73 54
f 61 120 60 48
f 108 46 128 93
f 69 70 62 133
f 63 134 85 86
f 63 86 91 130
f 74 133 64 96
f 97 96 64 31
f 112 124 65 75
f 66 135 67 77
f 72 121 68 122
f 111 70 69 89
f 93 128 71 94
f 96 94 71 74
f 87 85 134 76
f 113 19 134 137
f 75 65 123 52
f 122 66 77 72
f 78 127 82 81
f 89 90 79 132
f 119 125 79 90
f 119 78 81 125
f 82 126 84 80
f 83 126 88 129
f 85 87 91 86
f 87 76 130 91
f 89 69 118 90
f 97 92 94 96
f 99 1 104 98
f 100 101 102 9
f 107 106 103 3
f 106 27 104 103
f 105 115 107 3
f 108 28 107 115
f 126 82 125 88
f 131 33 18 113
f 132 79 127 57
f 133 74 118 69
f 134 19 73 76
f 135 61 48 45
f 136 5 7 114
f 137 134 63 121
f 138 72 51 58
