v -66.4075 13.3944 13.2349
v -56.7422 8.16331 8.7502
v -66.034 4.56042 12.0546
v -63.1987 -3.74742 10.2574
v -37.1181 11.8982 7.70397
v -39.1744 23.3208 7.71435
v -29.0454 24.7641 7.67984
v -7.24971 14.1411 7.6799
v -8.4974 24.4986 7.6799
v 0.948424 27.2829 7.67988
v 31.8412 13.6933 8.14801
v 22.2562 14.0231 7.7749
v 30.8193 26.0675 8.09519
v 41.2832 13.5736 8.94899
v 49.459 25.284 10.0849
v 50.7011 13.8555 10.2755
v 59.4328 26.4937 11.9
v 60.3792 14.3876 12.0822
v 0.304781 33.7091 16.1353
v 10.0264 36.181 14.0475
v 56.6975 31.5024 16.0102
v 48.4237 34.738 12.0211
v 47.3542 35.0345 22.9803
v 51.9503 31.5845 30.1054
v 54.2404 32.6499 21.8118
v 54.379 -8.91352 11.2722
v 44.5152 -10.8103 21.9496
v 44.0161 -10.8901 10.648
v 71.8717 3.52204 15.6183
v 70.1594 13.8827 14.8872
v 73.3025 4.43471 24.8204
v 72.5041 16.8576 30.9652
v 72.6696 7.96155 31.8283
v 73.6434 14.2031 22.4169
v -17.5044 28.1374 27.4669
v -7.65914 29.9659 27.4478
v -18.9287 28.834 16.8168
v 66.4355 -3.74793 29.0734
v -64.4695 13.7267 31.3806
v -66.2632 3.57905 21.0817
v -65.1147 3.27117 31.146
v -61.7323 -5.40303 18.9789
v -60.3886 -5.81615 29.6776
v -50.027 25.1448 16.2897
v -59.9704 22.042 19.4921
v -58.0894 21.6629 30.5016
v -48.2078 24.5398 28.5457
v -53.39 -9.90103 14.4939
v -51.6765 -9.84677 26.9119
v -39.2681 26.6277 17.3155
v -28.936 27.5213 17.3341
v -37.8808 25.9941 27.8187
v 5.60062 -10.6574 25.5615
v -3.81369 -10.5836 25.1496
v 4.55216 -8.48323 12.5626
v 13.8508 -9.55047 12.0497
v 68.6339 23.8879 27.0106
v 63.2762 28.0893 21.246
v 62.1886 23.5491 31.7694
v 65.6646 4.78644 34.414
v 47.396 11.9908 38.8211
v 56.1063 13.0362 36.873
v 54.4123 22.2809 34.0611
v 46.9465 2.51986 37.0733
v 64.6174 14.6375 34.7831
v 58.3614 30.6298 26.4287
v 56.5017 3.31039 35.7727
v 55.9764 -4.74048 30.2125
v 45.763 -5.67606 30.8964
v 12.0077 33.6088 27.4031
v 19.581 37.908 13.2222
v 15.0114 -11.0887 24.8018
v 16.5153 -5.61572 34.9404
v 24.1223 28.2364 36.211
v 30.5577 37.6369 25.437
v 21.3839 35.8607 26.7421
v 32.7709 28.2788 35.6161
v 18.1487 -0.121457 40.7103
v 25.9247 -6.11153 32.777
v 34.1667 -5.24665 33.3414
v -32.5487 -10.8988 23.9694
v -42.1659 -10.7421 24.8953
v -43.7208 -10.2658 12.6307
v -33.8777 -9.45224 12.1186
v -24.0944 -8.37177 12.3235
v -22.8806 -10.7052 24.4014
v -58.4741 -5.82741 41.2196
v -64.1636 2.94106 42.2764
v -63.3705 13.3803 42.3486
v -59.5121 3.21594 53.5041
v -55.5598 19.6135 41.0858
v -45.8161 21.6051 38.7435
v -27.5983 26.8839 27.4981
v -35.9181 22.9714 37.3259
v -22.092 -6.83267 34.7904
v -31.4464 -7.59465 34.2335
v 4.29444 26.5116 39.6661
v 2.19442 31.9141 27.8948
v -5.76079 25.7301 38.8831
v -40.5579 -7.93433 35.4885
v 14.4391 27.1099 38.2701
v -2.99826 -0.431047 48.7314
v -2.97865 -6.27908 37.2483
v 8.49196 4.10764 46.2266
v 6.82008 -5.90192 36.8677
v -22.6225 -2.59371 44.7686
v -30.4285 -4.55554 43.9356
v -42.8977 18.9915 48.4491
v -45.9971 -4.87823 47.8552
v -52.7678 -3.20416 52.3619
v -49.5012 -8.0833 38.019
v -34.0164 20.2816 46.0992
v -60.9537 12.9192 53.3682
v -52.0691 16.7763 50.6397
v -38.2268 -5.4693 45.2847
v 24.8737 27.2261 43.4517
v 31.8131 24.8595 42.0806
v 19.5631 0.976839 44.9529
v 28.8966 1.58236 42.9996
v 30.5622 10.1409 45.55
v 19.6549 18.4258 48.1135
v 21.464 9.14332 49.6741
v 26.4754 16.6341 47.3938
v 10.5403 17.3897 52.1274
v 3.35126 8.10269 58.4852
v 12.3635 8.53224 54.0528
v 18.9166 3.38295 47.346
v 11.0686 5.97697 52.7412
v 23.934 0.475028 42.882
v -12.2637 -1.96556 46.4379
v -13.7021 -1.27193 46.9352
v -21.9924 -2.18788 44.5787
v -24.1236 18.8922 36.4982
v -25.2565 19.3116 45.9979
v -25.6406 19.5825 40.6873
v -38.2583 -4.47545 36.1293
v -37.896 -4.85754 39.8528
v -44.7345 -3.62098 39.6945
v -44.7345 -3.62098 39.6945
v -43.2606 18.2882 47.5083
v -12.1677 18.1218 43.8888
v -12.1606 18.1232 43.9783
v -34.2872 19.6572 44.5917
v -18.1494 18.5061 40.1351
v -30.2366 -3.89 42.3274
v -4.70161 10.965 58.8477
v -4.70161 10.965 58.8477
v -4.15383 5.17122 59.3645
v -1.00542 5.84933 58.4685
v -0.99589 5.80913 58.5498
v -1.00542 5.84933 58.4685
v -59.4109 18.6501 9.39355
v -49.0015 19.7848 7.94064
v -18.8807 25.3554 7.6799
v -9.21104 31.0191 14.7926
v 29.5716 38.4178 12.1498
v 39.2155 37.258 11.6893
v 40.1583 25.6439 8.83802
v 70.9335 21.4767 21.1552
v 63.1068 -4.92469 11.7167
v 64.8546 -5.25466 19.7693
v 54.7663 -8.71243 21.3843
v 52.3094 2.30087 10.5181
v 33.4166 -11.6361 10.4762
v 42.639 1.37138 9.08289
v 13.4546 2.48464 7.67983
v 23.2485 -10.9401 11.0337
v 23.1478 1.64286 7.78977
v -15.8417 2.85154 7.6799
v -6.01009 3.11675 7.6799
v -14.3968 -7.7598 12.6341
v 3.7387 3.1047 7.67987
v -4.84442 -7.69974 12.3
v -25.6542 2.12566 7.6799
v -35.3517 0.934921 7.69514
v -44.9549 -0.294245 7.80217
v -54.503 -1.19619 8.42966
v -61.1825 -25.0871 10.0254
v -58.7458 -39.9998 9.1825
v -64.7485 -38.1191 12.6468
v -29.6523 -13.532 7.55384
v -29.4872 -27.901 7.67983
v -41.4519 -11.4498 9.23667
v 42.3187 -32.2324 9.02003
v 31.6284 -17.9822 8.13711
v 41.2928 -20.4 8.95006
v 50.6885 -21.5027 10.2737
v 51.4129 -11.0727 10.9159
v 51.6286 -32.0774 10.3996
v 59.4251 -22.6938 11.8984
v 68.4113 -30.9055 14.2474
v 66.6617 -24.2125 13.2733
v 70.1586 -20.045 17.7677
v 73.8198 -29.7191 19.6921
v 14.0593 -58.2 20.5953
v 3.55587 -55.7144 21.4299
v 12.7672 -57.9559 9.02036
v 36.0711 -59.0708 20.0809
v 47.0999 -56.3628 10.1514
v 46.6261 -56.5239 20.666
v 61.2616 -14.3687 13.3682
v 59.89 -13.8555 22.5826
v 71.2052 -39.6271 31.6758
v 66.7731 -47.0322 16.7662
v 73.1006 -38.616 22.9381
v 68.101 -18.1962 27.8158
v 70.8083 -37.6562 14.3455
v 72.3084 -27.0393 31.9674
v -65.8894 -30.5426 27.0806
v -63.3773 -39.6085 18.7241
v -62.4561 -39.8522 27.1539
v -56.9191 -44.8414 17.6128
v -55.208 -45.0117 26.3017
v -48.0601 -46.7271 16.6238
v -46.0928 -46.7626 25.1652
v -54.7299 -11.7116 11.7193
v -54.6058 -11.6624 22.7897
v -41.873 -10.2772 20.6196
v -30.0697 -10.6958 19.3029
v -19.0241 -11.0023 18.7698
v 15.8637 -53.5923 30.0033
v 25.0112 -59.7601 19.9237
v 26.3363 -55.0323 29.3714
v 38.9077 -9.89163 22.3813
v 28.8495 -9.91706 24.46
v 27.6825 -17.2262 36.1953
v 55.9519 -14.7752 29.201
v 49.0591 -11.2347 21.1731
v 47.7483 -14.2442 29.5909
v 38.492 -14.7523 31.3894
v 56.5589 -52.7646 21.9626
v 66.0835 -47.4451 26.8059
v 54.5942 -52.3789 28.1359
v 57.6906 -46.5501 31.4459
v 60.6813 -28.9071 36.0105
v 58.895 -20.1418 32.9212
v 59.9484 -38.8853 35.3143
v 38.0797 -48.13 34.8298
v 49.5189 -39.3941 37.359
v 38.9783 -40.9188 39.9723
v 48.0442 -47.3141 33.2951
v 49.2845 -21.384 35.2518
v 1.39612 -11.4879 16.2437
v 1.23586 -12.0728 29.2797
v 10.9056 -10.5271 16.3174
v 5.53071 -51.8767 31.3067
v 10.714 -11.9429 28.2147
v 19.7144 -10.8071 26.0835
v -34.4009 -46.1343 32.5508
v -44.2666 -45.068 33.2965
v -36.3326 -47.8437 24.4275
v -26.358 -48.7587 23.9714
v -24.4776 -46.9657 32.6987
v -29.6973 -12.3044 29.7166
v -41.2746 -12.2341 30.8578
v -53.6263 -12.418 33.0191
v -16.3742 -50.2826 23.3657
v -53.4611 -43.1729 34.8082
v -61.4977 -39.1411 36.0988
v -65.134 -29.9624 36.0097
v -63.1122 -19.3369 35.0304
v -64.2609 -29.1328 45.6434
v -64.2551 -19.7636 25.8154
v -51.7023 -40.6809 42.9639
v -59.9652 -37.7879 45.1603
v -60.8242 -18.4085 44.8046
v -50.7386 -14.4104 42.535
v -18.86 -12.2367 29.6751
v -8.86574 -16.8728 40.6592
v -8.64416 -12.1532 29.7534
v -18.9088 -16.4038 39.3667
v -3.03843 -45.3773 42.2722
v -1.12657 -38.4914 51.6707
v -13.2285 -44.0219 42.2142
v 1.23121 -16.9236 40.7735
v -10.6671 -23.082 50.8995
v -32.8691 -43.4211 40.2051
v -41.538 -40.2282 47.9984
v -42.413 -42.4613 40.6735
v -39.8311 -14.4439 40.6657
v -49.6691 -38.185 50.8937
v -57.1321 -35.6837 53.8133
v -60.1493 -27.7437 54.8811
v -23.1118 -43.218 40.9
v -23.5264 -40.58 49.4226
v -56.3826 -19.0099 53.559
v -29.5142 -17.4892 47.0096
v -20.475 -20.057 48.5237
v 3.13316 -25.4084 54.6447
v -0.212278 -30.9145 60.4838
v 4.58377 -33.1057 58.4788
v 2.58309 -37.6372 56.2019
v 9.91955 -39.1385 51.0987
v 2.34574 -39.2902 53.3021
v -38.7286 -17.7212 47.025
v -11.812 -38.6364 50.6278
v -13.1038 -39.4775 51.7771
v -48.0478 -17.4298 49.8136
v -47.7757 -17.8672 49.7515
v -22.6878 -40.4529 50.0385
v -32.5297 -40.4779 48.8195
v -41.6562 -39.4143 48.141
v -32.9372 -41.4679 47.7816
v -45.8424 -38.3246 49.8057
v -53.9508 -34.493 52.4143
v -38.2074 -18.309 48.2834
v -22.7934 -18.9542 47.8013
v 9.47182 -21.8173 49.8658
v 17.0536 -20.9623 46.7438
v 12.5782 -22.9783 49.7214
v 17.1336 -44.7785 44.9
v 26.9776 -40.5775 46.1225
v 11.8429 -43.096 46.5245
v 10.6406 -41.9665 49.389
v -4.44661 -32.778 63.2231
v -1.0857 -35.2568 59.6352
v 2.58309 -37.6372 56.2019
v -1.0857 -35.2568 59.6352
v -18.616 -42.3741 7.67986
v -7.86066 -42.2424 7.6799
v -8.11815 -52.5088 11.5112
v -18.1584 -50.1773 13.9631
v 53.8856 -42.5481 10.7923
v 63.2383 -40.3054 12.7795
v 57.3685 -52.3895 12.5063
v 2.06033 -19.4887 7.6799
v 11.9072 -18.6231 7.67985
v 17.1563 -45.3379 44.0321
v 11.8429 -43.096 46.5245
v 32.8827 1.14728 8.2019
v 20.9313 -37.6725 48.4032
v 22.2256 -32.4648 49.6894
v 19.7667 17.7912 49.5826
v 20.6321 -10.2619 13.5694
v 21.8285 -19.751 7.76792
v 21.2025 26.0907 7.75744
v 12.4706 14.461 7.6798
v 11.2378 26.1175 7.6798
v 12.3257 17.7816 51.2678
v 6.41558 -26.9245 53.927
v 18.7201 -27.216 49.0481
v 12.5032 -27.1158 51.3122
v -27.2866 13.2019 7.67985
v -2.04841 1.94629 46.7054
v 18.8467 2.97787 43.3988
v 37.6473 10.7968 42.1669
v 24.0385 -38.8651 47.3338
v 26.9776 -40.5775 46.1225
v 30.1513 25.4148 41.9446
v 30.0312 25.3794 42.0645
v 30.1513 25.4148 41.9446
v 22.4531 -20.5242 42.6393
v 27.1575 -2.71691 39.6925
v 27.1575 -2.71691 39.6925
v 22.4531 -20.5242 42.6393
v 20.823 -19.206 43.0294
v 2.59043 14.8713 7.67986
v 2.42325 -31.1721 7.67989
v 2.59566 -43.4717 7.67986
v -7.95873 -29.711 7.6799
v -29.3043 -42.5936 7.67982
v -18.5833 -28.7363 7.6799
v 2.6349 16.7923 55.6769
v 4.8194 16.6297 54.526
v -1.29401 15.6085 57.2319
v 28.1668 25.97 42.0797
v 27.4391 -48.8876 36.6961
v -16.5272 18.3713 46.8089
v 4.18327 17.8909 48.6787
v -6.2759 17.7488 48.7984
v 28.1539 0.0446363 40.8618
v 12.3771 -25.2098 50.9448
v 13.4631 -32.6337 54.1624
v -15.6959 24.6538 37.6914
v 23.165 22.1305 45.5168
v 17.3209 19.1662 48.0262
v -46.7948 9.98485 7.8219
v 44.8897 21.1239 37.1223
v 42.8987 29.8552 31.504
v -4.31306 11.0988 58.6532
v -6.48794 -52.8038 22.4155
v -14.6683 -48.3627 32.9892
v 24.2484 -57.8142 7.80807
v 12.9869 -44.7176 7.6798
v 23.5108 -45.0664 7.79573
v -54.8499 -1.30395 48.6123
v -46.9914 -3.73888 38.3158
v -54.8499 -1.30395 48.6123
v -8.64327 -10.5525 17.8948
v -23.1591 -19.0194 47.333
v -22.7934 -18.9542 47.8013
v 0.79809 -28.2848 56.949
v -0.212278 -30.9145 60.4838
v 34.1536 -11.6612 22.3414
v -28.1814 -48.799 15.3737
v 22.6753 -32.2093 7.78188
v 40.9022 -10.025 11.5424
v -29.2564 -15.229 38.9124
v -57.2257 -29.2885 53.031
v -12.6033 -6.4293 36.2134
v -13.3089 -10.4737 25.0803
v -5.64646 13.8172 58.4645
v -10.5771 -21.6533 50.0276
v 29.3448 -34.5007 46.2416
v 32.608 -31.8914 8.18758
v 33.9891 -44.7818 8.24407
v 44.1898 -44.1972 9.25586
v 5.69135 17.4877 49.7214
v 30.4305 -9.58294 14.2211
v 20.3429 -17.2213 36.8244
v 11.1115 -17.047 39.2346
v 19.0347 -19.1774 43.3122
v 12.5861 -31.7606 7.6798
v 40.3621 -31.0446 41.0863
v 61.8732 3.54835 12.4457
v -4.70119 -50.1993 32.5237
v 10.4905 -39.4196 50.554
v 9.82356 -39.1385 51.167
v 17.256 -39.1119 48.9147
v 2.10247 -55.3832 9.95455
v 37.0714 -54.8211 28.7194
v 39.7457 36.9492 24.0556
v 24.4114 -11.7747 23.2854
v -38.2547 -47.9124 15.9976
v -40.534 -26.866 7.71681
v -51.5189 -26.1833 8.09587
v -54.096 -22.5875 52.3521
v 60.3853 -31.7768 12.0835
v -17.3065 13.9178 7.6799
v 67.7554 24.8709 14.1148
v 18.2542 -48.0945 38.0612
v -65.748 13.7596 21.2283
v -18.6094 -14.951 7.66092
v -8.14944 -16.4824 7.12757
v -25.8802 23.8245 37.101
v -57.3882 9.54889 54.23
v -6.42213 16.4495 59.1874
v 27.1683 16.6578 44.2939
v 11.8429 -43.096 46.5245
v -39.7921 -42.0742 7.70743
v -49.913 -41.2711 7.99702
v 23.8585 0.510738 42.9074
v 20.298 -25.5585 48.584
v 8.39769 2.46275 45.0499
v 8.39914 2.46208 45.0521
v 50.0783 -30.2475 38.0686
v -45.8424 -38.3246 49.8057
v -28.2269 -18.682 47.1002
v 7.59076 -47.1032 40.6406
v -52.9213 15.8966 49.108
v -0.5149 -39.9128 49.994
v 39.1579 -22.6232 38.646
v -45.8424 -38.3246 49.8057
v -6.77831 6.94207 62.8691
v -65.8691 -30.9965 12.9153
v -65.0021 -20.5387 16.7846
v -66.4476 -30.692 18.6694
v -50.9868 -2.81586 43.4654
v 1.38683 -22.6515 51.8367
v 2.13777 6.47923 57.7904
v -4.70161 10.965 58.8477
v 14.4241 19.8442 47.6419
v 35.738 -57.2735 8.40194
v -0.596226 -22.8937 51.0099
v -18.1457 18.507 40.1935
v 47.3863 -53.391 28.3519
v 28.0156 -24.0848 46.078
v 34.0308 19.0812 42.0251
v 26.7103 -44.3418 44.4763
v 37.2239 1.87398 39.7532
f 2 3 1 152
f 40 432 1 3
f 1 432 45 152
f 4 3 2 177
f 2 377 176 177
f 42 40 3 4
f 4 177 48 42
f 5 6 7 343
f 174 175 5 343
f 5 175 176 377
f 44 50 6 153
f 6 50 51 7
f 377 153 6 5
f 37 154 7 51
f 8 9 10 357
f 8 429 154 9
f 8 170 169 429
f 172 170 8 357
f 10 19 20 338
f 10 9 155 19
f 11 13 158 14
f 11 330 168 12
f 13 11 12 336
f 166 337 12 168
f 71 156 13 336
f 15 16 14 158
f 330 11 14 165
f 15 17 18 16
f 15 158 157 22
f 16 163 165 14
f 22 21 17 15
f 17 430 30 18
f 18 415 163 16
f 36 98 19 155
f 20 19 98 70
f 336 338 20 71
f 430 17 21 58
f 22 23 25 21
f 23 22 157 422
f 25 23 24 66
f 378 63 24 379
f 422 379 24 23
f 25 66 58 21
f 27 28 26 162
f 26 160 161 162
f 26 28 165 163
f 27 69 80 394
f 164 28 27 394
f 29 31 38 161
f 29 161 160 415
f 31 29 30 34
f 159 34 30 430
f 30 29 415 18
f 59 65 32 57
f 60 33 32 65
f 34 32 33 31
f 38 31 33 60
f 57 32 34 159
f 35 37 51 93
f 99 36 35 374
f 37 35 36 155
f 162 161 38 68
f 40 41 39 432
f 39 46 45 432
f 39 41 88 89
f 42 43 41 40
f 41 43 87 88
f 42 48 49 43
f 44 45 46 47
f 44 153 152 45
f 89 91 46 39
f 92 47 46 91
f 50 44 47 52
f 176 83 48 177
f 83 82 49 48
f 87 43 49 111
f 49 82 100 111
f 51 50 52 93
f 52 47 92 94
f 53 55 56 72
f 53 72 73 105
f 55 53 54 173
f 54 53 105 103
f 54 401 171 173
f 400 401 54 103
f 166 56 55 172
f 59 57 58 66
f 159 430 58 57
f 59 63 62 65
f 60 67 68 38
f 61 62 63 378
f 61 346 470 64
f 62 61 64 67
f 66 24 63 59
f 65 62 67 60
f 69 68 67 64
f 162 68 69 27
f 470 80 69 64
f 71 20 70 76
f 70 101 74 76
f 70 98 97 101
f 71 76 75 156
f 72 423 79 73
f 167 423 72 56
f 75 76 74 77
f 74 116 117 77
f 157 156 75 422
f 379 422 75 77
f 78 79 80 353
f 79 78 345 73
f 79 423 394 80
f 81 82 83 84
f 85 86 81 84
f 96 100 82 81
f 84 83 176 175
f 175 174 85 84
f 86 95 96 81
f 171 401 86 85
f 90 88 87 110
f 109 110 87 111
f 89 88 90 113
f 89 113 114 91
f 90 436 450 113
f 108 92 91 114
f 93 52 94 435
f 374 35 93 435
f 108 112 94 92
f 95 106 107 96
f 401 400 95 86
f 115 100 96 107
f 97 408 376 101
f 99 97 98 36
f 368 370 99 374
f 408 97 99 370
f 100 115 109 111
f 116 74 101 376
f 102 104 344 130
f 400 103 102 131
f 104 102 103 105
f 345 104 105 73
f 132 145 106 131
f 400 131 106 95
f 145 137 107 106
f 108 114 140 143
f 109 387 386 110
f 110 386 436 90
f 143 135 112 108
f 112 134 435 94
f 114 113 450 140
f 137 136 115 107
f 115 136 387 109
f 350 117 116 366
f 333 123 468 438
f 468 378 379 77
f 118 119 120 122
f 126 127 118 122
f 129 442 118 127
f 354 353 119 371
f 119 118 442 371
f 120 119 470 346
f 121 124 126 122
f 123 121 122 120
f 339 121 123 333
f 346 468 123 120
f 125 126 124 363
f 339 364 124 121
f 460 128 125 454
f 126 125 128 127
f 131 102 130 132
f 141 142 133 465
f 135 133 134 112
f 142 368 134 133
f 134 368 374 435
f 465 133 135 144
f 137 139 138 136
f 387 136 138 458
f 402 380 146 437
f 147 146 380 461
f 437 146 148 454
f 148 150 460 454
f 151 149 150 148
f 152 153 377 2
f 155 9 154 37
f 343 7 154 429
f 156 157 158 13
f 160 26 163 415
f 165 28 164 330
f 168 330 164 167
f 167 56 166 168
f 357 337 166 172
f 394 423 167 164
f 169 174 343 429
f 171 169 170 173
f 171 85 174 169
f 173 170 172 55
f 178 179 180 455
f 216 426 178 456
f 178 455 457 456
f 210 180 179 212
f 179 178 426 441
f 457 455 180 210
f 181 219 220 433
f 181 433 362 182
f 183 181 182 425
f 182 361 440 425
f 183 216 217 218
f 183 218 219 181
f 183 425 426 216
f 185 186 184 405
f 184 189 323 407
f 185 335 334 409
f 396 335 185 405
f 397 186 185 409
f 188 187 186 397
f 189 184 186 187
f 201 190 187 188
f 202 201 188 228
f 189 187 190 428
f 189 428 324 323
f 191 428 190 192
f 191 192 193 194
f 191 207 324 428
f 201 193 192 190
f 208 194 193 206
f 207 191 194 205
f 197 195 196 420
f 196 195 221 246
f 222 195 197 383
f 197 420 359 384
f 199 200 198 463
f 223 222 198 421
f 383 463 198 222
f 199 325 231 200
f 323 325 199 407
f 200 231 233 466
f 421 198 200 466
f 201 202 206 193
f 236 206 202 227
f 204 205 203 232
f 203 237 234 232
f 203 208 235 237
f 204 232 231 325
f 323 324 204 325
f 205 194 208 203
f 324 207 205 204
f 208 206 236 235
f 210 211 209 457
f 209 211 259 260
f 209 260 261 263
f 209 263 456 457
f 210 212 213 211
f 211 213 258 259
f 212 179 441 214
f 214 215 213 212
f 251 215 214 424
f 214 441 440 424
f 249 250 215 251
f 258 213 215 250
f 263 217 216 456
f 256 255 218 217
f 255 254 219 218
f 219 254 268 220
f 270 389 220 268
f 220 389 434 433
f 221 195 222 223
f 238 367 223 421
f 223 367 431 221
f 224 225 226 230
f 409 225 224 397
f 226 225 248 410
f 228 229 227 202
f 228 224 230 229
f 397 224 228 188
f 229 242 236 227
f 242 229 230 452
f 467 452 230 226
f 233 231 232 234
f 233 234 241 466
f 239 241 234 237
f 239 237 235 446
f 235 236 242 446
f 239 240 238 241
f 469 367 238 240
f 466 241 238 421
f 414 240 239 446
f 240 414 404 469
f 270 244 243 389
f 327 326 243 245
f 434 389 243 326
f 245 243 244 247
f 269 275 244 270
f 245 247 248 334
f 272 416 246 449
f 246 416 381 196
f 431 449 246 221
f 247 244 275 411
f 247 411 410 248
f 248 225 409 334
f 252 253 249 251
f 249 253 284 277
f 250 249 277 279
f 395 252 251 424
f 322 257 252 395
f 253 252 257 382
f 253 382 274 284
f 254 255 280 398
f 267 280 255 256
f 263 261 256 217
f 256 261 266 267
f 279 264 258 250
f 259 258 264 265
f 265 262 260 259
f 261 260 262 266
f 262 265 282 283
f 265 264 281 282
f 266 262 283 286
f 267 266 286 299
f 269 270 268 271
f 268 254 398 271
f 288 276 269 271
f 287 288 271 398
f 272 274 382 416
f 274 272 273 297
f 273 272 449 314
f 274 297 285 284
f 275 269 276 459
f 310 411 275 459
f 276 288 403 464
f 278 279 277 303
f 277 284 285 303
f 302 304 278 303
f 279 278 281 264
f 280 295 287 398
f 299 295 280 267
f 281 278 304 305
f 281 305 399 282
f 399 427 283 282
f 300 301 285 297
f 427 298 286 283
f 288 287 307 403
f 340 392 289 372
f 373 372 289 291
f 291 289 290 315
f 290 318 316 315
f 290 289 392 393
f 291 294 417 373
f 294 292 293 418
f 294 291 315 292
f 295 299 306 448
f 307 287 295 448
f 297 273 296 300
f 296 273 314 451
f 299 286 298 306
f 301 302 303 285
f 447 304 302 453
f 390 391 307 448
f 308 309 310 459
f 309 356 412 310
f 410 411 310 412
f 449 431 311 314
f 311 313 451 314
f 313 311 469 328
f 332 331 312 404
f 431 367 469 311
f 315 316 317 292
f 319 320 321 322
f 362 360 320 319
f 321 320 359 420
f 361 319 322 395
f 322 321 381 257
f 360 434 326 358
f 334 335 327 245
f 358 326 327 413
f 329 313 328 439
f 331 347 348 312
f 419 347 331 417
f 332 404 467 341
f 417 331 332 373
f 413 327 335 396
f 337 338 336 12
f 357 10 338 337
f 341 342 340 372
f 341 372 373 332
f 342 341 467 443
f 344 104 345 445
f 345 78 444 445
f 346 61 378 468
f 351 349 350 366
f 356 355 352 412
f 352 226 410 412
f 467 404 414 452
f 360 358 359 320
f 413 384 359 358
f 362 319 361 182
f 362 433 434 360
f 364 365 363 124
f 454 125 363 437
f 365 402 437 363
f 376 375 366 116
f 369 370 368 142
f 370 369 462 408
f 462 375 376 408
f 382 257 381 416
f 420 196 381 321
f 384 385 383 197
f 383 385 406 463
f 413 396 385 384
f 388 386 387 458
f 440 361 395 424
f 396 405 406 385
f 405 184 407 406
f 463 406 407 199
f 418 419 417 294
f 425 440 441 426
f 446 242 452 414
f 464 308 459 276
f 467 226 352 443
f 468 77 117 438
f 469 404 312 328
f 470 119 353 80
