v -15.7191 18.0919 7.6799
v -16.3772 28.6602 25.8397
v 3.09498 25.1005 7.67985
v 6.32464 1.1945 7.6799
v -12.8168 -1.68671 7.6799
v 24.8133 2.10419 7.81743
v 43.7497 9.17952 9.20035
v 41.745 32.6652 8.94788
v 58.6579 31.2793 12.2097
v 64.9464 13.4313 13.161
v 65.344 -4.99705 23.9516
v -59.4419 16.3438 9.14609
v -56.5263 -8.09106 7.19065
v -53.8653 -10.9376 30.2657
v -59.9765 20.6694 33.8919
v -37.6474 19.5309 7.70664
v -36.0713 25.4421 30.9202
v -34.0307 -5.37388 7.68422
v -29.1407 -9.57706 27.8899
v -8.08374 -8.56006 31.3691
v 0.709046 30.4357 30.8367
v 10.9293 -7.92557 31.3927
v 21.2121 30.5547 7.71869
v 14.5283 33.2717 30.7557
v 25.8324 -8.97393 25.1849
v 37.968 35.4929 26.9885
v 45.6053 -10.6787 21.2059
v 54.7229 32.6383 25.7429
v 62.938 21.2117 34.4155
v 39.4905 20.7692 38.9984
v 57.7801 4.2624 37.9709
v 37.0994 1.71576 40.7348
v 23.5796 -6.12574 43.6483
v -29.7595 -6.69881 52.0989
v -43.9424 18.7792 58.6092
v -27.2317 24.0019 48.6597
v -2.45949 1.50496 57.2513
v 10.3088 -5.67147 46.6875
v 1.55888 28.0786 47.1501
v -2.11164 23.9624 35.9127
v -12.702 18.7558 55.6342
v -20.3784 -4.67434 42.5018
v -0.366486 17.8684 48.3336
v 0.626178 7.57225 56.9726
v -8.13899 9.98884 62.6459
v -6.95179 14.0359 53.2279
v -9.56983 1.66589 49.0806
v -9.64281 7.37891 50.0604
v -10.828 18.1315 49.3144
v -3.34239 19.1205 49.3389
v -16.7244 19.3979 43.7693
v -24.2328 12.6294 38.3631
v -7.33904 1.5703 49.4829
v -3.80207 2.44918 45.6618
v 1.15524 4.56983 50.4898
v -7.95992 10.4359 49.2838
v -6.20264 7.1683 52.0234
v -5.69388 1.19099 44.7847
v -38.2291 -42.6491 7.68764
v -59.4 -18.4426 8.60762
v -36.588 -15.2805 5.33757
v 5.36415 -38.7208 7.67981
v -14.8494 -17.9233 5.95749
v 5.27309 -16.665 6.20169
v 24.8458 -12.5412 5.43709
v 25.7264 -37.1624 7.83224
v 26.431 -59.8255 13.7858
v 45.8786 -36.0126 9.46862
v 49.3065 -55.6408 13.0533
v 69.6592 -44.8735 19.5107
v -58.4394 -42.7576 31.0605
v -60.2838 -15.0944 31.2449
v -60.2181 -41.5134 8.66686
v -36.2705 -11.4967 27.9535
v -12.2261 -50.2505 27.7249
v -33.3807 -47.3942 28.3924
v -15.8285 -42.82 7.6799
v -14.0588 -11.838 28.7149
v 2.72822 -56.8653 25.9512
v 5.45012 -12.3809 29.9858
v 21.6682 -13.933 31.8235
v 48.4907 -48.5902 32.0232
v 45.4553 -11.0305 26.2696
v 46.1273 -13.4102 9.57348
v 63.3746 -43.6367 33.7795
v 68.0646 -17.9066 22.1363
v 61.808 -19.5406 8.11819
v 59.7201 -34.2327 10.2655
v 63.0269 -27.9059 37.7435
v 46.4096 -28.6455 38.6084
v 28.3243 -48.6618 37.0669
v 6.19527 -21.1351 40.814
v -58.9104 -22.8254 53.4435
v 10.3315 -45.6993 41.9505
v -11.1665 -48.3879 44.3352
v -11.3488 -22.8919 50.1075
v 0.994631 -18.5763 44.3084
v -25.1486 -39.2848 45.0739
v -45.5051 -36.4457 48.9861
v -31.6103 -18.8185 45.253
v 9.89821 -36.6458 55.425
v -0.162022 -39.9554 49.3804
v -5.75899 -35.8973 65.5151
v -0.723571 -32.3032 47.8088
v 2.77185 -31.4976 53.4801
v -3.70186 -38.0404 49.4708
v -5.93125 -22.4454 38.1167
v -23.1899 -36.9695 33.1232
v -42.9938 -39.2627 31.4842
v -22.936 -20.4867 29.969
v -13.6984 -25.6037 39.1289
v -48.7853 -20.6955 27.9886
v -6.72038 -26.9233 54.9921
v -10.5263 -34.5627 48.7368
v 8.85652 1.5438 48.1231
v 6.91429 -28.6927 46.3026
v -3.66088 -39.3389 36.7226
v 11.822 4.87075 43.0136
v -5.77402 16.032 44.7359
v -4.82947 -25.2301 31.7318
v -5.90554 -34.1719 41.5801
v -3.64252 -43.482 42.1413
v -7.34179 11.3825 43.0439
v 14.4122 4.60389 52.4554
v 25.7071 -28.4944 50.5387
v -17.2002 -7.31375 36.1971
v 17.3732 20.6351 44.6284
f 1 5 18 16
f 3 1 2 21
f 16 17 2 1
f 36 41 2 17
f 39 21 2 41
f 3 4 5 1
f 6 4 3 23
f 4 6 25 22
f 5 4 22 20
f 6 23 8 7
f 27 25 6 7
f 7 8 9 10
f 7 10 11 27
f 8 23 24 26
f 9 8 26 28
f 10 9 28 29
f 11 10 29 31
f 12 13 14 15
f 16 18 13 12
f 13 18 19 14
f 16 12 15 17
f 34 35 15 14
f 17 15 35 36
f 18 5 20 19
f 34 14 19 42
f 37 42 19 20
f 23 3 21 24
f 40 24 21 39
f 22 25 33 38
f 22 38 37 20
f 30 26 24 127
f 32 33 25 27
f 27 11 31 32
f 28 26 30 29
f 30 32 31 29
f 124 32 30 127
f 124 44 47 53
f 115 38 33 118
f 35 34 126 52
f 36 35 52 51
f 39 41 49 50
f 127 43 44 124
f 50 119 40 39
f 41 36 51 49
f 42 54 53 34
f 42 37 55 54
f 45 44 43 46
f 45 48 47 44
f 56 57 45 46
f 58 48 45 57
f 60 61 59 73
f 75 76 59 77
f 71 72 60 73
f 72 74 61 60
f 61 63 77 59
f 63 64 62 77
f 62 64 65 66
f 62 66 67 79
f 74 78 63 61
f 78 80 64 63
f 65 84 68 66
f 80 81 65 64
f 68 69 67 66
f 67 69 82 91
f 94 79 67 91
f 70 69 68 88
f 68 84 87 88
f 85 82 69 70
f 89 85 70 86
f 93 72 71 99
f 73 59 76 71
f 74 72 93 100
f 98 76 75 95
f 76 98 99 71
f 79 75 77 62
f 78 96 97 80
f 78 74 100 96
f 79 122 95 75
f 80 97 92 81
f 81 83 84 65
f 83 86 87 84
f 89 86 83 90
f 125 90 83 81
f 85 89 90 82
f 88 87 86 70
f 91 82 90 125
f 91 125 101 94
f 125 116 105 101
f 107 120 92 97
f 109 112 93 99
f 117 95 122 106
f 107 97 96 111
f 110 111 96 100
f 108 109 99 98
f 112 110 100 93
f 101 103 102 94
f 104 102 103 113
f 105 106 103 101
f 103 106 114 113
f 121 104 113 114
f 38 115 55 37
f 55 115 118 54
f 54 118 124 53
f 126 58 123 52
f 51 119 50 49
f 119 123 43 40
f 43 123 56 46
f 56 123 58 57
f 58 126 47 48
f 95 117 108 98
f 108 110 112 109
f 110 120 107 111
f 120 117 116 92
f 116 117 106 105
f 106 122 121 114
f 121 122 102 104
f 117 120 110 108
f 122 79 94 102
f 123 119 51 52
f 124 118 33 32
f 125 81 92 116
f 126 34 53 47
f 127 24 40 43
