# FiberScope original procedural demonstration asset; CC0-1.0
v -1.5000000 -1.5000000 0.0000000
v -1.3125000 -1.5000000 0.0000000
v -1.3125000 -1.3500000 0.0165924
v -1.5000000 -1.3500000 0.0234652
v -1.1250000 -1.5000000 0.0000000
v -1.1250000 -1.3500000 0.0000000
v -0.9375000 -1.5000000 -0.0000000
v -0.9375000 -1.3500000 -0.0165924
v -0.7500000 -1.5000000 -0.0000000
v -0.7500000 -1.3500000 -0.0234652
v -0.5625000 -1.5000000 -0.0000000
v -0.5625000 -1.3500000 -0.0165924
v -0.3750000 -1.5000000 -0.0000000
v -0.3750000 -1.3500000 -0.0000000
v -0.1875000 -1.5000000 0.0000000
v -0.1875000 -1.3500000 0.0165924
v 0.0000000 -1.5000000 0.0000000
v 0.0000000 -1.3500000 0.0234652
v 0.1875000 -1.5000000 0.0000000
v 0.1875000 -1.3500000 0.0165924
v 0.3750000 -1.5000000 0.0000000
v 0.3750000 -1.3500000 0.0000000
v 0.5625000 -1.5000000 -0.0000000
v 0.5625000 -1.3500000 -0.0165924
v 0.7500000 -1.5000000 -0.0000000
v 0.7500000 -1.3500000 -0.0234652
v 0.9375000 -1.5000000 -0.0000000
v 0.9375000 -1.3500000 -0.0165924
v 1.1250000 -1.5000000 -0.0000000
v 1.1250000 -1.3500000 -0.0000000
v 1.3125000 -1.5000000 0.0000000
v 1.3125000 -1.3500000 0.0165924
v 1.5000000 -1.5000000 0.0000000
v 1.5000000 -1.3500000 0.0234652
v -1.3125000 -1.2000000 0.0327762
v -1.5000000 -1.2000000 0.0463525
v -1.1250000 -1.2000000 0.0000000
v -0.9375000 -1.2000000 -0.0327762
v -0.7500000 -1.2000000 -0.0463525
v -0.5625000 -1.2000000 -0.0327762
v -0.3750000 -1.2000000 -0.0000000
v -0.1875000 -1.2000000 0.0327762
v 0.0000000 -1.2000000 0.0463525
v 0.1875000 -1.2000000 0.0327762
v 0.3750000 -1.2000000 0.0000000
v 0.5625000 -1.2000000 -0.0327762
v 0.7500000 -1.2000000 -0.0463525
v 0.9375000 -1.2000000 -0.0327762
v 1.1250000 -1.2000000 -0.0000000
v 1.3125000 -1.2000000 0.0327762
v 1.5000000 -1.2000000 0.0463525
v -1.3125000 -1.0500000 0.0481530
v -1.5000000 -1.0500000 0.0680986
v -1.1250000 -1.0500000 0.0000000
v -0.9375000 -1.0500000 -0.0481530
v -0.7500000 -1.0500000 -0.0680986
v -0.5625000 -1.0500000 -0.0481530
v -0.3750000 -1.0500000 -0.0000000
v -0.1875000 -1.0500000 0.0481530
v 0.0000000 -1.0500000 0.0680986
v 0.1875000 -1.0500000 0.0481530
v 0.3750000 -1.0500000 0.0000000
v 0.5625000 -1.0500000 -0.0481530
v 0.7500000 -1.0500000 -0.0680986
v 0.9375000 -1.0500000 -0.0481530
v 1.1250000 -1.0500000 -0.0000000
v 1.3125000 -1.0500000 0.0481530
v 1.5000000 -1.0500000 0.0680986
v -1.3125000 -0.9000000 0.0623440
v -1.5000000 -0.9000000 0.0881678
v -1.1250000 -0.9000000 0.0000000
v -0.9375000 -0.9000000 -0.0623440
v -0.7500000 -0.9000000 -0.0881678
v -0.5625000 -0.9000000 -0.0623440
v -0.3750000 -0.9000000 -0.0000000
v -0.1875000 -0.9000000 0.0623440
v 0.0000000 -0.9000000 0.0881678
v 0.1875000 -0.9000000 0.0623440
v 0.3750000 -0.9000000 0.0000000
v 0.5625000 -0.9000000 -0.0623440
v 0.7500000 -0.9000000 -0.0881678
v 0.9375000 -0.9000000 -0.0623440
v 1.1250000 -0.9000000 -0.0000000
v 1.3125000 -0.9000000 0.0623440
v 1.5000000 -0.9000000 0.0881678
v -1.3125000 -0.7500000 0.0750000
v -1.5000000 -0.7500000 0.1060660
v -1.1250000 -0.7500000 0.0000000
v -0.9375000 -0.7500000 -0.0750000
v -0.7500000 -0.7500000 -0.1060660
v -0.5625000 -0.7500000 -0.0750000
v -0.3750000 -0.7500000 -0.0000000
v -0.1875000 -0.7500000 0.0750000
v 0.0000000 -0.7500000 0.1060660
v 0.1875000 -0.7500000 0.0750000
v 0.3750000 -0.7500000 0.0000000
v 0.5625000 -0.7500000 -0.0750000
v 0.7500000 -0.7500000 -0.1060660
v 0.9375000 -0.7500000 -0.0750000
v 1.1250000 -0.7500000 -0.0000000
v 1.3125000 -0.7500000 0.0750000
v 1.5000000 -0.7500000 0.1060660
v -1.3125000 -0.6000000 0.0858092
v -1.5000000 -0.6000000 0.1213525
v -1.1250000 -0.6000000 0.0000000
v -0.9375000 -0.6000000 -0.0858092
v -0.7500000 -0.6000000 -0.1213525
v -0.5625000 -0.6000000 -0.0858092
v -0.3750000 -0.6000000 -0.0000000
v -0.1875000 -0.6000000 0.0858092
v 0.0000000 -0.6000000 0.1213525
v 0.1875000 -0.6000000 0.0858092
v 0.3750000 -0.6000000 0.0000000
v 0.5625000 -0.6000000 -0.0858092
v 0.7500000 -0.6000000 -0.1213525
v 0.9375000 -0.6000000 -0.0858092
v 1.1250000 -0.6000000 -0.0000000
v 1.3125000 -0.6000000 0.0858092
v 1.5000000 -0.6000000 0.1213525
v -1.3125000 -0.4500000 0.0945055
v -1.5000000 -0.4500000 0.1336510
v -1.1250000 -0.4500000 0.0000000
v -0.9375000 -0.4500000 -0.0945055
v -0.7500000 -0.4500000 -0.1336510
v -0.5625000 -0.4500000 -0.0945055
v -0.3750000 -0.4500000 -0.0000000
v -0.1875000 -0.4500000 0.0945055
v 0.0000000 -0.4500000 0.1336510
v 0.1875000 -0.4500000 0.0945055
v 0.3750000 -0.4500000 0.0000000
v 0.5625000 -0.4500000 -0.0945055
v 0.7500000 -0.4500000 -0.1336510
v 0.9375000 -0.4500000 -0.0945055
v 1.1250000 -0.4500000 -0.0000000
v 1.3125000 -0.4500000 0.0945055
v 1.5000000 -0.4500000 0.1336510
v -1.3125000 -0.3000000 0.1008748
v -1.5000000 -0.3000000 0.1426585
v -1.1250000 -0.3000000 0.0000000
v -0.9375000 -0.3000000 -0.1008748
v -0.7500000 -0.3000000 -0.1426585
v -0.5625000 -0.3000000 -0.1008748
v -0.3750000 -0.3000000 -0.0000000
v -0.1875000 -0.3000000 0.1008748
v 0.0000000 -0.3000000 0.1426585
v 0.1875000 -0.3000000 0.1008748
v 0.3750000 -0.3000000 0.0000000
v 0.5625000 -0.3000000 -0.1008748
v 0.7500000 -0.3000000 -0.1426585
v 0.9375000 -0.3000000 -0.1008748
v 1.1250000 -0.3000000 -0.0000000
v 1.3125000 -0.3000000 0.1008748
v 1.5000000 -0.3000000 0.1426585
v -1.3125000 -0.1500000 0.1047602
v -1.5000000 -0.1500000 0.1481533
v -1.1250000 -0.1500000 0.0000000
v -0.9375000 -0.1500000 -0.1047602
v -0.7500000 -0.1500000 -0.1481533
v -0.5625000 -0.1500000 -0.1047602
v -0.3750000 -0.1500000 -0.0000000
v -0.1875000 -0.1500000 0.1047602
v 0.0000000 -0.1500000 0.1481533
v 0.1875000 -0.1500000 0.1047602
v 0.3750000 -0.1500000 0.0000000
v 0.5625000 -0.1500000 -0.1047602
v 0.7500000 -0.1500000 -0.1481533
v 0.9375000 -0.1500000 -0.1047602
v 1.1250000 -0.1500000 -0.0000000
v 1.3125000 -0.1500000 0.1047602
v 1.5000000 -0.1500000 0.1481533
v -1.3125000 0.0000000 0.1060660
v -1.5000000 0.0000000 0.1500000
v -1.1250000 0.0000000 0.0000000
v -0.9375000 0.0000000 -0.1060660
v -0.7500000 0.0000000 -0.1500000
v -0.5625000 0.0000000 -0.1060660
v -0.3750000 0.0000000 -0.0000000
v -0.1875000 0.0000000 0.1060660
v 0.0000000 0.0000000 0.1500000
v 0.1875000 0.0000000 0.1060660
v 0.3750000 0.0000000 0.0000000
v 0.5625000 0.0000000 -0.1060660
v 0.7500000 0.0000000 -0.1500000
v 0.9375000 0.0000000 -0.1060660
v 1.1250000 0.0000000 -0.0000000
v 1.3125000 0.0000000 0.1060660
v 1.5000000 0.0000000 0.1500000
v -1.3125000 0.1500000 0.1047602
v -1.5000000 0.1500000 0.1481533
v -1.1250000 0.1500000 0.0000000
v -0.9375000 0.1500000 -0.1047602
v -0.7500000 0.1500000 -0.1481533
v -0.5625000 0.1500000 -0.1047602
v -0.3750000 0.1500000 -0.0000000
v -0.1875000 0.1500000 0.1047602
v 0.0000000 0.1500000 0.1481533
v 0.1875000 0.1500000 0.1047602
v 0.3750000 0.1500000 0.0000000
v 0.5625000 0.1500000 -0.1047602
v 0.7500000 0.1500000 -0.1481533
v 0.9375000 0.1500000 -0.1047602
v 1.1250000 0.1500000 -0.0000000
v 1.3125000 0.1500000 0.1047602
v 1.5000000 0.1500000 0.1481533
v -1.3125000 0.3000000 0.1008748
v -1.5000000 0.3000000 0.1426585
v -1.1250000 0.3000000 0.0000000
v -0.9375000 0.3000000 -0.1008748
v -0.7500000 0.3000000 -0.1426585
v -0.5625000 0.3000000 -0.1008748
v -0.3750000 0.3000000 -0.0000000
v -0.1875000 0.3000000 0.1008748
v 0.0000000 0.3000000 0.1426585
v 0.1875000 0.3000000 0.1008748
v 0.3750000 0.3000000 0.0000000
v 0.5625000 0.3000000 -0.1008748
v 0.7500000 0.3000000 -0.1426585
v 0.9375000 0.3000000 -0.1008748
v 1.1250000 0.3000000 -0.0000000
v 1.3125000 0.3000000 0.1008748
v 1.5000000 0.3000000 0.1426585
v -1.3125000 0.4500000 0.0945055
v -1.5000000 0.4500000 0.1336510
v -1.1250000 0.4500000 0.0000000
v -0.9375000 0.4500000 -0.0945055
v -0.7500000 0.4500000 -0.1336510
v -0.5625000 0.4500000 -0.0945055
v -0.3750000 0.4500000 -0.0000000
v -0.1875000 0.4500000 0.0945055
v 0.0000000 0.4500000 0.1336510
v 0.1875000 0.4500000 0.0945055
v 0.3750000 0.4500000 0.0000000
v 0.5625000 0.4500000 -0.0945055
v 0.7500000 0.4500000 -0.1336510
v 0.9375000 0.4500000 -0.0945055
v 1.1250000 0.4500000 -0.0000000
v 1.3125000 0.4500000 0.0945055
v 1.5000000 0.4500000 0.1336510
v -1.3125000 0.6000000 0.0858092
v -1.5000000 0.6000000 0.1213525
v -1.1250000 0.6000000 0.0000000
v -0.9375000 0.6000000 -0.0858092
v -0.7500000 0.6000000 -0.1213525
v -0.5625000 0.6000000 -0.0858092
v -0.3750000 0.6000000 -0.0000000
v -0.1875000 0.6000000 0.0858092
v 0.0000000 0.6000000 0.1213525
v 0.1875000 0.6000000 0.0858092
v 0.3750000 0.6000000 0.0000000
v 0.5625000 0.6000000 -0.0858092
v 0.7500000 0.6000000 -0.1213525
v 0.9375000 0.6000000 -0.0858092
v 1.1250000 0.6000000 -0.0000000
v 1.3125000 0.6000000 0.0858092
v 1.5000000 0.6000000 0.1213525
v -0.7500000 0.7500000 -0.1060660
v -0.9375000 0.7500000 -0.0750000
v -0.5625000 0.7500000 -0.0750000
v -0.3750000 0.7500000 -0.0000000
v -0.1875000 0.7500000 0.0750000
v 0.0000000 0.7500000 0.1060660
v 0.1875000 0.7500000 0.0750000
v 0.3750000 0.7500000 0.0000000
v 0.5625000 0.7500000 -0.0750000
v 0.7500000 0.7500000 -0.1060660
v 0.9375000 0.7500000 -0.0750000
v -0.7500000 0.9000000 -0.0881678
v -0.9375000 0.9000000 -0.0623440
v -0.5625000 0.9000000 -0.0623440
v -0.3750000 0.9000000 -0.0000000
v -0.1875000 0.9000000 0.0623440
v 0.0000000 0.9000000 0.0881678
v 0.1875000 0.9000000 0.0623440
v 0.3750000 0.9000000 0.0000000
v 0.5625000 0.9000000 -0.0623440
v 0.7500000 0.9000000 -0.0881678
v 0.9375000 0.9000000 -0.0623440
v -0.7500000 1.0500000 -0.0680986
v -0.9375000 1.0500000 -0.0481530
v -0.5625000 1.0500000 -0.0481530
v -0.3750000 1.0500000 -0.0000000
v -0.1875000 1.0500000 0.0481530
v 0.0000000 1.0500000 0.0680986
v 0.1875000 1.0500000 0.0481530
v 0.3750000 1.0500000 0.0000000
v 0.5625000 1.0500000 -0.0481530
v 0.7500000 1.0500000 -0.0680986
v 0.9375000 1.0500000 -0.0481530
v -0.7500000 1.2000000 -0.0463525
v -0.9375000 1.2000000 -0.0327762
v -0.5625000 1.2000000 -0.0327762
v -0.3750000 1.2000000 -0.0000000
v 0.5625000 1.2000000 -0.0327762
v 0.3750000 1.2000000 0.0000000
v 0.7500000 1.2000000 -0.0463525
v 0.9375000 1.2000000 -0.0327762
v -0.7500000 1.3500000 -0.0234652
v -0.9375000 1.3500000 -0.0165924
v -0.5625000 1.3500000 -0.0165924
v -0.3750000 1.3500000 -0.0000000
v 0.5625000 1.3500000 -0.0165924
v 0.3750000 1.3500000 0.0000000
v 0.7500000 1.3500000 -0.0234652
v 0.9375000 1.3500000 -0.0165924
v -0.7500000 1.5000000 -0.0000000
v -0.9375000 1.5000000 -0.0000000
v -0.5625000 1.5000000 -0.0000000
v -0.3750000 1.5000000 -0.0000000
v 0.5625000 1.5000000 -0.0000000
v 0.3750000 1.5000000 0.0000000
v 0.7500000 1.5000000 -0.0000000
v 0.9375000 1.5000000 -0.0000000
f 1 2 3 4
f 2 5 6 3
f 5 7 8 6
f 7 9 10 8
f 9 11 12 10
f 11 13 14 12
f 13 15 16 14
f 15 17 18 16
f 17 19 20 18
f 19 21 22 20
f 21 23 24 22
f 23 25 26 24
f 25 27 28 26
f 27 29 30 28
f 29 31 32 30
f 31 33 34 32
f 4 3 35 36
f 3 6 37 35
f 6 8 38 37
f 8 10 39 38
f 10 12 40 39
f 12 14 41 40
f 14 16 42 41
f 16 18 43 42
f 18 20 44 43
f 20 22 45 44
f 22 24 46 45
f 24 26 47 46
f 26 28 48 47
f 28 30 49 48
f 30 32 50 49
f 32 34 51 50
f 36 35 52 53
f 35 37 54 52
f 37 38 55 54
f 38 39 56 55
f 39 40 57 56
f 40 41 58 57
f 41 42 59 58
f 42 43 60 59
f 43 44 61 60
f 44 45 62 61
f 45 46 63 62
f 46 47 64 63
f 47 48 65 64
f 48 49 66 65
f 49 50 67 66
f 50 51 68 67
f 53 52 69 70
f 52 54 71 69
f 54 55 72 71
f 55 56 73 72
f 56 57 74 73
f 57 58 75 74
f 58 59 76 75
f 59 60 77 76
f 60 61 78 77
f 61 62 79 78
f 62 63 80 79
f 63 64 81 80
f 64 65 82 81
f 65 66 83 82
f 66 67 84 83
f 67 68 85 84
f 70 69 86 87
f 69 71 88 86
f 71 72 89 88
f 72 73 90 89
f 73 74 91 90
f 74 75 92 91
f 75 76 93 92
f 76 77 94 93
f 77 78 95 94
f 78 79 96 95
f 79 80 97 96
f 80 81 98 97
f 81 82 99 98
f 82 83 100 99
f 83 84 101 100
f 84 85 102 101
f 87 86 103 104
f 86 88 105 103
f 88 89 106 105
f 89 90 107 106
f 90 91 108 107
f 91 92 109 108
f 92 93 110 109
f 93 94 111 110
f 94 95 112 111
f 95 96 113 112
f 96 97 114 113
f 97 98 115 114
f 98 99 116 115
f 99 100 117 116
f 100 101 118 117
f 101 102 119 118
f 104 103 120 121
f 103 105 122 120
f 105 106 123 122
f 106 107 124 123
f 107 108 125 124
f 108 109 126 125
f 109 110 127 126
f 110 111 128 127
f 111 112 129 128
f 112 113 130 129
f 113 114 131 130
f 114 115 132 131
f 115 116 133 132
f 116 117 134 133
f 117 118 135 134
f 118 119 136 135
f 121 120 137 138
f 120 122 139 137
f 122 123 140 139
f 123 124 141 140
f 124 125 142 141
f 125 126 143 142
f 126 127 144 143
f 127 128 145 144
f 128 129 146 145
f 129 130 147 146
f 130 131 148 147
f 131 132 149 148
f 132 133 150 149
f 133 134 151 150
f 134 135 152 151
f 135 136 153 152
f 138 137 154 155
f 137 139 156 154
f 139 140 157 156
f 140 141 158 157
f 141 142 159 158
f 142 143 160 159
f 143 144 161 160
f 144 145 162 161
f 145 146 163 162
f 146 147 164 163
f 147 148 165 164
f 148 149 166 165
f 149 150 167 166
f 150 151 168 167
f 151 152 169 168
f 152 153 170 169
f 155 154 171 172
f 154 156 173 171
f 156 157 174 173
f 157 158 175 174
f 158 159 176 175
f 159 160 177 176
f 160 161 178 177
f 161 162 179 178
f 162 163 180 179
f 163 164 181 180
f 164 165 182 181
f 165 166 183 182
f 166 167 184 183
f 167 168 185 184
f 168 169 186 185
f 169 170 187 186
f 172 171 188 189
f 171 173 190 188
f 173 174 191 190
f 174 175 192 191
f 175 176 193 192
f 176 177 194 193
f 177 178 195 194
f 178 179 196 195
f 179 180 197 196
f 180 181 198 197
f 181 182 199 198
f 182 183 200 199
f 183 184 201 200
f 184 185 202 201
f 185 186 203 202
f 186 187 204 203
f 189 188 205 206
f 188 190 207 205
f 190 191 208 207
f 191 192 209 208
f 192 193 210 209
f 193 194 211 210
f 194 195 212 211
f 195 196 213 212
f 196 197 214 213
f 197 198 215 214
f 198 199 216 215
f 199 200 217 216
f 200 201 218 217
f 201 202 219 218
f 202 203 220 219
f 203 204 221 220
f 206 205 222 223
f 205 207 224 222
f 207 208 225 224
f 208 209 226 225
f 209 210 227 226
f 210 211 228 227
f 211 212 229 228
f 212 213 230 229
f 213 214 231 230
f 214 215 232 231
f 215 216 233 232
f 216 217 234 233
f 217 218 235 234
f 218 219 236 235
f 219 220 237 236
f 220 221 238 237
f 223 222 239 240
f 222 224 241 239
f 224 225 242 241
f 225 226 243 242
f 226 227 244 243
f 227 228 245 244
f 228 229 246 245
f 229 230 247 246
f 230 231 248 247
f 231 232 249 248
f 232 233 250 249
f 233 234 251 250
f 234 235 252 251
f 235 236 253 252
f 236 237 254 253
f 237 238 255 254
f 242 243 256 257
f 243 244 258 256
f 244 245 259 258
f 245 246 260 259
f 246 247 261 260
f 247 248 262 261
f 248 249 263 262
f 249 250 264 263
f 250 251 265 264
f 251 252 266 265
f 257 256 267 268
f 256 258 269 267
f 258 259 270 269
f 259 260 271 270
f 260 261 272 271
f 261 262 273 272
f 262 263 274 273
f 263 264 275 274
f 264 265 276 275
f 265 266 277 276
f 268 267 278 279
f 267 269 280 278
f 269 270 281 280
f 270 271 282 281
f 271 272 283 282
f 272 273 284 283
f 273 274 285 284
f 274 275 286 285
f 275 276 287 286
f 276 277 288 287
f 279 278 289 290
f 278 280 291 289
f 280 281 292 291
f 285 286 293 294
f 286 287 295 293
f 287 288 296 295
f 290 289 297 298
f 289 291 299 297
f 291 292 300 299
f 294 293 301 302
f 293 295 303 301
f 295 296 304 303
f 298 297 305 306
f 297 299 307 305
f 299 300 308 307
f 302 301 309 310
f 301 303 311 309
f 303 304 312 311
