# FiberScope original procedural demonstration asset; CC0-1.0
v -0.7500000 -1.5000000 -0.0000000
v -0.6000000 -1.5000000 -0.0000000
v -0.6000000 -1.3500000 -0.0189837
v -0.7500000 -1.3500000 -0.0234652
v -0.4500000 -1.5000000 -0.0000000
v -0.4500000 -1.3500000 -0.0072511
v -0.3000000 -1.5000000 0.0000000
v -0.3000000 -1.3500000 0.0072511
v -0.1500000 -1.5000000 0.0000000
v -0.1500000 -1.3500000 0.0189837
v 0.0000000 -1.5000000 0.0000000
v 0.0000000 -1.3500000 0.0234652
v 0.1500000 -1.5000000 0.0000000
v 0.1500000 -1.3500000 0.0189837
v 0.3000000 -1.5000000 0.0000000
v 0.3000000 -1.3500000 0.0072511
v 0.4500000 -1.5000000 -0.0000000
v 0.4500000 -1.3500000 -0.0072511
v 0.6000000 -1.5000000 -0.0000000
v 0.6000000 -1.3500000 -0.0189837
v 0.7500000 -1.5000000 -0.0000000
v 0.7500000 -1.3500000 -0.0234652
v -0.6000000 -1.2000000 -0.0375000
v -0.7500000 -1.2000000 -0.0463525
v -0.4500000 -1.2000000 -0.0143237
v -0.3000000 -1.2000000 0.0143237
v -0.1500000 -1.2000000 0.0375000
v 0.0000000 -1.2000000 0.0463525
v 0.1500000 -1.2000000 0.0375000
v 0.3000000 -1.2000000 0.0143237
v 0.4500000 -1.2000000 -0.0143237
v 0.6000000 -1.2000000 -0.0375000
v 0.7500000 -1.2000000 -0.0463525
v -0.6000000 -1.0500000 -0.0550929
v -0.7500000 -1.0500000 -0.0680986
v -0.4500000 -1.0500000 -0.0210436
v -0.3000000 -1.0500000 0.0210436
v -0.1500000 -1.0500000 0.0550929
v 0.0000000 -1.0500000 0.0680986
v 0.1500000 -1.0500000 0.0550929
v 0.3000000 -1.0500000 0.0210436
v 0.4500000 -1.0500000 -0.0210436
v 0.6000000 -1.0500000 -0.0550929
v 0.7500000 -1.0500000 -0.0680986
v -0.6000000 -0.9000000 -0.0713292
v -0.7500000 -0.9000000 -0.0881678
v -0.4500000 -0.9000000 -0.0272453
v -0.3000000 -0.9000000 0.0272453
v -0.1500000 -0.9000000 0.0713292
v 0.0000000 -0.9000000 0.0881678
v 0.1500000 -0.9000000 0.0713292
v 0.3000000 -0.9000000 0.0272453
v 0.4500000 -0.9000000 -0.0272453
v 0.6000000 -0.9000000 -0.0713292
v 0.7500000 -0.9000000 -0.0881678
v -0.6000000 -0.7500000 -0.0858092
v -0.7500000 -0.7500000 -0.1060660
v -0.4500000 -0.7500000 -0.0327762
v -0.3000000 -0.7500000 0.0327762
v -0.1500000 -0.7500000 0.0858092
v 0.0000000 -0.7500000 0.1060660
v 0.1500000 -0.7500000 0.0858092
v 0.3000000 -0.7500000 0.0327762
v 0.4500000 -0.7500000 -0.0327762
v 0.6000000 -0.7500000 -0.0858092
v 0.7500000 -0.7500000 -0.1060660
v -0.6000000 -0.6000000 -0.0981763
v -0.7500000 -0.6000000 -0.1213525
v -0.4500000 -0.6000000 -0.0375000
v -0.3000000 -0.6000000 0.0375000
v -0.1500000 -0.6000000 0.0981763
v 0.0000000 -0.6000000 0.1213525
v 0.1500000 -0.6000000 0.0981763
v 0.3000000 -0.6000000 0.0375000
v 0.4500000 -0.6000000 -0.0375000
v 0.6000000 -0.6000000 -0.0981763
v 0.7500000 -0.6000000 -0.1213525
v -0.6000000 -0.4500000 -0.1081259
v -0.7500000 -0.4500000 -0.1336510
v -0.4500000 -0.4500000 -0.0413004
v -0.3000000 -0.4500000 0.0413004
v -0.1500000 -0.4500000 0.1081259
v 0.0000000 -0.4500000 0.1336510
v 0.1500000 -0.4500000 0.1081259
v 0.3000000 -0.4500000 0.0413004
v 0.4500000 -0.4500000 -0.0413004
v 0.6000000 -0.4500000 -0.1081259
v 0.7500000 -0.4500000 -0.1336510
v -0.6000000 -0.3000000 -0.1154131
v -0.7500000 -0.3000000 -0.1426585
v -0.4500000 -0.3000000 -0.0440839
v -0.3000000 -0.3000000 0.0440839
v -0.1500000 -0.3000000 0.1154131
v 0.0000000 -0.3000000 0.1426585
v 0.1500000 -0.3000000 0.1154131
v 0.3000000 -0.3000000 0.0440839
v 0.4500000 -0.3000000 -0.0440839
v 0.6000000 -0.3000000 -0.1154131
v 0.7500000 -0.3000000 -0.1426585
v -0.6000000 -0.1500000 -0.1198585
v -0.7500000 -0.1500000 -0.1481533
v -0.4500000 -0.1500000 -0.0457819
v -0.3000000 -0.1500000 0.0457819
v -0.1500000 -0.1500000 0.1198585
v 0.0000000 -0.1500000 0.1481533
v 0.1500000 -0.1500000 0.1198585
v 0.3000000 -0.1500000 0.0457819
v 0.4500000 -0.1500000 -0.0457819
v 0.6000000 -0.1500000 -0.1198585
v 0.7500000 -0.1500000 -0.1481533
v -0.6000000 0.0000000 -0.1213525
v -0.7500000 0.0000000 -0.1500000
v -0.4500000 0.0000000 -0.0463525
v -0.3000000 0.0000000 0.0463525
v -0.1500000 0.0000000 0.1213525
v 0.0000000 0.0000000 0.1500000
v 0.1500000 0.0000000 0.1213525
v 0.3000000 0.0000000 0.0463525
v 0.4500000 0.0000000 -0.0463525
v 0.6000000 0.0000000 -0.1213525
v 0.7500000 0.0000000 -0.1500000
v -0.6000000 0.1500000 -0.1198585
v -0.7500000 0.1500000 -0.1481533
v -0.4500000 0.1500000 -0.0457819
v -0.3000000 0.1500000 0.0457819
v -0.1500000 0.1500000 0.1198585
v 0.0000000 0.1500000 0.1481533
v 0.1500000 0.1500000 0.1198585
v 0.3000000 0.1500000 0.0457819
v 0.4500000 0.1500000 -0.0457819
v 0.6000000 0.1500000 -0.1198585
v 0.7500000 0.1500000 -0.1481533
v -0.6000000 0.3000000 -0.1154131
v -0.7500000 0.3000000 -0.1426585
v -0.4500000 0.3000000 -0.0440839
v -0.3000000 0.3000000 0.0440839
v -0.1500000 0.3000000 0.1154131
v 0.0000000 0.3000000 0.1426585
v 0.1500000 0.3000000 0.1154131
v 0.3000000 0.3000000 0.0440839
v 0.4500000 0.3000000 -0.0440839
v 0.6000000 0.3000000 -0.1154131
v 0.7500000 0.3000000 -0.1426585
v -1.5000000 0.3000000 0.1426585
v -1.3500000 0.3000000 0.1154131
v -1.3500000 0.4500000 0.1081259
v -1.5000000 0.4500000 0.1336510
v -1.2000000 0.3000000 0.0440839
v -1.2000000 0.4500000 0.0413004
v -1.0500000 0.3000000 -0.0440839
v -1.0500000 0.4500000 -0.0413004
v -0.9000000 0.3000000 -0.1154131
v -0.9000000 0.4500000 -0.1081259
v -0.7500000 0.4500000 -0.1336510
v -0.6000000 0.4500000 -0.1081259
v -0.4500000 0.4500000 -0.0413004
v -0.3000000 0.4500000 0.0413004
v -0.1500000 0.4500000 0.1081259
v 0.0000000 0.4500000 0.1336510
v 0.1500000 0.4500000 0.1081259
v 0.3000000 0.4500000 0.0413004
v 0.4500000 0.4500000 -0.0413004
v 0.6000000 0.4500000 -0.1081259
v 0.7500000 0.4500000 -0.1336510
v 0.9000000 0.3000000 -0.1154131
v 0.9000000 0.4500000 -0.1081259
v 1.0500000 0.3000000 -0.0440839
v 1.0500000 0.4500000 -0.0413004
v 1.2000000 0.3000000 0.0440839
v 1.2000000 0.4500000 0.0413004
v 1.3500000 0.3000000 0.1154131
v 1.3500000 0.4500000 0.1081259
v 1.5000000 0.3000000 0.1426585
v 1.5000000 0.4500000 0.1336510
v -1.3500000 0.6000000 0.0981763
v -1.5000000 0.6000000 0.1213525
v -1.2000000 0.6000000 0.0375000
v -1.0500000 0.6000000 -0.0375000
v -0.9000000 0.6000000 -0.0981763
v -0.7500000 0.6000000 -0.1213525
v -0.6000000 0.6000000 -0.0981763
v -0.4500000 0.6000000 -0.0375000
v -0.3000000 0.6000000 0.0375000
v -0.1500000 0.6000000 0.0981763
v 0.0000000 0.6000000 0.1213525
v 0.1500000 0.6000000 0.0981763
v 0.3000000 0.6000000 0.0375000
v 0.4500000 0.6000000 -0.0375000
v 0.6000000 0.6000000 -0.0981763
v 0.7500000 0.6000000 -0.1213525
v 0.9000000 0.6000000 -0.0981763
v 1.0500000 0.6000000 -0.0375000
v 1.2000000 0.6000000 0.0375000
v 1.3500000 0.6000000 0.0981763
v 1.5000000 0.6000000 0.1213525
v -1.3500000 0.7500000 0.0858092
v -1.5000000 0.7500000 0.1060660
v -1.2000000 0.7500000 0.0327762
v -1.0500000 0.7500000 -0.0327762
v -0.9000000 0.7500000 -0.0858092
v -0.7500000 0.7500000 -0.1060660
v -0.6000000 0.7500000 -0.0858092
v -0.4500000 0.7500000 -0.0327762
v -0.3000000 0.7500000 0.0327762
v -0.1500000 0.7500000 0.0858092
v 0.0000000 0.7500000 0.1060660
v 0.1500000 0.7500000 0.0858092
v 0.3000000 0.7500000 0.0327762
v 0.4500000 0.7500000 -0.0327762
v 0.6000000 0.7500000 -0.0858092
v 0.7500000 0.7500000 -0.1060660
v 0.9000000 0.7500000 -0.0858092
v 1.0500000 0.7500000 -0.0327762
v 1.2000000 0.7500000 0.0327762
v 1.3500000 0.7500000 0.0858092
v 1.5000000 0.7500000 0.1060660
v -1.3500000 0.9000000 0.0713292
v -1.5000000 0.9000000 0.0881678
v -1.2000000 0.9000000 0.0272453
v -1.0500000 0.9000000 -0.0272453
v -0.9000000 0.9000000 -0.0713292
v -0.7500000 0.9000000 -0.0881678
v -0.6000000 0.9000000 -0.0713292
v -0.4500000 0.9000000 -0.0272453
v -0.3000000 0.9000000 0.0272453
v -0.1500000 0.9000000 0.0713292
v 0.0000000 0.9000000 0.0881678
v 0.1500000 0.9000000 0.0713292
v 0.3000000 0.9000000 0.0272453
v 0.4500000 0.9000000 -0.0272453
v 0.6000000 0.9000000 -0.0713292
v 0.7500000 0.9000000 -0.0881678
v 0.9000000 0.9000000 -0.0713292
v 1.0500000 0.9000000 -0.0272453
v 1.2000000 0.9000000 0.0272453
v 1.3500000 0.9000000 0.0713292
v 1.5000000 0.9000000 0.0881678
v -1.3500000 1.0500000 0.0550929
v -1.5000000 1.0500000 0.0680986
v -1.2000000 1.0500000 0.0210436
v -1.0500000 1.0500000 -0.0210436
v -0.9000000 1.0500000 -0.0550929
v -0.7500000 1.0500000 -0.0680986
v -0.6000000 1.0500000 -0.0550929
v -0.4500000 1.0500000 -0.0210436
v -0.3000000 1.0500000 0.0210436
v -0.1500000 1.0500000 0.0550929
v 0.0000000 1.0500000 0.0680986
v 0.1500000 1.0500000 0.0550929
v 0.3000000 1.0500000 0.0210436
v 0.4500000 1.0500000 -0.0210436
v 0.6000000 1.0500000 -0.0550929
v 0.7500000 1.0500000 -0.0680986
v 0.9000000 1.0500000 -0.0550929
v 1.0500000 1.0500000 -0.0210436
v 1.2000000 1.0500000 0.0210436
v 1.3500000 1.0500000 0.0550929
v 1.5000000 1.0500000 0.0680986
v -0.6000000 1.2000000 -0.0375000
v -0.7500000 1.2000000 -0.0463525
v -0.4500000 1.2000000 -0.0143237
v -0.3000000 1.2000000 0.0143237
v -0.1500000 1.2000000 0.0375000
v 0.0000000 1.2000000 0.0463525
v 0.1500000 1.2000000 0.0375000
v 0.3000000 1.2000000 0.0143237
v 0.4500000 1.2000000 -0.0143237
v 0.6000000 1.2000000 -0.0375000
v 0.7500000 1.2000000 -0.0463525
v -0.6000000 1.3500000 -0.0189837
v -0.7500000 1.3500000 -0.0234652
v -0.4500000 1.3500000 -0.0072511
v -0.3000000 1.3500000 0.0072511
v 0.4500000 1.3500000 -0.0072511
v 0.3000000 1.3500000 0.0072511
v 0.6000000 1.3500000 -0.0189837
v 0.7500000 1.3500000 -0.0234652
v -0.6000000 1.5000000 -0.0000000
v -0.7500000 1.5000000 -0.0000000
v -0.4500000 1.5000000 -0.0000000
v -0.3000000 1.5000000 0.0000000
v 0.4500000 1.5000000 -0.0000000
v 0.3000000 1.5000000 0.0000000
v 0.6000000 1.5000000 -0.0000000
v 0.7500000 1.5000000 -0.0000000
f 1 2 3 4
f 2 5 6 3
f 5 7 8 6
f 7 9 10 8
f 9 11 12 10
f 11 13 14 12
f 13 15 16 14
f 15 17 18 16
f 17 19 20 18
f 19 21 22 20
f 4 3 23 24
f 3 6 25 23
f 6 8 26 25
f 8 10 27 26
f 10 12 28 27
f 12 14 29 28
f 14 16 30 29
f 16 18 31 30
f 18 20 32 31
f 20 22 33 32
f 24 23 34 35
f 23 25 36 34
f 25 26 37 36
f 26 27 38 37
f 27 28 39 38
f 28 29 40 39
f 29 30 41 40
f 30 31 42 41
f 31 32 43 42
f 32 33 44 43
f 35 34 45 46
f 34 36 47 45
f 36 37 48 47
f 37 38 49 48
f 38 39 50 49
f 39 40 51 50
f 40 41 52 51
f 41 42 53 52
f 42 43 54 53
f 43 44 55 54
f 46 45 56 57
f 45 47 58 56
f 47 48 59 58
f 48 49 60 59
f 49 50 61 60
f 50 51 62 61
f 51 52 63 62
f 52 53 64 63
f 53 54 65 64
f 54 55 66 65
f 57 56 67 68
f 56 58 69 67
f 58 59 70 69
f 59 60 71 70
f 60 61 72 71
f 61 62 73 72
f 62 63 74 73
f 63 64 75 74
f 64 65 76 75
f 65 66 77 76
f 68 67 78 79
f 67 69 80 78
f 69 70 81 80
f 70 71 82 81
f 71 72 83 82
f 72 73 84 83
f 73 74 85 84
f 74 75 86 85
f 75 76 87 86
f 76 77 88 87
f 79 78 89 90
f 78 80 91 89
f 80 81 92 91
f 81 82 93 92
f 82 83 94 93
f 83 84 95 94
f 84 85 96 95
f 85 86 97 96
f 86 87 98 97
f 87 88 99 98
f 90 89 100 101
f 89 91 102 100
f 91 92 103 102
f 92 93 104 103
f 93 94 105 104
f 94 95 106 105
f 95 96 107 106
f 96 97 108 107
f 97 98 109 108
f 98 99 110 109
f 101 100 111 112
f 100 102 113 111
f 102 103 114 113
f 103 104 115 114
f 104 105 116 115
f 105 106 117 116
f 106 107 118 117
f 107 108 119 118
f 108 109 120 119
f 109 110 121 120
f 112 111 122 123
f 111 113 124 122
f 113 114 125 124
f 114 115 126 125
f 115 116 127 126
f 116 117 128 127
f 117 118 129 128
f 118 119 130 129
f 119 120 131 130
f 120 121 132 131
f 123 122 133 134
f 122 124 135 133
f 124 125 136 135
f 125 126 137 136
f 126 127 138 137
f 127 128 139 138
f 128 129 140 139
f 129 130 141 140
f 130 131 142 141
f 131 132 143 142
f 144 145 146 147
f 145 148 149 146
f 148 150 151 149
f 150 152 153 151
f 152 134 154 153
f 134 133 155 154
f 133 135 156 155
f 135 136 157 156
f 136 137 158 157
f 137 138 159 158
f 138 139 160 159
f 139 140 161 160
f 140 141 162 161
f 141 142 163 162
f 142 143 164 163
f 143 165 166 164
f 165 167 168 166
f 167 169 170 168
f 169 171 172 170
f 171 173 174 172
f 147 146 175 176
f 146 149 177 175
f 149 151 178 177
f 151 153 179 178
f 153 154 180 179
f 154 155 181 180
f 155 156 182 181
f 156 157 183 182
f 157 158 184 183
f 158 159 185 184
f 159 160 186 185
f 160 161 187 186
f 161 162 188 187
f 162 163 189 188
f 163 164 190 189
f 164 166 191 190
f 166 168 192 191
f 168 170 193 192
f 170 172 194 193
f 172 174 195 194
f 176 175 196 197
f 175 177 198 196
f 177 178 199 198
f 178 179 200 199
f 179 180 201 200
f 180 181 202 201
f 181 182 203 202
f 182 183 204 203
f 183 184 205 204
f 184 185 206 205
f 185 186 207 206
f 186 187 208 207
f 187 188 209 208
f 188 189 210 209
f 189 190 211 210
f 190 191 212 211
f 191 192 213 212
f 192 193 214 213
f 193 194 215 214
f 194 195 216 215
f 197 196 217 218
f 196 198 219 217
f 198 199 220 219
f 199 200 221 220
f 200 201 222 221
f 201 202 223 222
f 202 203 224 223
f 203 204 225 224
f 204 205 226 225
f 205 206 227 226
f 206 207 228 227
f 207 208 229 228
f 208 209 230 229
f 209 210 231 230
f 210 211 232 231
f 211 212 233 232
f 212 213 234 233
f 213 214 235 234
f 214 215 236 235
f 215 216 237 236
f 218 217 238 239
f 217 219 240 238
f 219 220 241 240
f 220 221 242 241
f 221 222 243 242
f 222 223 244 243
f 223 224 245 244
f 224 225 246 245
f 225 226 247 246
f 226 227 248 247
f 227 228 249 248
f 228 229 250 249
f 229 230 251 250
f 230 231 252 251
f 231 232 253 252
f 232 233 254 253
f 233 234 255 254
f 234 235 256 255
f 235 236 257 256
f 236 237 258 257
f 243 244 259 260
f 244 245 261 259
f 245 246 262 261
f 246 247 263 262
f 247 248 264 263
f 248 249 265 264
f 249 250 266 265
f 250 251 267 266
f 251 252 268 267
f 252 253 269 268
f 260 259 270 271
f 259 261 272 270
f 261 262 273 272
f 266 267 274 275
f 267 268 276 274
f 268 269 277 276
f 271 270 278 279
f 270 272 280 278
f 272 273 281 280
f 275 274 282 283
f 274 276 284 282
f 276 277 285 284
