v -60 -60 0
v -40 -40 30
v -20 -20 60
v 0 0 90
v -20 -60 0
v 0 -40 30
v 20 -20 60
v 20 -60 0
v 40 -40 30
v 60 -60 0
v 60 -20 0
v 40 0 30
v 20 20 60
v 60 20 0
v 40 40 30
v 60 60 0
v 20 60 0
v 0 40 30
v -20 20 60
v -20 60 0
v -40 40 30
v -60 60 0
v -60 20 0
v -40 0 30
v -60 -20 0
v -40 -53.333333 10
v -40 -60 0
v -30 -50 15
v -50 -50 15
v -20 -46.666667 20
v -10 -50 15
v -20 -40 30
v -20 -33.333333 40
v -10 -30 45
v -30 -30 45
v 0 -26.666667 50
v 10 -30 45
v 0 -20 60
v 0 -13.333333 70
v 10 -10 75
v -10 -10 75
v 0 -53.333333 10
v 0 -60 0
v 10 -50 15
v 20 -46.666667 20
v 30 -50 15
v 20 -40 30
v 20 -33.333333 40
v 30 -30 45
v 40 -53.333333 10
v 40 -60 0
v 50 -50 15
v 53.333333 -40 10
v 60 -40 0
v 50 -30 15
v 46.666667 -20 20
v 50 -10 15
v 40 -20 30
v 33.333333 -20 40
v 30 -10 45
v 26.666667 0 50
v 30 10 45
v 20 0 60
v 13.333333 0 70
v 10 10 75
v 53.333333 0 10
v 60 0 0
v 50 10 15
v 46.666667 20 20
v 50 30 15
v 40 20 30
v 33.333333 20 40
v 30 30 45
v 53.333333 40 10
v 60 40 0
v 50 50 15
v 40 53.333333 10
v 40 60 0
v 30 50 15
v 20 46.666667 20
v 10 50 15
v 20 40 30
v 20 33.333333 40
v 10 30 45
v 0 26.666667 50
v -10 30 45
v 0 20 60
v 0 13.333333 70
v -10 10 75
v 0 53.333333 10
v 0 60 0
v -10 50 15
v -20 46.666667 20
v -30 50 15
v -20 40 30
v -20 33.333333 40
v -30 30 45
v -40 53.333333 10
v -40 60 0
v -50 50 15
v -53.333333 40 10
v -60 40 0
v -50 30 15
v -46.666667 20 20
v -50 10 15
v -40 20 30
v -33.333333 20 40
v -30 10 45
v -26.666667 0 50
v -30 -10 45
v -20 0 60
v -13.333333 0 70
v -53.333333 0 10
v -60 0 0
v -50 -10 15
v -46.666667 -20 20
v -50 -30 15
v -40 -20 30
v -33.333333 -20 40
v -53.333333 -40 10
v -60 -40 0
f 1 27 26 29
f 5 28 26 27
f 2 29 26 28
f 5 31 30 28
f 6 32 30 31
f 2 28 30 32
f 2 32 33 35
f 6 34 33 32
f 3 35 33 34
f 6 37 36 34
f 7 38 36 37
f 3 34 36 38
f 3 38 39 41
f 7 40 39 38
f 4 41 39 40
f 5 43 42 31
f 8 44 42 43
f 6 31 42 44
f 8 46 45 44
f 9 47 45 46
f 6 44 45 47
f 6 47 48 37
f 9 49 48 47
f 7 37 48 49
f 8 51 50 46
f 10 52 50 51
f 9 46 50 52
f 10 54 53 52
f 11 55 53 54
f 9 52 53 55
f 11 57 56 55
f 12 58 56 57
f 9 55 56 58
f 9 58 59 49
f 12 60 59 58
f 7 49 59 60
f 12 62 61 60
f 13 63 61 62
f 7 60 61 63
f 7 63 64 40
f 13 65 64 63
f 4 40 64 65
f 11 67 66 57
f 14 68 66 67
f 12 57 66 68
f 14 70 69 68
f 15 71 69 70
f 12 68 69 71
f 12 71 72 62
f 15 73 72 71
f 13 62 72 73
f 14 75 74 70
f 16 76 74 75
f 15 70 74 76
f 16 78 77 76
f 17 79 77 78
f 15 76 77 79
f 17 81 80 79
f 18 82 80 81
f 15 79 80 82
f 15 82 83 73
f 18 84 83 82
f 13 73 83 84
f 18 86 85 84
f 19 87 85 86
f 13 84 85 87
f 13 87 88 65
f 19 89 88 87
f 4 65 88 89
f 17 91 90 81
f 20 92 90 91
f 18 81 90 92
f 20 94 93 92
f 21 95 93 94
f 18 92 93 95
f 18 95 96 86
f 21 97 96 95
f 19 86 96 97
f 20 99 98 94
f 22 100 98 99
f 21 94 98 100
f 22 102 101 100
f 23 103 101 102
f 21 100 101 103
f 23 105 104 103
f 24 106 104 105
f 21 103 104 106
f 21 106 107 97
f 24 108 107 106
f 19 97 107 108
f 24 110 109 108
f 3 111 109 110
f 19 108 109 111
f 19 111 112 89
f 3 41 112 111
f 4 89 112 41
f 23 114 113 105
f 25 115 113 114
f 24 105 113 115
f 25 117 116 115
f 2 118 116 117
f 24 115 116 118
f 24 118 119 110
f 2 35 119 118
f 3 110 119 35
f 25 121 120 117
f 1 29 120 121
f 2 117 120 29
