# FiberScope original procedural demonstration asset; CC0-1.0
v -0.5000000 -2.0000000 0.0000000
v -0.4000000 -2.0000000 0.0000000
v -0.4000000 -1.8571429 0.0825698
v -0.5000000 -1.8571429 0.0825698
v -0.3000000 -2.0000000 0.0000000
v -0.3000000 -1.8571429 0.0825698
v -0.2000000 -2.0000000 0.0000000
v -0.2000000 -1.8571429 0.0825698
v -0.1000000 -2.0000000 0.0000000
v -0.1000000 -1.8571429 0.0825698
v 0.0000000 -2.0000000 0.0000000
v 0.0000000 -1.8571429 0.0825698
v 0.1000000 -2.0000000 0.0000000
v 0.1000000 -1.8571429 0.0825698
v 0.2000000 -2.0000000 0.0000000
v 0.2000000 -1.8571429 0.0825698
v 0.3000000 -2.0000000 0.0000000
v 0.3000000 -1.8571429 0.0825698
v 0.4000000 -2.0000000 0.0000000
v 0.4000000 -1.8571429 0.0825698
v 0.5000000 -2.0000000 0.0000000
v 0.5000000 -1.8571429 0.0825698
v -0.4000000 -1.7142857 0.1558725
v -0.5000000 -1.7142857 0.1558725
v -0.3000000 -1.7142857 0.1558725
v -0.2000000 -1.7142857 0.1558725
v -0.1000000 -1.7142857 0.1558725
v 0.0000000 -1.7142857 0.1558725
v 0.1000000 -1.7142857 0.1558725
v 0.2000000 -1.7142857 0.1558725
v 0.3000000 -1.7142857 0.1558725
v 0.4000000 -1.7142857 0.1558725
v 0.5000000 -1.7142857 0.1558725
v -0.4000000 -1.5714286 0.2116810
v -0.5000000 -1.5714286 0.2116810
v -0.3000000 -1.5714286 0.2116810
v -0.2000000 -1.5714286 0.2116810
v -0.1000000 -1.5714286 0.2116810
v 0.0000000 -1.5714286 0.2116810
v 0.1000000 -1.5714286 0.2116810
v 0.2000000 -1.5714286 0.2116810
v 0.3000000 -1.5714286 0.2116810
v 0.4000000 -1.5714286 0.2116810
v 0.5000000 -1.5714286 0.2116810
v -0.4000000 -1.4285714 0.2437320
v -0.5000000 -1.4285714 0.2437320
v -0.3000000 -1.4285714 0.2437320
v -0.2000000 -1.4285714 0.2437320
v -0.1000000 -1.4285714 0.2437320
v 0.0000000 -1.4285714 0.2437320
v 0.1000000 -1.4285714 0.2437320
v 0.2000000 -1.4285714 0.2437320
v 0.3000000 -1.4285714 0.2437320
v 0.4000000 -1.4285714 0.2437320
v 0.5000000 -1.4285714 0.2437320
v -0.4000000 -1.2857143 0.2484281
v -0.5000000 -1.2857143 0.2484281
v -0.3000000 -1.2857143 0.2484281
v -0.2000000 -1.2857143 0.2484281
v -0.1000000 -1.2857143 0.2484281
v 0.0000000 -1.2857143 0.2484281
v 0.1000000 -1.2857143 0.2484281
v 0.2000000 -1.2857143 0.2484281
v 0.3000000 -1.2857143 0.2484281
v 0.4000000 -1.2857143 0.2484281
v 0.5000000 -1.2857143 0.2484281
v -0.4000000 -1.1428571 0.2252422
v -0.5000000 -1.1428571 0.2252422
v -0.3000000 -1.1428571 0.2252422
v -0.2000000 -1.1428571 0.2252422
v -0.1000000 -1.1428571 0.2252422
v 0.0000000 -1.1428571 0.2252422
v 0.1000000 -1.1428571 0.2252422
v 0.2000000 -1.1428571 0.2252422
v 0.3000000 -1.1428571 0.2252422
v 0.4000000 -1.1428571 0.2252422
v 0.5000000 -1.1428571 0.2252422
v -0.4000000 -1.0000000 0.1767767
v -0.5000000 -1.0000000 0.1767767
v -0.3000000 -1.0000000 0.1767767
v -0.2000000 -1.0000000 0.1767767
v -0.1000000 -1.0000000 0.1767767
v 0.0000000 -1.0000000 0.1767767
v 0.1000000 -1.0000000 0.1767767
v 0.2000000 -1.0000000 0.1767767
v 0.3000000 -1.0000000 0.1767767
v 0.4000000 -1.0000000 0.1767767
v 0.5000000 -1.0000000 0.1767767
v -0.4000000 -0.8571429 0.1084709
v -0.5000000 -0.8571429 0.1084709
v -0.3000000 -0.8571429 0.1084709
v -0.2000000 -0.8571429 0.1084709
v -0.1000000 -0.8571429 0.1084709
v 0.0000000 -0.8571429 0.1084709
v 0.1000000 -0.8571429 0.1084709
v 0.2000000 -0.8571429 0.1084709
v 0.3000000 -0.8571429 0.1084709
v 0.4000000 -0.8571429 0.1084709
v 0.5000000 -0.8571429 0.1084709
v -0.4000000 -0.7142857 0.0279911
v -0.5000000 -0.7142857 0.0279911
v -0.3000000 -0.7142857 0.0279911
v -0.2000000 -0.7142857 0.0279911
v -0.1000000 -0.7142857 0.0279911
v 0.0000000 -0.7142857 0.0279911
v 0.1000000 -0.7142857 0.0279911
v 0.2000000 -0.7142857 0.0279911
v 0.3000000 -0.7142857 0.0279911
v 0.4000000 -0.7142857 0.0279911
v 0.5000000 -0.7142857 0.0279911
v -0.4000000 -0.5714286 -0.0556302
v -0.5000000 -0.5714286 -0.0556302
v -0.3000000 -0.5714286 -0.0556302
v -0.2000000 -0.5714286 -0.0556302
v -0.1000000 -0.5714286 -0.0556302
v 0.0000000 -0.5714286 -0.0556302
v 0.1000000 -0.5714286 -0.0556302
v 0.2000000 -0.5714286 -0.0556302
v 0.3000000 -0.5714286 -0.0556302
v 0.4000000 -0.5714286 -0.0556302
v 0.5000000 -0.5714286 -0.0556302
v -0.4000000 -0.4285714 -0.1330080
v -0.5000000 -0.4285714 -0.1330080
v -0.3000000 -0.4285714 -0.1330080
v -0.2000000 -0.4285714 -0.1330080
v -0.1000000 -0.4285714 -0.1330080
v 0.0000000 -0.4285714 -0.1330080
v 0.1000000 -0.4285714 -0.1330080
v 0.2000000 -0.4285714 -0.1330080
v 0.3000000 -0.4285714 -0.1330080
v 0.4000000 -0.4285714 -0.1330080
v 0.5000000 -0.4285714 -0.1330080
v -0.4000000 -0.2857143 -0.1954579
v -0.5000000 -0.2857143 -0.1954579
v -0.3000000 -0.2857143 -0.1954579
v -0.2000000 -0.2857143 -0.1954579
v -0.1000000 -0.2857143 -0.1954579
v 0.0000000 -0.2857143 -0.1954579
v 0.1000000 -0.2857143 -0.1954579
v 0.2000000 -0.2857143 -0.1954579
v 0.3000000 -0.2857143 -0.1954579
v 0.4000000 -0.2857143 -0.1954579
v 0.5000000 -0.2857143 -0.1954579
v -0.4000000 -0.1428571 -0.2359708
v -0.5000000 -0.1428571 -0.2359708
v -0.3000000 -0.1428571 -0.2359708
v -0.2000000 -0.1428571 -0.2359708
v -0.1000000 -0.1428571 -0.2359708
v 0.0000000 -0.1428571 -0.2359708
v 0.1000000 -0.1428571 -0.2359708
v 0.2000000 -0.1428571 -0.2359708
v 0.3000000 -0.1428571 -0.2359708
v 0.4000000 -0.1428571 -0.2359708
v 0.5000000 -0.1428571 -0.2359708
v -0.4000000 0.0000000 -0.2500000
v -0.5000000 0.0000000 -0.2500000
v -0.3000000 0.0000000 -0.2500000
v -0.2000000 0.0000000 -0.2500000
v -0.1000000 0.0000000 -0.2500000
v 0.0000000 0.0000000 -0.2500000
v 0.1000000 0.0000000 -0.2500000
v 0.2000000 0.0000000 -0.2500000
v 0.3000000 0.0000000 -0.2500000
v 0.4000000 0.0000000 -0.2500000
v 0.5000000 0.0000000 -0.2500000
v -0.4000000 0.1428571 -0.2359708
v -0.5000000 0.1428571 -0.2359708
v -0.3000000 0.1428571 -0.2359708
v -0.2000000 0.1428571 -0.2359708
v -0.1000000 0.1428571 -0.2359708
v 0.0000000 0.1428571 -0.2359708
v 0.1000000 0.1428571 -0.2359708
v 0.2000000 0.1428571 -0.2359708
v 0.3000000 0.1428571 -0.2359708
v 0.4000000 0.1428571 -0.2359708
v 0.5000000 0.1428571 -0.2359708
v -0.4000000 0.2857143 -0.1954579
v -0.5000000 0.2857143 -0.1954579
v -0.3000000 0.2857143 -0.1954579
v -0.2000000 0.2857143 -0.1954579
v -0.1000000 0.2857143 -0.1954579
v 0.0000000 0.2857143 -0.1954579
v 0.1000000 0.2857143 -0.1954579
v 0.2000000 0.2857143 -0.1954579
v 0.3000000 0.2857143 -0.1954579
v 0.4000000 0.2857143 -0.1954579
v 0.5000000 0.2857143 -0.1954579
v -0.4000000 0.4285714 -0.1330080
v -0.5000000 0.4285714 -0.1330080
v -0.3000000 0.4285714 -0.1330080
v -0.2000000 0.4285714 -0.1330080
v -0.1000000 0.4285714 -0.1330080
v 0.0000000 0.4285714 -0.1330080
v 0.1000000 0.4285714 -0.1330080
v 0.2000000 0.4285714 -0.1330080
v 0.3000000 0.4285714 -0.1330080
v 0.4000000 0.4285714 -0.1330080
v 0.5000000 0.4285714 -0.1330080
v -0.4000000 0.5714286 -0.0556302
v -0.5000000 0.5714286 -0.0556302
v -0.3000000 0.5714286 -0.0556302
v -0.2000000 0.5714286 -0.0556302
v -0.1000000 0.5714286 -0.0556302
v 0.0000000 0.5714286 -0.0556302
v 0.1000000 0.5714286 -0.0556302
v 0.2000000 0.5714286 -0.0556302
v 0.3000000 0.5714286 -0.0556302
v 0.4000000 0.5714286 -0.0556302
v 0.5000000 0.5714286 -0.0556302
v -0.4000000 0.7142857 0.0279911
v -0.5000000 0.7142857 0.0279911
v -0.3000000 0.7142857 0.0279911
v -0.2000000 0.7142857 0.0279911
v -0.1000000 0.7142857 0.0279911
v 0.0000000 0.7142857 0.0279911
v 0.1000000 0.7142857 0.0279911
v 0.2000000 0.7142857 0.0279911
v 0.3000000 0.7142857 0.0279911
v 0.4000000 0.7142857 0.0279911
v 0.5000000 0.7142857 0.0279911
v -0.4000000 0.8571429 0.1084709
v -0.5000000 0.8571429 0.1084709
v -0.3000000 0.8571429 0.1084709
v -0.2000000 0.8571429 0.1084709
v -0.1000000 0.8571429 0.1084709
v 0.0000000 0.8571429 0.1084709
v 0.1000000 0.8571429 0.1084709
v 0.2000000 0.8571429 0.1084709
v 0.3000000 0.8571429 0.1084709
v 0.4000000 0.8571429 0.1084709
v 0.5000000 0.8571429 0.1084709
v -0.4000000 1.0000000 0.1767767
v -0.5000000 1.0000000 0.1767767
v -0.3000000 1.0000000 0.1767767
v -0.2000000 1.0000000 0.1767767
v -0.1000000 1.0000000 0.1767767
v 0.0000000 1.0000000 0.1767767
v 0.1000000 1.0000000 0.1767767
v 0.2000000 1.0000000 0.1767767
v 0.3000000 1.0000000 0.1767767
v 0.4000000 1.0000000 0.1767767
v 0.5000000 1.0000000 0.1767767
v -0.4000000 1.1428571 0.2252422
v -0.5000000 1.1428571 0.2252422
v -0.3000000 1.1428571 0.2252422
v -0.2000000 1.1428571 0.2252422
v -0.1000000 1.1428571 0.2252422
v 0.0000000 1.1428571 0.2252422
v 0.1000000 1.1428571 0.2252422
v 0.2000000 1.1428571 0.2252422
v 0.3000000 1.1428571 0.2252422
v 0.4000000 1.1428571 0.2252422
v 0.5000000 1.1428571 0.2252422
v -0.4000000 1.2857143 0.2484281
v -0.5000000 1.2857143 0.2484281
v -0.3000000 1.2857143 0.2484281
v -0.2000000 1.2857143 0.2484281
v -0.1000000 1.2857143 0.2484281
v 0.0000000 1.2857143 0.2484281
v 0.1000000 1.2857143 0.2484281
v 0.2000000 1.2857143 0.2484281
v 0.3000000 1.2857143 0.2484281
v 0.4000000 1.2857143 0.2484281
v 0.5000000 1.2857143 0.2484281
v -0.4000000 1.4285714 0.2437320
v -0.5000000 1.4285714 0.2437320
v -0.3000000 1.4285714 0.2437320
v -0.2000000 1.4285714 0.2437320
v -0.1000000 1.4285714 0.2437320
v 0.0000000 1.4285714 0.2437320
v 0.1000000 1.4285714 0.2437320
v 0.2000000 1.4285714 0.2437320
v 0.3000000 1.4285714 0.2437320
v 0.4000000 1.4285714 0.2437320
v 0.5000000 1.4285714 0.2437320
v -0.4000000 1.5714286 0.2116810
v -0.5000000 1.5714286 0.2116810
v -0.3000000 1.5714286 0.2116810
v -0.2000000 1.5714286 0.2116810
v -0.1000000 1.5714286 0.2116810
v 0.0000000 1.5714286 0.2116810
v 0.1000000 1.5714286 0.2116810
v 0.2000000 1.5714286 0.2116810
v 0.3000000 1.5714286 0.2116810
v 0.4000000 1.5714286 0.2116810
v 0.5000000 1.5714286 0.2116810
v -0.4000000 1.7142857 0.1558725
v -0.5000000 1.7142857 0.1558725
v -0.3000000 1.7142857 0.1558725
v -0.2000000 1.7142857 0.1558725
v -0.1000000 1.7142857 0.1558725
v 0.0000000 1.7142857 0.1558725
v 0.1000000 1.7142857 0.1558725
v 0.2000000 1.7142857 0.1558725
v 0.3000000 1.7142857 0.1558725
v 0.4000000 1.7142857 0.1558725
v 0.5000000 1.7142857 0.1558725
v -0.4000000 1.8571429 0.0825698
v -0.5000000 1.8571429 0.0825698
v -0.3000000 1.8571429 0.0825698
v -0.2000000 1.8571429 0.0825698
v -0.1000000 1.8571429 0.0825698
v 0.0000000 1.8571429 0.0825698
v 0.1000000 1.8571429 0.0825698
v 0.2000000 1.8571429 0.0825698
v 0.3000000 1.8571429 0.0825698
v 0.4000000 1.8571429 0.0825698
v 0.5000000 1.8571429 0.0825698
v -0.4000000 2.0000000 0.0000000
v -0.5000000 2.0000000 0.0000000
v -0.3000000 2.0000000 0.0000000
v -0.2000000 2.0000000 0.0000000
v -0.1000000 2.0000000 0.0000000
v 0.0000000 2.0000000 0.0000000
v 0.1000000 2.0000000 0.0000000
v 0.2000000 2.0000000 0.0000000
v 0.3000000 2.0000000 0.0000000
v 0.4000000 2.0000000 0.0000000
v 0.5000000 2.0000000 0.0000000
f 1 2 3 4
f 2 5 6 3
f 5 7 8 6
f 7 9 10 8
f 9 11 12 10
f 11 13 14 12
f 13 15 16 14
f 15 17 18 16
f 17 19 20 18
f 19 21 22 20
f 4 3 23 24
f 3 6 25 23
f 6 8 26 25
f 8 10 27 26
f 10 12 28 27
f 12 14 29 28
f 14 16 30 29
f 16 18 31 30
f 18 20 32 31
f 20 22 33 32
f 24 23 34 35
f 23 25 36 34
f 25 26 37 36
f 26 27 38 37
f 27 28 39 38
f 28 29 40 39
f 29 30 41 40
f 30 31 42 41
f 31 32 43 42
f 32 33 44 43
f 35 34 45 46
f 34 36 47 45
f 36 37 48 47
f 37 38 49 48
f 38 39 50 49
f 39 40 51 50
f 40 41 52 51
f 41 42 53 52
f 42 43 54 53
f 43 44 55 54
f 46 45 56 57
f 45 47 58 56
f 47 48 59 58
f 48 49 60 59
f 49 50 61 60
f 50 51 62 61
f 51 52 63 62
f 52 53 64 63
f 53 54 65 64
f 54 55 66 65
f 57 56 67 68
f 56 58 69 67
f 58 59 70 69
f 59 60 71 70
f 60 61 72 71
f 61 62 73 72
f 62 63 74 73
f 63 64 75 74
f 64 65 76 75
f 65 66 77 76
f 68 67 78 79
f 67 69 80 78
f 69 70 81 80
f 70 71 82 81
f 71 72 83 82
f 72 73 84 83
f 73 74 85 84
f 74 75 86 85
f 75 76 87 86
f 76 77 88 87
f 79 78 89 90
f 78 80 91 89
f 80 81 92 91
f 81 82 93 92
f 82 83 94 93
f 83 84 95 94
f 84 85 96 95
f 85 86 97 96
f 86 87 98 97
f 87 88 99 98
f 90 89 100 101
f 89 91 102 100
f 91 92 103 102
f 92 93 104 103
f 93 94 105 104
f 94 95 106 105
f 95 96 107 106
f 96 97 108 107
f 97 98 109 108
f 98 99 110 109
f 101 100 111 112
f 100 102 113 111
f 102 103 114 113
f 103 104 115 114
f 104 105 116 115
f 105 106 117 116
f 106 107 118 117
f 107 108 119 118
f 108 109 120 119
f 109 110 121 120
f 112 111 122 123
f 111 113 124 122
f 113 114 125 124
f 114 115 126 125
f 115 116 127 126
f 116 117 128 127
f 117 118 129 128
f 118 119 130 129
f 119 120 131 130
f 120 121 132 131
f 123 122 133 134
f 122 124 135 133
f 124 125 136 135
f 125 126 137 136
f 126 127 138 137
f 127 128 139 138
f 128 129 140 139
f 129 130 141 140
f 130 131 142 141
f 131 132 143 142
f 134 133 144 145
f 133 135 146 144
f 135 136 147 146
f 136 137 148 147
f 137 138 149 148
f 138 139 150 149
f 139 140 151 150
f 140 141 152 151
f 141 142 153 152
f 142 143 154 153
f 145 144 155 156
f 144 146 157 155
f 146 147 158 157
f 147 148 159 158
f 148 149 160 159
f 149 150 161 160
f 150 151 162 161
f 151 152 163 162
f 152 153 164 163
f 153 154 165 164
f 156 155 166 167
f 155 157 168 166
f 157 158 169 168
f 158 159 170 169
f 159 160 171 170
f 160 161 172 171
f 161 162 173 172
f 162 163 174 173
f 163 164 175 174
f 164 165 176 175
f 167 166 177 178
f 166 168 179 177
f 168 169 180 179
f 169 170 181 180
f 170 171 182 181
f 171 172 183 182
f 172 173 184 183
f 173 174 185 184
f 174 175 186 185
f 175 176 187 186
f 178 177 188 189
f 177 179 190 188
f 179 180 191 190
f 180 181 192 191
f 181 182 193 192
f 182 183 194 193
f 183 184 195 194
f 184 185 196 195
f 185 186 197 196
f 186 187 198 197
f 189 188 199 200
f 188 190 201 199
f 190 191 202 201
f 191 192 203 202
f 192 193 204 203
f 193 194 205 204
f 194 195 206 205
f 195 196 207 206
f 196 197 208 207
f 197 198 209 208
f 200 199 210 211
f 199 201 212 210
f 201 202 213 212
f 202 203 214 213
f 203 204 215 214
f 204 205 216 215
f 205 206 217 216
f 206 207 218 217
f 207 208 219 218
f 208 209 220 219
f 211 210 221 222
f 210 212 223 221
f 212 213 224 223
f 213 214 225 224
f 214 215 226 225
f 215 216 227 226
f 216 217 228 227
f 217 218 229 228
f 218 219 230 229
f 219 220 231 230
f 222 221 232 233
f 221 223 234 232
f 223 224 235 234
f 224 225 236 235
f 225 226 237 236
f 226 227 238 237
f 227 228 239 238
f 228 229 240 239
f 229 230 241 240
f 230 231 242 241
f 233 232 243 244
f 232 234 245 243
f 234 235 246 245
f 235 236 247 246
f 236 237 248 247
f 237 238 249 248
f 238 239 250 249
f 239 240 251 250
f 240 241 252 251
f 241 242 253 252
f 244 243 254 255
f 243 245 256 254
f 245 246 257 256
f 246 247 258 257
f 247 248 259 258
f 248 249 260 259
f 249 250 261 260
f 250 251 262 261
f 251 252 263 262
f 252 253 264 263
f 255 254 265 266
f 254 256 267 265
f 256 257 268 267
f 257 258 269 268
f 258 259 270 269
f 259 260 271 270
f 260 261 272 271
f 261 262 273 272
f 262 263 274 273
f 263 264 275 274
f 266 265 276 277
f 265 267 278 276
f 267 268 279 278
f 268 269 280 279
f 269 270 281 280
f 270 271 282 281
f 271 272 283 282
f 272 273 284 283
f 273 274 285 284
f 274 275 286 285
f 277 276 287 288
f 276 278 289 287
f 278 279 290 289
f 279 280 291 290
f 280 281 292 291
f 281 282 293 292
f 282 283 294 293
f 283 284 295 294
f 284 285 296 295
f 285 286 297 296
f 288 287 298 299
f 287 289 300 298
f 289 290 301 300
f 290 291 302 301
f 291 292 303 302
f 292 293 304 303
f 293 294 305 304
f 294 295 306 305
f 295 296 307 306
f 296 297 308 307
f 299 298 309 310
f 298 300 311 309
f 300 301 312 311
f 301 302 313 312
f 302 303 314 313
f 303 304 315 314
f 304 305 316 315
f 305 306 317 316
f 306 307 318 317
f 307 308 319 318
