v -1.3400662 -0.001257 -1.300093
v -1.0047263 -0.001257 -1.300093
v -0.59696937 0.70061607 -1.185143
v -0.27986835 1.0338123 -1.1333406
v 0.0012935 1.1231463 -1.1112526
v 0.28245535 1.0338123 -1.1333406
v 0.59955637 0.70061607 -1.185143
v 1.0073133 -0.001257 -1.300093
v 1.3426532 -0.001257 -1.300093
v 1.3426532 -0.001257 -0.97675202
v 1.1978192 0.70061607 -0.59593601
v 1.1259409 1.0338123 -0.2883819
v 1.1050676 1.1231463 -0.006729
v 1.1259409 1.0338123 0.2749239
v 1.1978192 0.70061607 0.58247801
v 1.3426532 -0.001257 0.96329402
v 1.3426532 -0.001257 1.286635
v 1.0073133 -0.001257 1.286635
v 0.59955637 0.70061607 1.171685
v 0.28245535 1.0338123 1.1198826
v 0.0012935 1.1231463 1.0977946
v -0.27986835 1.0338123 1.1198826
v -0.59696937 0.70061607 1.171685
v -1.0047263 -0.001257 1.286635
v -1.3400662 -0.001257 1.286635
v -1.3400662 -0.001257 0.96329402
v -1.1952322 0.70061607 0.58247801
v -1.1233539 1.0338123 0.2749239
v -1.1024806 1.1231463 -0.006729
v -1.1233539 1.0338123 -0.2883819
v -1.1952322 0.70061607 -0.59593601
v -1.3400662 -0.001257 -0.97675202
v -1.0687712 1.255429 -1.0732339
v -0.80125506 1.255429 -1.0732339
v -0.53373887 1.255429 -1.0732339
v -0.26622269 1.255429 -1.0732339
v 0.0012935 1.255429 -1.0732339
v 0.26880969 1.255429 -1.0732339
v 0.53632587 1.255429 -1.0732339
v 0.80384206 1.255429 -1.0732339
v 1.0713582 1.255429 -1.0732339
v 1.0713582 1.255429 -0.80660765
v 1.0713582 1.255429 -0.53998144
v 1.0713582 1.255429 -0.27335522
v 1.0713582 1.255429 -0.006729
v 1.0713582 1.255429 0.25989722
v 1.0713582 1.255429 0.52652344
v 1.0713582 1.255429 0.79314965
v 1.0713582 1.255429 1.0597759
v 0.80384206 1.255429 1.0597759
v 0.53632587 1.255429 1.0597759
v 0.26880969 1.255429 1.0597759
v 0.0012935 1.255429 1.0597759
v -0.26622269 1.255429 1.0597759
v -0.53373887 1.255429 1.0597759
v -0.80125506 1.255429 1.0597759
v -1.0687712 1.255429 1.0597759
v -1.0687712 1.255429 0.79314965
v -1.0687712 1.255429 0.52652344
v -1.0687712 1.255429 0.25989722
v -1.0687712 1.255429 -0.006729
v -1.0687712 1.255429 -0.27335522
v -1.0687712 1.255429 -0.53998144
v -1.0687712 1.255429 -0.80660765
v -0.9661479 1.5705732 -0.95496957
v -0.72428755 1.5705732 -0.95496957
v -0.4824272 1.5705732 -0.95496957
v -0.24056685 1.5705732 -0.95496957
v 0.0012935 1.5705732 -0.95496957
v 0.24315385 1.5705732 -0.95496957
v 0.4850142 1.5705732 -0.95496957
v 0.72687455 1.5705732 -0.95496957
v 0.9687349 1.5705732 -0.95496957
v 0.9687349 1.5705732 -0.71790943
v 0.9687349 1.5705732 -0.48084929
v 0.9687349 1.5705732 -0.24378914
v 0.9687349 1.5705732 -0.006729
v 0.9687349 1.5705732 0.23033114
v 0.9687349 1.5705732 0.46739129
v 0.9687349 1.5705732 0.70445143
v 0.9687349 1.5705732 0.94151157
v 0.72687455 1.5705732 0.94151157
v 0.4850142 1.5705732 0.94151157
v 0.24315385 1.5705732 0.94151157
v 0.0012935 1.5705732 0.94151157
v -0.24056685 1.5705732 0.94151157
v -0.4824272 1.5705732 0.94151157
v -0.72428755 1.5705732 0.94151157
v -0.9661479 1.5705732 0.94151157
v -0.9661479 1.5705732 0.70445143
v -0.9661479 1.5705732 0.46739129
v -0.9661479 1.5705732 0.23033114
v -0.9661479 1.5705732 -0.006729
v -0.9661479 1.5705732 -0.24378914
v -0.9661479 1.5705732 -0.48084929
v -0.9661479 1.5705732 -0.71790943
v -0.83034521 1.8857174 -0.80869195
v -0.62243553 1.8857174 -0.80869195
v -0.41452585 1.8857174 -0.80869195
v -0.20661618 1.8857174 -0.80869195
v 0.0012935 1.8857174 -0.80869195
v 0.20920318 1.8857174 -0.80869195
v 0.41711285 1.8857174 -0.80869195
v 0.62502253 1.8857174 -0.80869195
v 0.83293221 1.8857174 -0.80869195
v 0.83293221 1.8857174 -0.60820121
v 0.83293221 1.8857174 -0.40771047
v 0.83293221 1.8857174 -0.20721974
v 0.83293221 1.8857174 -0.006729
v 0.83293221 1.8857174 0.19376174
v 0.83293221 1.8857174 0.39425247
v 0.83293221 1.8857174 0.59474321
v 0.83293221 1.8857174 0.79523395
v 0.62502253 1.8857174 0.79523395
v 0.41711285 1.8857174 0.79523395
v 0.20920318 1.8857174 0.79523395
v 0.0012935 1.8857174 0.79523395
v -0.20661618 1.8857174 0.79523395
v -0.41452585 1.8857174 0.79523395
v -0.62243553 1.8857174 0.79523395
v -0.83034521 1.8857174 0.79523395
v -0.83034521 1.8857174 0.59474321
v -0.83034521 1.8857174 0.39425247
v -0.83034521 1.8857174 0.19376174
v -0.83034521 1.8857174 -0.006729
v -0.83034521 1.8857174 -0.20721974
v -0.83034521 1.8857174 -0.40771047
v -0.83034521 1.8857174 -0.60820121
v -0.71772675 2.2008616 -0.69958887
v -0.53797169 2.2008616 -0.69958887
v -0.35821662 2.2008616 -0.69958887
v -0.17846156 2.2008616 -0.69958887
v 0.0012935 2.2008616 -0.69958887
v 0.18104856 2.2008616 -0.69958887
v 0.36080362 2.2008616 -0.69958887
v 0.54055869 2.2008616 -0.69958887
v 0.72031375 2.2008616 -0.69958887
v 0.72031375 2.2008616 -0.5263739
v 0.72031375 2.2008616 -0.35315894
v 0.72031375 2.2008616 -0.17994397
v 0.72031375 2.2008616 -0.006729
v 0.72031375 2.2008616 0.16648597
v 0.72031375 2.2008616 0.33970094
v 0.72031375 2.2008616 0.5129159
v 0.72031375 2.2008616 0.68613087
v 0.54055869 2.2008616 0.68613087
v 0.36080362 2.2008616 0.68613087
v 0.18104856 2.2008616 0.68613087
v 0.0012935 2.2008616 0.68613087
v -0.17846156 2.2008616 0.68613087
v -0.35821662 2.2008616 0.68613087
v -0.53797169 2.2008616 0.68613087
v -0.71772675 2.2008616 0.68613087
v -0.71772675 2.2008616 0.5129159
v -0.71772675 2.2008616 0.33970094
v -0.71772675 2.2008616 0.16648597
v -0.71772675 2.2008616 -0.006729
v -0.71772675 2.2008616 -0.17994397
v -0.71772675 2.2008616 -0.35315894
v -0.71772675 2.2008616 -0.5263739
v -0.64906444 2.5160057 -0.65128439
v -0.48647496 2.5160057 -0.65128439
v -0.32388547 2.5160057 -0.65128439
v -0.16129599 2.5160057 -0.65128439
v 0.0012935 2.5160057 -0.65128439
v 0.16388299 2.5160057 -0.65128439
v 0.32647247 2.5160057 -0.65128439
v 0.48906196 2.5160057 -0.65128439
v 0.65165144 2.5160057 -0.65128439
v 0.65165144 2.5160057 -0.49014554
v 0.65165144 2.5160057 -0.3290067
v 0.65165144 2.5160057 -0.16786785
v 0.65165144 2.5160057 -0.006729
v 0.65165144 2.5160057 0.15440985
v 0.65165144 2.5160057 0.3155487
v 0.65165144 2.5160057 0.47668754
v 0.65165144 2.5160057 0.63782639
v 0.48906196 2.5160057 0.63782639
v 0.32647247 2.5160057 0.63782639
v 0.16388299 2.5160057 0.63782639
v 0.0012935 2.5160057 0.63782639
v -0.16129599 2.5160057 0.63782639
v -0.32388547 2.5160057 0.63782639
v -0.48647496 2.5160057 0.63782639
v -0.64906444 2.5160057 0.63782639
v -0.64906444 2.5160057 0.47668754
v -0.64906444 2.5160057 0.3155487
v -0.64906444 2.5160057 0.15440985
v -0.64906444 2.5160057 -0.006729
v -0.64906444 2.5160057 -0.16786785
v -0.64906444 2.5160057 -0.3290067
v -0.64906444 2.5160057 -0.49014554
v -0.56899734 2.8311499 -0.5722774
v -0.42642463 2.8311499 -0.5722774
v -0.28385192 2.8311499 -0.5722774
v -0.14127921 2.8311499 -0.5722774
v 0.0012935 2.8311499 -0.5722774
v 0.14386621 2.8311499 -0.5722774
v 0.28643892 2.8311499 -0.5722774
v 0.42901163 2.8311499 -0.5722774
v 0.57158434 2.8311499 -0.5722774
v 0.57158434 2.8311499 -0.4308903
v 0.57158434 2.8311499 -0.2895032
v 0.57158434 2.8311499 -0.1481161
v 0.57158434 2.8311499 -0.006729
v 0.57158434 2.8311499 0.1346581
v 0.57158434 2.8311499 0.2760452
v 0.57158434 2.8311499 0.4174323
v 0.57158434 2.8311499 0.5588194
v 0.42901163 2.8311499 0.5588194
v 0.28643892 2.8311499 0.5588194
v 0.14386621 2.8311499 0.5588194
v 0.0012935 2.8311499 0.5588194
v -0.14127921 2.8311499 0.5588194
v -0.28385192 2.8311499 0.5588194
v -0.42642463 2.8311499 0.5588194
v -0.56899734 2.8311499 0.5588194
v -0.56899734 2.8311499 0.4174323
v -0.56899734 2.8311499 0.2760452
v -0.56899734 2.8311499 0.1346581
v -0.56899734 2.8311499 -0.006729
v -0.56899734 2.8311499 -0.1481161
v -0.56899734 2.8311499 -0.2895032
v -0.56899734 2.8311499 -0.4308903
v -0.4823118 3.1462941 -0.4781929
v -0.36141048 3.1462941 -0.4781929
v -0.24050915 3.1462941 -0.4781929
v -0.11960783 3.1462941 -0.4781929
v 0.0012935 3.1462941 -0.4781929
v 0.12219483 3.1462941 -0.4781929
v 0.24309615 3.1462941 -0.4781929
v 0.36399748 3.1462941 -0.4781929
v 0.4848988 3.1462941 -0.4781929
v 0.4848988 3.1462941 -0.36032692
v 0.4848988 3.1462941 -0.24246095
v 0.4848988 3.1462941 -0.12459497
v 0.4848988 3.1462941 -0.006729
v 0.4848988 3.1462941 0.11113697
v 0.4848988 3.1462941 0.22900295
v 0.4848988 3.1462941 0.34686892
v 0.4848988 3.1462941 0.4647349
v 0.36399748 3.1462941 0.4647349
v 0.24309615 3.1462941 0.4647349
v 0.12219483 3.1462941 0.4647349
v 0.0012935 3.1462941 0.4647349
v -0.11960783 3.1462941 0.4647349
v -0.24050915 3.1462941 0.4647349
v -0.36141048 3.1462941 0.4647349
v -0.4823118 3.1462941 0.4647349
v -0.4823118 3.1462941 0.34686892
v -0.4823118 3.1462941 0.22900295
v -0.4823118 3.1462941 0.11113697
v -0.4823118 3.1462941 -0.006729
v -0.4823118 3.1462941 -0.12459497
v -0.4823118 3.1462941 -0.24246095
v -0.4823118 3.1462941 -0.36032692
v -0.4059609 3.4614383 -0.40581106
v -0.3041473 3.4614383 -0.40581106
v -0.2023337 3.4614383 -0.40581106
v -0.1005201 3.4614383 -0.40581106
v 0.0012935 3.4614383 -0.40581106
v 0.1031071 3.4614383 -0.40581106
v 0.2049207 3.4614383 -0.40581106
v 0.3067343 3.4614383 -0.40581106
v 0.4085479 3.4614383 -0.40581106
v 0.4085479 3.4614383 -0.30604054
v 0.4085479 3.4614383 -0.20627003
v 0.4085479 3.4614383 -0.10649951
v 0.4085479 3.4614383 -0.006729
v 0.4085479 3.4614383 0.093041515
v 0.4085479 3.4614383 0.19281203
v 0.4085479 3.4614383 0.29258254
v 0.4085479 3.4614383 0.39235306
v 0.3067343 3.4614383 0.39235306
v 0.2049207 3.4614383 0.39235306
v 0.1031071 3.4614383 0.39235306
v 0.0012935 3.4614383 0.39235306
v -0.1005201 3.4614383 0.39235306
v -0.2023337 3.4614383 0.39235306
v -0.3041473 3.4614383 0.39235306
v -0.4059609 3.4614383 0.39235306
v -0.4059609 3.4614383 0.29258254
v -0.4059609 3.4614383 0.19281203
v -0.4059609 3.4614383 0.093041515
v -0.4059609 3.4614383 -0.006729
v -0.4059609 3.4614383 -0.10649951
v -0.4059609 3.4614383 -0.20627003
v -0.4059609 3.4614383 -0.30604054
v -0.34075948 3.7765824 -0.34829188
v -0.25524624 3.7765824 -0.34829188
v -0.16973299 3.7765824 -0.34829188
v -0.084219745 3.7765824 -0.34829188
v 0.0012935 3.7765824 -0.34829188
v 0.086806745 3.7765824 -0.34829188
v 0.17231999 3.7765824 -0.34829188
v 0.25783324 3.7765824 -0.34829188
v 0.34334648 3.7765824 -0.34829188
v 0.34334648 3.7765824 -0.26290116
v 0.34334648 3.7765824 -0.17751044
v 0.34334648 3.7765824 -0.092119721
v 0.34334648 3.7765824 -0.006729
v 0.34334648 3.7765824 0.078661721
v 0.34334648 3.7765824 0.16405244
v 0.34334648 3.7765824 0.24944316
v 0.34334648 3.7765824 0.33483388
v 0.25783324 3.7765824 0.33483388
v 0.17231999 3.7765824 0.33483388
v 0.086806745 3.7765824 0.33483388
v 0.0012935 3.7765824 0.33483388
v -0.084219745 3.7765824 0.33483388
v -0.16973299 3.7765824 0.33483388
v -0.25524624 3.7765824 0.33483388
v -0.34075948 3.7765824 0.33483388
v -0.34075948 3.7765824 0.24944316
v -0.34075948 3.7765824 0.16405244
v -0.34075948 3.7765824 0.078661721
v -0.34075948 3.7765824 -0.006729
v -0.34075948 3.7765824 -0.092119721
v -0.34075948 3.7765824 -0.17751044
v -0.34075948 3.7765824 -0.26290116
v -0.29051447 4.0917266 -0.30476895
v -0.21756247 4.0917266 -0.30476895
v -0.14461048 4.0917266 -0.30476895
v -0.071658492 4.0917266 -0.30476895
v 0.0012935 4.0917266 -0.30476895
v 0.074245492 4.0917266 -0.30476895
v 0.14719748 4.0917266 -0.30476895
v 0.22014947 4.0917266 -0.30476895
v 0.29310147 4.0917266 -0.30476895
v 0.29310147 4.0917266 -0.23025896
v 0.29310147 4.0917266 -0.15574898
v 0.29310147 4.0917266 -0.081238988
v 0.29310147 4.0917266 -0.006729
v 0.29310147 4.0917266 0.067780988
v 0.29310147 4.0917266 0.14229098
v 0.29310147 4.0917266 0.21680096
v 0.29310147 4.0917266 0.29131095
v 0.22014947 4.0917266 0.29131095
v 0.14719748 4.0917266 0.29131095
v 0.074245492 4.0917266 0.29131095
v 0.0012935 4.0917266 0.29131095
v -0.071658492 4.0917266 0.29131095
v -0.14461048 4.0917266 0.29131095
v -0.21756247 4.0917266 0.29131095
v -0.29051447 4.0917266 0.29131095
v -0.29051447 4.0917266 0.21680096
v -0.29051447 4.0917266 0.14229098
v -0.29051447 4.0917266 0.067780988
v -0.29051447 4.0917266 -0.006729
v -0.29051447 4.0917266 -0.081238988
v -0.29051447 4.0917266 -0.15574898
v -0.29051447 4.0917266 -0.23025896
v -0.25236255 4.4068708 -0.27230113
v -0.18894854 4.4068708 -0.27230113
v -0.12553452 4.4068708 -0.27230113
v -0.062120512 4.4068708 -0.27230113
v 0.0012935 4.4068708 -0.27230113
v 0.064707512 4.4068708 -0.27230113
v 0.12812152 4.4068708 -0.27230113
v 0.19153554 4.4068708 -0.27230113
v 0.25494955 4.4068708 -0.27230113
v 0.25494955 4.4068708 -0.2059081
v 0.25494955 4.4068708 -0.13951506
v 0.25494955 4.4068708 -0.073122032
v 0.25494955 4.4068708 -0.006729
v 0.25494955 4.4068708 0.059664032
v 0.25494955 4.4068708 0.12605706
v 0.25494955 4.4068708 0.1924501
v 0.25494955 4.4068708 0.25884313
v 0.19153554 4.4068708 0.25884313
v 0.12812152 4.4068708 0.25884313
v 0.064707512 4.4068708 0.25884313
v 0.0012935 4.4068708 0.25884313
v -0.062120512 4.4068708 0.25884313
v -0.12553452 4.4068708 0.25884313
v -0.18894854 4.4068708 0.25884313
v -0.25236255 4.4068708 0.25884313
v -0.25236255 4.4068708 0.1924501
v -0.25236255 4.4068708 0.12605706
v -0.25236255 4.4068708 0.059664032
v -0.25236255 4.4068708 -0.006729
v -0.25236255 4.4068708 -0.073122032
v -0.25236255 4.4068708 -0.13951506
v -0.25236255 4.4068708 -0.2059081
v -0.22209909 4.722015 -0.24703629
v -0.16625095 4.722015 -0.24703629
v -0.1104028 4.722015 -0.24703629
v -0.054554648 4.722015 -0.24703629
v 0.0012935 4.722015 -0.24703629
v 0.057141648 4.722015 -0.24703629
v 0.1129898 4.722015 -0.24703629
v 0.16883795 4.722015 -0.24703629
v 0.22468609 4.722015 -0.24703629
v 0.22468609 4.722015 -0.18695947
v 0.22468609 4.722015 -0.12688264
v 0.22468609 4.722015 -0.066805822
v 0.22468609 4.722015 -0.006729
v 0.22468609 4.722015 0.053347822
v 0.22468609 4.722015 0.11342464
v 0.22468609 4.722015 0.17350147
v 0.22468609 4.722015 0.23357829
v 0.16883795 4.722015 0.23357829
v 0.1129898 4.722015 0.23357829
v 0.057141648 4.722015 0.23357829
v 0.0012935 4.722015 0.23357829
v -0.054554648 4.722015 0.23357829
v -0.1104028 4.722015 0.23357829
v -0.16625095 4.722015 0.23357829
v -0.22209909 4.722015 0.23357829
v -0.22209909 4.722015 0.17350147
v -0.22209909 4.722015 0.11342464
v -0.22209909 4.722015 0.053347822
v -0.22209909 4.722015 -0.006729
v -0.22209909 4.722015 -0.066805822
v -0.22209909 4.722015 -0.12688264
v -0.22209909 4.722015 -0.18695947
v -0.19517589 5.0371591 -0.22617685
v -0.14605854 5.0371591 -0.22617685
v -0.096941195 5.0371591 -0.22617685
v -0.047823847 5.0371591 -0.22617685
v 0.0012935 5.0371591 -0.22617685
v 0.050410847 5.0371591 -0.22617685
v 0.099528195 5.0371591 -0.22617685
v 0.14864554 5.0371591 -0.22617685
v 0.19776289 5.0371591 -0.22617685
v 0.19776289 5.0371591 -0.17131489
v 0.19776289 5.0371591 -0.11645292
v 0.19776289 5.0371591 -0.061590962
v 0.19776289 5.0371591 -0.006729
v 0.19776289 5.0371591 0.048132962
v 0.19776289 5.0371591 0.10299492
v 0.19776289 5.0371591 0.15785689
v 0.19776289 5.0371591 0.21271885
v 0.14864554 5.0371591 0.21271885
v 0.099528195 5.0371591 0.21271885
v 0.050410847 5.0371591 0.21271885
v 0.0012935 5.0371591 0.21271885
v -0.047823847 5.0371591 0.21271885
v -0.096941195 5.0371591 0.21271885
v -0.14605854 5.0371591 0.21271885
v -0.19517589 5.0371591 0.21271885
v -0.19517589 5.0371591 0.15785689
v -0.19517589 5.0371591 0.10299492
v -0.19517589 5.0371591 0.048132962
v -0.19517589 5.0371591 -0.006729
v -0.19517589 5.0371591 -0.061590962
v -0.19517589 5.0371591 -0.11645292
v -0.19517589 5.0371591 -0.17131489
v -0.17368137 5.3523033 -0.2135336
v -0.12993765 5.3523033 -0.2135336
v -0.086193935 5.3523033 -0.2135336
v -0.042450218 5.3523033 -0.2135336
v 0.0012935 5.3523033 -0.2135336
v 0.045037218 5.3523033 -0.2135336
v 0.088780935 5.3523033 -0.2135336
v 0.13252465 5.3523033 -0.2135336
v 0.17626837 5.3523033 -0.2135336
v 0.17626837 5.3523033 -0.16183245
v 0.17626837 5.3523033 -0.1101313
v 0.17626837 5.3523033 -0.058430151
v 0.17626837 5.3523033 -0.006729
v 0.17626837 5.3523033 0.044972151
v 0.17626837 5.3523033 0.096673302
v 0.17626837 5.3523033 0.14837445
v 0.17626837 5.3523033 0.2000756
v 0.13252465 5.3523033 0.2000756
v 0.088780935 5.3523033 0.2000756
v 0.045037218 5.3523033 0.2000756
v 0.0012935 5.3523033 0.2000756
v -0.042450218 5.3523033 0.2000756
v -0.086193935 5.3523033 0.2000756
v -0.12993765 5.3523033 0.2000756
v -0.17368137 5.3523033 0.2000756
v -0.17368137 5.3523033 0.14837445
v -0.17368137 5.3523033 0.096673302
v -0.17368137 5.3523033 0.044972151
v -0.17368137 5.3523033 -0.006729
v -0.17368137 5.3523033 -0.058430151
v -0.17368137 5.3523033 -0.1101313
v -0.17368137 5.3523033 -0.16183245
v -0.16207314 5.6674475 -0.20861709
v -0.12123148 5.6674475 -0.20861709
v -0.080389822 5.6674475 -0.20861709
v -0.039548161 5.6674475 -0.20861709
v 0.0012935 5.6674475 -0.20861709
v 0.042135161 5.6674475 -0.20861709
v 0.082976822 5.6674475 -0.20861709
v 0.12381848 5.6674475 -0.20861709
v 0.16466014 5.6674475 -0.20861709
v 0.16466014 5.6674475 -0.15814507
v 0.16466014 5.6674475 -0.10767305
v 0.16466014 5.6674475 -0.057201023
v 0.16466014 5.6674475 -0.006729
v 0.16466014 5.6674475 0.043743023
v 0.16466014 5.6674475 0.094215045
v 0.16466014 5.6674475 0.14468707
v 0.16466014 5.6674475 0.19515909
v 0.12381848 5.6674475 0.19515909
v 0.082976822 5.6674475 0.19515909
v 0.042135161 5.6674475 0.19515909
v 0.0012935 5.6674475 0.19515909
v -0.039548161 5.6674475 0.19515909
v -0.080389822 5.6674475 0.19515909
v -0.12123148 5.6674475 0.19515909
v -0.16207314 5.6674475 0.19515909
v -0.16207314 5.6674475 0.14468707
v -0.16207314 5.6674475 0.094215045
v -0.16207314 5.6674475 0.043743023
v -0.16207314 5.6674475 -0.006729
v -0.16207314 5.6674475 -0.057201023
v -0.16207314 5.6674475 -0.10767305
v -0.16207314 5.6674475 -0.15814507
v -0.15159886 5.9825917 -0.19995865
v -0.11337577 5.9825917 -0.19995865
v -0.075152679 5.9825917 -0.19995865
v -0.036929589 5.9825917 -0.19995865
v 0.0012935 5.9825917 -0.19995865
v 0.039516589 5.9825917 -0.19995865
v 0.077739679 5.9825917 -0.19995865
v 0.11596277 5.9825917 -0.19995865
v 0.15418586 5.9825917 -0.19995865
v 0.15418586 5.9825917 -0.15165124
v 0.15418586 5.9825917 -0.10334382
v 0.15418586 5.9825917 -0.055036412
v 0.15418586 5.9825917 -0.006729
v 0.15418586 5.9825917 0.041578412
v 0.15418586 5.9825917 0.089885825
v 0.15418586 5.9825917 0.13819324
v 0.15418586 5.9825917 0.18650065
v 0.11596277 5.9825917 0.18650065
v 0.077739679 5.9825917 0.18650065
v 0.039516589 5.9825917 0.18650065
v 0.0012935 5.9825917 0.18650065
v -0.036929589 5.9825917 0.18650065
v -0.075152679 5.9825917 0.18650065
v -0.11337577 5.9825917 0.18650065
v -0.15159886 5.9825917 0.18650065
v -0.15159886 5.9825917 0.13819324
v -0.15159886 5.9825917 0.089885825
v -0.15159886 5.9825917 0.041578412
v -0.15159886 5.9825917 -0.006729
v -0.15159886 5.9825917 -0.055036412
v -0.15159886 5.9825917 -0.10334382
v -0.15159886 5.9825917 -0.15165124
v -0.1226935 6.2977358 -0.17165222
v -0.091696748 6.2977358 -0.17165222
v -0.060699999 6.2977358 -0.17165222
v -0.029703249 6.2977358 -0.17165222
v 0.0012935 6.2977358 -0.17165222
v 0.032290249 6.2977358 -0.17165222
v 0.063286999 6.2977358 -0.17165222
v 0.094283748 6.2977358 -0.17165222
v 0.1252805 6.2977358 -0.17165222
v 0.1252805 6.2977358 -0.13042141
v 0.1252805 6.2977358 -0.089190609
v 0.1252805 6.2977358 -0.047959805
v 0.1252805 6.2977358 -0.006729
v 0.1252805 6.2977358 0.034501805
v 0.1252805 6.2977358 0.075732609
v 0.1252805 6.2977358 0.11696341
v 0.1252805 6.2977358 0.15819422
v 0.094283748 6.2977358 0.15819422
v 0.063286999 6.2977358 0.15819422
v 0.032290249 6.2977358 0.15819422
v 0.0012935 6.2977358 0.15819422
v -0.029703249 6.2977358 0.15819422
v -0.060699999 6.2977358 0.15819422
v -0.091696748 6.2977358 0.15819422
v -0.1226935 6.2977358 0.15819422
v -0.1226935 6.2977358 0.11696341
v -0.1226935 6.2977358 0.075732609
v -0.1226935 6.2977358 0.034501805
v -0.1226935 6.2977358 -0.006729
v -0.1226935 6.2977358 -0.047959805
v -0.1226935 6.2977358 -0.089190609
v -0.1226935 6.2977358 -0.13042141
v -0.088590954 6.61288 -0.13815527
v -0.06611984 6.61288 -0.13815527
v -0.043648727 6.61288 -0.13815527
v -0.021177613 6.61288 -0.13815527
v 0.0012935 6.61288 -0.13815527
v 0.023764613 6.61288 -0.13815527
v 0.046235727 6.61288 -0.13815527
v 0.06870684 6.61288 -0.13815527
v 0.091177954 6.61288 -0.13815527
v 0.091177954 6.61288 -0.1052987
v 0.091177954 6.61288 -0.072442135
v 0.091177954 6.61288 -0.039585568
v 0.091177954 6.61288 -0.006729
v 0.091177954 6.61288 0.026127568
v 0.091177954 6.61288 0.058984135
v 0.091177954 6.61288 0.091840703
v 0.091177954 6.61288 0.12469727
v 0.06870684 6.61288 0.12469727
v 0.046235727 6.61288 0.12469727
v 0.023764613 6.61288 0.12469727
v 0.0012935 6.61288 0.12469727
v -0.021177613 6.61288 0.12469727
v -0.043648727 6.61288 0.12469727
v -0.06611984 6.61288 0.12469727
v -0.088590954 6.61288 0.12469727
v -0.088590954 6.61288 0.091840703
v -0.088590954 6.61288 0.058984135
v -0.088590954 6.61288 0.026127568
v -0.088590954 6.61288 -0.006729
v -0.088590954 6.61288 -0.039585568
v -0.088590954 6.61288 -0.072442135
v -0.088590954 6.61288 -0.1052987
f 1 2 34 33
f 2 3 35 34
f 3 4 36 35
f 4 5 37 36
f 5 6 38 37
f 6 7 39 38
f 7 8 40 39
f 8 9 41 40
f 9 10 42 41
f 10 11 43 42
f 11 12 44 43
f 12 13 45 44
f 13 14 46 45
f 14 15 47 46
f 15 16 48 47
f 16 17 49 48
f 17 18 50 49
f 18 19 51 50
f 19 20 52 51
f 20 21 53 52
f 21 22 54 53
f 22 23 55 54
f 23 24 56 55
f 24 25 57 56
f 25 26 58 57
f 26 27 59 58
f 27 28 60 59
f 28 29 61 60
f 29 30 62 61
f 30 31 63 62
f 31 32 64 63
f 32 1 33 64
f 33 34 66 65
f 34 35 67 66
f 35 36 68 67
f 36 37 69 68
f 37 38 70 69
f 38 39 71 70
f 39 40 72 71
f 40 41 73 72
f 41 42 74 73
f 42 43 75 74
f 43 44 76 75
f 44 45 77 76
f 45 46 78 77
f 46 47 79 78
f 47 48 80 79
f 48 49 81 80
f 49 50 82 81
f 50 51 83 82
f 51 52 84 83
f 52 53 85 84
f 53 54 86 85
f 54 55 87 86
f 55 56 88 87
f 56 57 89 88
f 57 58 90 89
f 58 59 91 90
f 59 60 92 91
f 60 61 93 92
f 61 62 94 93
f 62 63 95 94
f 63 64 96 95
f 64 33 65 96
f 65 66 98 97
f 66 67 99 98
f 67 68 100 99
f 68 69 101 100
f 69 70 102 101
f 70 71 103 102
f 71 72 104 103
f 72 73 105 104
f 73 74 106 105
f 74 75 107 106
f 75 76 108 107
f 76 77 109 108
f 77 78 110 109
f 78 79 111 110
f 79 80 112 111
f 80 81 113 112
f 81 82 114 113
f 82 83 115 114
f 83 84 116 115
f 84 85 117 116
f 85 86 118 117
f 86 87 119 118
f 87 88 120 119
f 88 89 121 120
f 89 90 122 121
f 90 91 123 122
f 91 92 124 123
f 92 93 125 124
f 93 94 126 125
f 94 95 127 126
f 95 96 128 127
f 96 65 97 128
f 97 98 130 129
f 98 99 131 130
f 99 100 132 131
f 100 101 133 132
f 101 102 134 133
f 102 103 135 134
f 103 104 136 135
f 104 105 137 136
f 105 106 138 137
f 106 107 139 138
f 107 108 140 139
f 108 109 141 140
f 109 110 142 141
f 110 111 143 142
f 111 112 144 143
f 112 113 145 144
f 113 114 146 145
f 114 115 147 146
f 115 116 148 147
f 116 117 149 148
f 117 118 150 149
f 118 119 151 150
f 119 120 152 151
f 120 121 153 152
f 121 122 154 153
f 122 123 155 154
f 123 124 156 155
f 124 125 157 156
f 125 126 158 157
f 126 127 159 158
f 127 128 160 159
f 128 97 129 160
f 129 130 162 161
f 130 131 163 162
f 131 132 164 163
f 132 133 165 164
f 133 134 166 165
f 134 135 167 166
f 135 136 168 167
f 136 137 169 168
f 137 138 170 169
f 138 139 171 170
f 139 140 172 171
f 140 141 173 172
f 141 142 174 173
f 142 143 175 174
f 143 144 176 175
f 144 145 177 176
f 145 146 178 177
f 146 147 179 178
f 147 148 180 179
f 148 149 181 180
f 149 150 182 181
f 150 151 183 182
f 151 152 184 183
f 152 153 185 184
f 153 154 186 185
f 154 155 187 186
f 155 156 188 187
f 156 157 189 188
f 157 158 190 189
f 158 159 191 190
f 159 160 192 191
f 160 129 161 192
f 161 162 194 193
f 162 163 195 194
f 163 164 196 195
f 164 165 197 196
f 165 166 198 197
f 166 167 199 198
f 167 168 200 199
f 168 169 201 200
f 169 170 202 201
f 170 171 203 202
f 171 172 204 203
f 172 173 205 204
f 173 174 206 205
f 174 175 207 206
f 175 176 208 207
f 176 177 209 208
f 177 178 210 209
f 178 179 211 210
f 179 180 212 211
f 180 181 213 212
f 181 182 214 213
f 182 183 215 214
f 183 184 216 215
f 184 185 217 216
f 185 186 218 217
f 186 187 219 218
f 187 188 220 219
f 188 189 221 220
f 189 190 222 221
f 190 191 223 222
f 191 192 224 223
f 192 161 193 224
f 193 194 226 225
f 194 195 227 226
f 195 196 228 227
f 196 197 229 228
f 197 198 230 229
f 198 199 231 230
f 199 200 232 231
f 200 201 233 232
f 201 202 234 233
f 202 203 235 234
f 203 204 236 235
f 204 205 237 236
f 205 206 238 237
f 206 207 239 238
f 207 208 240 239
f 208 209 241 240
f 209 210 242 241
f 210 211 243 242
f 211 212 244 243
f 212 213 245 244
f 213 214 246 245
f 214 215 247 246
f 215 216 248 247
f 216 217 249 248
f 217 218 250 249
f 218 219 251 250
f 219 220 252 251
f 220 221 253 252
f 221 222 254 253
f 222 223 255 254
f 223 224 256 255
f 224 193 225 256
f 225 226 258 257
f 226 227 259 258
f 227 228 260 259
f 228 229 261 260
f 229 230 262 261
f 230 231 263 262
f 231 232 264 263
f 232 233 265 264
f 233 234 266 265
f 234 235 267 266
f 235 236 268 267
f 236 237 269 268
f 237 238 270 269
f 238 239 271 270
f 239 240 272 271
f 240 241 273 272
f 241 242 274 273
f 242 243 275 274
f 243 244 276 275
f 244 245 277 276
f 245 246 278 277
f 246 247 279 278
f 247 248 280 279
f 248 249 281 280
f 249 250 282 281
f 250 251 283 282
f 251 252 284 283
f 252 253 285 284
f 253 254 286 285
f 254 255 287 286
f 255 256 288 287
f 256 225 257 288
f 257 258 290 289
f 258 259 291 290
f 259 260 292 291
f 260 261 293 292
f 261 262 294 293
f 262 263 295 294
f 263 264 296 295
f 264 265 297 296
f 265 266 298 297
f 266 267 299 298
f 267 268 300 299
f 268 269 301 300
f 269 270 302 301
f 270 271 303 302
f 271 272 304 303
f 272 273 305 304
f 273 274 306 305
f 274 275 307 306
f 275 276 308 307
f 276 277 309 308
f 277 278 310 309
f 278 279 311 310
f 279 280 312 311
f 280 281 313 312
f 281 282 314 313
f 282 283 315 314
f 283 284 316 315
f 284 285 317 316
f 285 286 318 317
f 286 287 319 318
f 287 288 320 319
f 288 257 289 320
f 289 290 322 321
f 290 291 323 322
f 291 292 324 323
f 292 293 325 324
f 293 294 326 325
f 294 295 327 326
f 295 296 328 327
f 296 297 329 328
f 297 298 330 329
f 298 299 331 330
f 299 300 332 331
f 300 301 333 332
f 301 302 334 333
f 302 303 335 334
f 303 304 336 335
f 304 305 337 336
f 305 306 338 337
f 306 307 339 338
f 307 308 340 339
f 308 309 341 340
f 309 310 342 341
f 310 311 343 342
f 311 312 344 343
f 312 313 345 344
f 313 314 346 345
f 314 315 347 346
f 315 316 348 347
f 316 317 349 348
f 317 318 350 349
f 318 319 351 350
f 319 320 352 351
f 320 289 321 352
f 321 322 354 353
f 322 323 355 354
f 323 324 356 355
f 324 325 357 356
f 325 326 358 357
f 326 327 359 358
f 327 328 360 359
f 328 329 361 360
f 329 330 362 361
f 330 331 363 362
f 331 332 364 363
f 332 333 365 364
f 333 334 366 365
f 334 335 367 366
f 335 336 368 367
f 336 337 369 368
f 337 338 370 369
f 338 339 371 370
f 339 340 372 371
f 340 341 373 372
f 341 342 374 373
f 342 343 375 374
f 343 344 376 375
f 344 345 377 376
f 345 346 378 377
f 346 347 379 378
f 347 348 380 379
f 348 349 381 380
f 349 350 382 381
f 350 351 383 382
f 351 352 384 383
f 352 321 353 384
f 353 354 386 385
f 354 355 387 386
f 355 356 388 387
f 356 357 389 388
f 357 358 390 389
f 358 359 391 390
f 359 360 392 391
f 360 361 393 392
f 361 362 394 393
f 362 363 395 394
f 363 364 396 395
f 364 365 397 396
f 365 366 398 397
f 366 367 399 398
f 367 368 400 399
f 368 369 401 400
f 369 370 402 401
f 370 371 403 402
f 371 372 404 403
f 372 373 405 404
f 373 374 406 405
f 374 375 407 406
f 375 376 408 407
f 376 377 409 408
f 377 378 410 409
f 378 379 411 410
f 379 380 412 411
f 380 381 413 412
f 381 382 414 413
f 382 383 415 414
f 383 384 416 415
f 384 353 385 416
f 385 386 418 417
f 386 387 419 418
f 387 388 420 419
f 388 389 421 420
f 389 390 422 421
f 390 391 423 422
f 391 392 424 423
f 392 393 425 424
f 393 394 426 425
f 394 395 427 426
f 395 396 428 427
f 396 397 429 428
f 397 398 430 429
f 398 399 431 430
f 399 400 432 431
f 400 401 433 432
f 401 402 434 433
f 402 403 435 434
f 403 404 436 435
f 404 405 437 436
f 405 406 438 437
f 406 407 439 438
f 407 408 440 439
f 408 409 441 440
f 409 410 442 441
f 410 411 443 442
f 411 412 444 443
f 412 413 445 444
f 413 414 446 445
f 414 415 447 446
f 415 416 448 447
f 416 385 417 448
f 417 418 450 449
f 418 419 451 450
f 419 420 452 451
f 420 421 453 452
f 421 422 454 453
f 422 423 455 454
f 423 424 456 455
f 424 425 457 456
f 425 426 458 457
f 426 427 459 458
f 427 428 460 459
f 428 429 461 460
f 429 430 462 461
f 430 431 463 462
f 431 432 464 463
f 432 433 465 464
f 433 434 466 465
f 434 435 467 466
f 435 436 468 467
f 436 437 469 468
f 437 438 470 469
f 438 439 471 470
f 439 440 472 471
f 440 441 473 472
f 441 442 474 473
f 442 443 475 474
f 443 444 476 475
f 444 445 477 476
f 445 446 478 477
f 446 447 479 478
f 447 448 480 479
f 448 417 449 480
f 449 450 482 481
f 450 451 483 482
f 451 452 484 483
f 452 453 485 484
f 453 454 486 485
f 454 455 487 486
f 455 456 488 487
f 456 457 489 488
f 457 458 490 489
f 458 459 491 490
f 459 460 492 491
f 460 461 493 492
f 461 462 494 493
f 462 463 495 494
f 463 464 496 495
f 464 465 497 496
f 465 466 498 497
f 466 467 499 498
f 467 468 500 499
f 468 469 501 500
f 469 470 502 501
f 470 471 503 502
f 471 472 504 503
f 472 473 505 504
f 473 474 506 505
f 474 475 507 506
f 475 476 508 507
f 476 477 509 508
f 477 478 510 509
f 478 479 511 510
f 479 480 512 511
f 480 449 481 512
f 481 482 514 513
f 482 483 515 514
f 483 484 516 515
f 484 485 517 516
f 485 486 518 517
f 486 487 519 518
f 487 488 520 519
f 488 489 521 520
f 489 490 522 521
f 490 491 523 522
f 491 492 524 523
f 492 493 525 524
f 493 494 526 525
f 494 495 527 526
f 495 496 528 527
f 496 497 529 528
f 497 498 530 529
f 498 499 531 530
f 499 500 532 531
f 500 501 533 532
f 501 502 534 533
f 502 503 535 534
f 503 504 536 535
f 504 505 537 536
f 505 506 538 537
f 506 507 539 538
f 507 508 540 539
f 508 509 541 540
f 509 510 542 541
f 510 511 543 542
f 511 512 544 543
f 512 481 513 544
f 513 514 546 545
f 514 515 547 546
f 515 516 548 547
f 516 517 549 548
f 517 518 550 549
f 518 519 551 550
f 519 520 552 551
f 520 521 553 552
f 521 522 554 553
f 522 523 555 554
f 523 524 556 555
f 524 525 557 556
f 525 526 558 557
f 526 527 559 558
f 527 528 560 559
f 528 529 561 560
f 529 530 562 561
f 530 531 563 562
f 531 532 564 563
f 532 533 565 564
f 533 534 566 565
f 534 535 567 566
f 535 536 568 567
f 536 537 569 568
f 537 538 570 569
f 538 539 571 570
f 539 540 572 571
f 540 541 573 572
f 541 542 574 573
f 542 543 575 574
f 543 544 576 575
f 544 513 545 576
f 545 546 578 577
f 546 547 579 578
f 547 548 580 579
f 548 549 581 580
f 549 550 582 581
f 550 551 583 582
f 551 552 584 583
f 552 553 585 584
f 553 554 586 585
f 554 555 587 586
f 555 556 588 587
f 556 557 589 588
f 557 558 590 589
f 558 559 591 590
f 559 560 592 591
f 560 561 593 592
f 561 562 594 593
f 562 563 595 594
f 563 564 596 595
f 564 565 597 596
f 565 566 598 597
f 566 567 599 598
f 567 568 600 599
f 568 569 601 600
f 569 570 602 601
f 570 571 603 602
f 571 572 604 603
f 572 573 605 604
f 573 574 606 605
f 574 575 607 606
f 575 576 608 607
f 576 545 577 608
