v 0.0368954 0.0507918 -0.150191
v 0.0397062 0.012802 -0.150523
v 0.0367353 0.0535535 -0.178803
v 0.0405732 0.0126838 -0.209089
v 0.0395599 0.011628 -0.17904
v 0.0395772 0.0538703 -0.209309
v 0.0412925 0.0137175 -0.123282
v 0.0404115 0.0435902 -0.0966224
v 0.0431196 0.0137573 -0.0980065
v 0.045803 0.100398 -0.172791
v 0.0432533 0.0531372 -0.239666
v 0.043734 0.0954161 -0.208087
v 0.0487059 0.132445 -0.156299
v 0.0452777 0.119613 -0.132701
v 0.0494101 0.148623 -0.124526
v 0.0435147 0.0373404 -0.0148446
v 0.0491044 0.0623683 -0.0391878
v 0.0499925 0.0585348 -0.0116046
v 0.0467766 0.0667961 -0.0653777
v 0.0414707 0.0401235 -0.043417
v 0.0426154 0.040977 -0.070348
v 0.0470836 0.0718504 -0.0912103
v 0.0397525 0.0470857 -0.123281
v 0.0477275 0.0787923 -0.117054
v 0.0420261 0.0868876 -0.143261
v 0.0517305 0.109547 -0.107837
v 0.0596608 0.167703 -0.152668
v 0.0540182 0.0910917 -0.0588444
v 0.0546341 0.0983055 -0.0835913
v 0.0475759 0.0919228 -0.237988
v 0.045504 0.133514 -0.209896
v 0.0547311 0.127168 -0.237753
v 0.0466329 0.012099 -0.0173305
v 0.0687928 0.0144067 -0.0210151
v 0.0463473 0.0136782 -0.0450978
v 0.0686459 0.0143928 0.00711824
v 0.056173 0.0128872 -0.269499
v 0.0448553 0.0120425 -0.240461
v 0.0542616 0.0543097 -0.267459
v 0.0563272 0.135869 -0.0962971
v 0.0617578 0.1364 -0.159855
v 0.0713365 0.0111001 -0.174748
v 0.0738068 0.0110967 -0.201967
v 0.0698868 0.013281 -0.0463983
v 0.0482137 0.0364516 0.0163265
v 0.0699259 0.0182144 0.0389787
v 0.0497182 0.0160851 0.0146926
v 0.0592181 0.09067 -0.265016
v 0.0543033 0.0851482 -0.03393
v 0.0685505 0.103907 -0.0284515
v 0.0680473 0.111519 -0.0509347
v 0.0658603 0.12078 -0.0740511
v 0.0626341 0.124276 -0.263794
v 0.055734 0.0560103 0.016559
v 0.060695 0.0363454 0.0458344
v 0.0886269 0.0142732 -0.0054326
v 0.0738888 0.0234835 -0.292992
v 0.0950976 0.0111001 -0.0461405
v 0.0669872 0.0571151 0.0448545
v 0.0556959 0.0791168 -0.00887704
v 0.0708495 0.0940753 -0.00906416
v 0.0610377 0.0753548 0.016908
v 0.0752491 0.130774 -0.177436
v 0.0732517 0.130493 -0.158892
v 0.0966374 0.0177463 0.0524597
v 0.0731904 0.0588818 -0.288261
v 0.074833 0.0764649 0.0422189
v 0.0731974 0.0925206 -0.29026
v 0.0778457 0.122484 -0.286222
v 0.0857871 0.179615 -0.128675
v 0.072155 0.0889677 0.0127669
v 0.0932844 0.12024 -0.0461917
v 0.0913164 0.128826 -0.0678657
v 0.0914176 0.0144149 0.0199762
v 0.0814162 0.0323332 0.0679084
v 0.0945377 0.0942429 0.0102824
v 0.0875037 0.144074 -0.0897422
v 0.08482 0.158449 -0.112988
v 0.0782024 0.0110958 -0.22843
v 0.0863312 0.0111561 -0.253175
v 0.0948837 0.0973494 -0.00893145
v 0.0931223 0.110185 -0.0260059
v 0.0856558 0.141305 -0.275957
v 0.085529 0.130778 -0.257837
v 0.084458 0.129025 -0.139584
v 0.0779117 0.146592 -0.146404
v 0.0892309 0.168236 -0.151944
v 0.0702479 0.0111001 -0.14793
v 0.103204 0.0110937 -0.168881
v 0.0842479 0.0869714 0.0331537
v 0.0966061 0.0909491 0.025225
v 0.0832379 0.130824 -0.231568
v 0.106072 0.013005 0.000688934
v 0.0958054 0.0365861 -0.307343
v 0.0854891 0.0560564 0.0655978
v 0.0974483 0.0111009 -0.277318
v 0.0910714 0.010946 -0.0236704
v 0.0957464 0.0740206 0.056896
v 0.10349 0.122785 -0.296495
v 0.0985075 0.159276 -0.138077
v 0.116895 0.014714 0.0305946
v 0.10521 0.185539 -0.149091
v 0.122781 0.175587 -0.12921
v 0.104679 0.0325925 0.0758968
v 0.116376 0.0915266 0.0149445
v 0.108536 0.130826 -0.199284
v 0.0798775 0.13086 -0.204811
v 0.101071 0.130829 -0.168476
v 0.110673 0.150386 -0.282515
v 0.118821 0.156663 -0.109767
v 0.129025 0.00916749 -0.138967
v 0.100093 0.0111002 -0.143776
v 0.127021 0.00776769 -0.115224
v 0.10445 0.0839065 0.0445287
v 0.118286 0.121985 -0.069438
v 0.120061 0.117519 -0.044072
v 0.118589 0.14459 -0.0860932
v 0.132717 0.18639 -0.145164
v 0.108178 0.0111001 -0.193529
v 0.126621 0.0111 -0.0914386
v 0.0988507 0.00914947 -0.118809
v 0.0989807 0.0111001 -0.0940676
v 0.109602 0.0515058 0.0721317
v 0.0962519 0.065893 -0.301593
v 0.119987 0.048213 -0.29523
v 0.111172 0.0888216 0.0314077
v 0.119035 0.104927 -0.0243347
v 0.123713 0.159296 -0.150561
v 0.0975198 0.0111001 -0.0697685
v 0.124626 0.0111001 -0.0674603
v 0.123075 0.0188282 0.0650841
v 0.115156 0.0133413 -0.298172
v 0.126962 0.0315478 -0.293849
v 0.117832 0.0679569 0.061371
v 0.123926 0.0703725 -0.296757
v 0.0981267 0.0951227 -0.304283
v 0.118421 0.0941922 -0.00564278
v 0.11007 0.130828 -0.259031
v 0.112634 0.135484 -0.13096
v 0.125154 0.0953511 -0.294284
v 0.128591 0.119066 -0.288306
v 0.135002 0.0111398 -0.162054
v 0.133292 0.0805925 0.0375326
v 0.134865 0.13083 -0.258829
v 0.138937 0.130809 -0.231941
v 0.132422 0.130942 -0.162097
v 0.1122 0.0111001 -0.217361
v 0.148648 0.00795021 -0.209142
v 0.116055 0.0111006 -0.239108
v 0.141401 0.0110922 -0.0160525
v 0.115541 0.0111001 -0.0204868
v 0.131434 0.0137525 0.00789865
v 0.143138 0.0142208 0.0428274
v 0.132699 0.0415161 0.0645912
v 0.118652 0.0779266 0.0481274
v 0.138347 0.0841011 0.0218312
v 0.12993 0.136873 -0.279036
v 0.157256 0.0131372 0.0156215
v 0.139293 0.0332837 -0.279857
v 0.139996 0.0735911 -0.273291
v 0.139658 0.0529522 -0.276491
v 0.141624 0.0874412 0.000633614
v 0.141286 0.0952623 -0.270286
v 0.145602 0.105419 -0.0426827
v 0.145319 0.11661 -0.0655268
v 0.146027 0.131091 -0.0874319
v 0.149077 0.14854 -0.106876
v 0.133845 0.0125561 -0.279821
v 0.119906 0.0111001 -0.263207
v 0.147791 0.0166092 -0.25658
v 0.136842 0.0593159 0.0507539
v 0.14226 0.114079 -0.265157
v 0.143128 0.0950194 -0.0208234
v 0.150856 0.158442 -0.133202
v 0.138975 0.00856892 -0.252411
v 0.156307 0.012357 -0.134701
v 0.155012 0.0104123 -0.114365
v 0.147756 0.0111001 -0.0408866
v 0.151471 0.0110994 -0.0658557
v 0.121236 0.0111001 -0.0436067
v 0.153464 0.00809277 -0.0904301
v 0.151879 0.0391094 0.0405703
v 0.153673 0.16337 -0.159978
v 0.146446 0.00771505 -0.233813
v 0.149831 0.0615944 0.0297938
v 0.150787 0.077322 -0.246011
v 0.152186 0.0982367 -0.242551
v 0.150474 0.037064 -0.254376
v 0.149124 0.0568656 -0.249888
v 0.150233 0.117031 -0.237195
v 0.138011 0.130891 -0.199984
v 0.157326 0.127758 -0.21047
v 0.156982 0.1443 -0.182937
v 0.161039 0.0905015 -0.0682932
v 0.162114 0.0803958 -0.0432888
v 0.157568 0.102795 -0.0929703
v 0.153495 0.11728 -0.116806
v 0.163827 0.127167 -0.13762
v 0.173965 0.014847 -0.0399569
v 0.167751 0.0131836 -0.0116762
v 0.157033 0.0227935 -0.231455
v 0.15828 0.0420417 -0.227347
v 0.161126 0.0407328 0.0122867
v 0.158549 0.0627989 -0.222721
v 0.157531 0.067371 0.00654396
v 0.16115 0.0728162 -0.0184193
v 0.158346 0.0786452 -0.120101
v 0.160185 0.127778 -0.162956
v 0.160509 0.0186181 -0.156515
v 0.159542 0.0449611 -0.11463
v 0.156517 0.0454443 -0.130574
v 0.158009 0.0656003 -0.131928
v 0.159086 0.0727167 -0.145114
v 0.163389 0.0712844 -0.0934173
v 0.163098 0.117461 -0.187848
v 0.173302 0.0221062 -0.0681329
v 0.163595 0.0249233 -0.206105
v 0.167297 0.0351662 -0.0931947
v 0.160133 0.0457008 -0.151679
v 0.163455 0.0457684 -0.201071
v 0.163353 0.0680231 -0.196549
v 0.163151 0.0468203 -0.176082
v 0.162429 0.0709117 -0.170582
v 0.162048 0.0943647 -0.143829
v 0.160585 0.0963976 -0.167253
v 0.16007 0.105801 -0.21454
v 0.160666 0.0845959 -0.218615
v 0.163416 0.0924896 -0.191814
v 0.169106 0.0437499 -0.0149034
v 0.16347 0.0251194 -0.180651
v 0.145554 0.0110105 -0.18514
v 0.170115 0.0491614 -0.0424691
v 0.170149 0.0584737 -0.0687505
v 0.071109 0.011104 -0.0964746
v 0.111194 0.130826 -0.229223
v 0.0704945 0.0111001 -0.121805
v 0.0445162 0.013816 -0.0720094
v 0.0708527 0.0111001 -0.0713521
v 0.0472087 0.135242 -0.177364
f 1 3 10 25
f 1 25 24 23
f 3 1 2 5
f 2 1 23 7
f 2 7 236 88
f 3 5 4 6
f 5 42 43 4
f 5 2 88 42
f 10 3 6 12
f 38 11 6 4
f 8 9 7 23
f 7 9 234 236
f 21 237 9 8
f 238 234 9 237
f 10 13 14 25
f 12 6 11 30
f 11 38 37 39
f 12 31 239 10
f 15 14 13 27
f 15 40 26 14
f 15 27 70 78
f 17 18 16 20
f 17 19 28 49
f 45 16 18 54
f 49 60 18 17
f 20 21 19 17
f 33 35 20 16
f 237 21 20 35
f 21 8 22 19
f 22 8 23 24
f 22 29 28 19
f 24 26 29 22
f 25 14 26 24
f 52 29 26 40
f 27 13 41 86
f 50 49 28 51
f 51 28 29 52
f 31 12 30 32
f 30 11 39 48
f 31 107 63 239
f 48 53 32 30
f 107 31 32 92
f 36 34 33 47
f 33 16 45 47
f 35 33 34 44
f 34 36 56 97
f 58 44 34 97
f 36 47 46 74
f 79 80 37 38
f 38 4 43 79
f 39 37 57 66
f 73 52 40 77
f 78 77 40 15
f 41 239 63 64
f 41 64 85 86
f 89 119 43 42
f 44 58 129 238
f 44 238 237 35
f 46 47 45 55
f 101 74 46 65
f 48 39 66 68
f 48 68 69 53
f 50 61 60 49
f 81 61 50 82
f 51 72 82 50
f 72 51 52 73
f 83 84 53 69
f 53 84 92 32
f 55 45 54 59
f 60 62 54 18
f 67 59 54 62
f 65 46 55 75
f 74 93 56 36
f 57 37 80 96
f 130 129 58 180
f 58 97 151 180
f 59 95 75 55
f 62 60 61 71
f 76 71 61 81
f 64 63 108 85
f 65 131 153 101
f 66 57 94 124
f 67 62 71 90
f 95 59 67 98
f 68 66 124 136
f 136 99 69 68
f 87 102 70 27
f 110 78 70 103
f 91 90 71 76
f 73 115 116 72
f 75 104 131 65
f 76 105 126 91
f 77 78 110 117
f 77 117 115 73
f 119 147 79 43
f 147 149 80 79
f 169 96 80 149
f 105 76 81 137
f 81 82 127 137
f 82 72 116 127
f 83 69 99 109
f 138 84 83 109
f 235 92 84 138
f 87 27 86 100
f 139 100 86 85
f 89 42 88 112
f 121 112 88 236
f 111 142 89 112
f 98 67 90 114
f 90 91 126 114
f 106 107 92 235
f 97 56 93 151
f 93 74 101 152
f 94 57 96 132
f 94 132 133 125
f 104 75 95 123
f 123 95 98 134
f 98 114 155 134
f 99 136 140 141
f 102 87 100 128
f 158 152 101 153
f 103 70 102 118
f 167 110 103 174
f 143 126 105 156
f 162 156 105 137
f 146 108 106 191
f 107 106 108 63
f 108 146 139 85
f 109 99 141 157
f 113 111 112 121
f 176 111 113 177
f 114 126 143 155
f 115 165 164 116
f 115 117 166 165
f 167 166 117 110
f 118 102 128 183
f 174 103 118 183
f 119 89 142 231
f 121 122 120 113
f 177 113 120 181
f 120 130 179 181
f 234 122 121 236
f 130 120 122 129
f 131 104 123 154
f 124 94 125 135
f 160 135 125 161
f 164 173 127 116
f 139 146 128 100
f 234 238 129 122
f 178 179 130 180
f 159 133 132 168
f 132 96 169 168
f 161 125 133 159
f 154 123 134 171
f 136 124 135 140
f 137 127 173 162
f 138 144 145 235
f 138 109 157 144
f 160 163 140 135
f 141 172 144 157
f 141 140 163 172
f 176 209 142 111
f 143 156 185 171
f 144 172 190 145
f 183 128 146 193
f 147 119 231 148
f 149 147 148 184
f 230 217 148 231
f 149 184 175 169
f 150 152 158 200
f 150 178 180 151
f 152 150 151 93
f 154 182 153 131
f 185 182 154 171
f 155 143 171 134
f 158 153 182 203
f 229 200 158 203
f 160 186 187 163
f 186 160 161 189
f 161 159 188 189
f 162 205 185 156
f 206 205 162 173
f 194 195 164 165
f 206 173 164 195
f 196 194 165 166
f 197 196 166 167
f 167 174 198 197
f 168 170 188 159
f 170 168 169 175
f 172 163 187 190
f 175 184 201 170
f 210 211 176 177
f 200 199 178 150
f 178 199 216 179
f 218 181 179 216
f 210 177 181 218
f 183 208 198 174
f 184 148 217 201
f 203 182 185 205
f 186 189 204 227
f 186 227 226 187
f 201 202 188 170
f 189 188 202 204
f 191 145 190 192
f 226 192 190 187
f 191 192 193 146
f 191 106 235 145
f 193 215 208 183
f 226 215 193 192
f 194 196 214 233
f 195 194 233 232
f 196 197 207 214
f 207 197 198 224
f 198 208 225 224
f 229 232 199 200
f 217 220 202 201
f 202 220 221 204
f 205 206 229 203
f 206 195 232 229
f 211 210 207 212
f 213 212 207 224
f 209 176 211 219
f 209 230 231 142
f 214 207 210 218
f 211 212 213 219
f 213 223 222 219
f 213 224 225 223
f 214 218 216 233
f 225 208 215 228
f 232 233 216 199
f 222 220 217 230
f 230 209 219 222
f 221 220 222 223
f 225 228 221 223
f 221 228 227 204
f 226 227 228 215
f 239 41 13 10
