v -55.0471 116.453 -2.07287
v -55.4 111.868 7.35303
v -57.3774 109.402 -1.03664
v -54.9921 117.452 2.62601
v -51.6351 115.955 -6.63174
v -49.2947 108.806 5.86506
v -50.3163 105.534 0.0191972
v -50.9713 122.01 1.74625
v -45.9786 111.088 -1.68118
v -49.4788 112.661 -4.70016
v -50.8271 122.56 -3.79293
v -45.6554 113.844 3.64011
v -48.7776 118.497 5.34442
v -46.9765 119.661 -7.224
v -45.2265 127.939 -4.61574
v -46.1304 128.483 1.51839
v -42.7313 117.202 -6.37648
v -39.6774 116.675 -2.7046
v -39.526 119.719 2.3215
v -41.4744 125.101 -8.32183
v -42.7077 124.673 4.77827
v -40.6124 134.027 -5.73064
v -36.729 122.554 -7.20974
v -36.5602 130.694 -9.70764
v -40.3221 134.01 0.154216
v -33.1345 125.646 1.85311
v -33.4904 122.222 -3.1266
v -35.4806 140.54 -0.244196
v -36.1493 140.028 -6.51329
v -31.5117 127.877 -7.86427
v -36.74 130.356 4.36
v -32.0722 136.23 -9.77553
v -31.5144 137.214 4.20596
v -30.9486 145.9 -6.6845
v -28.2493 127.997 -3.24493
v -27.4224 132.731 -8.89033
v -27.0261 131.892 2.56088
v -28.1542 142.02 -11.1264
v -27.4245 143.529 4.95384
v -24.8829 132.199 -4.59577
v -22.6149 138.998 5.29341
v -26.2312 153.068 -0.133599
v -26.1641 151.808 -7.3812
v -30.6275 146.68 -0.13927
v -24.2015 137.56 -9.5837
v -23.7496 147.006 -12.2601
v -22.5554 149.889 5.06365
v -20.4989 158.936 -0.463166
v -20.57 156.703 -8.39944
v -21.0127 133.861 -5.69637
v -18.9157 130.562 -2.46327
v -20.9419 140.822 -11.7698
v -16.2262 154.72 4.8774
v -18.3586 150.649 -13.0363
v -18.3398 137.448 2.55816
v -15.7851 132.471 3.96657
v -13.6594 160.316 -8.57085
v -18.6515 103.515 4.2989
v -18.5428 95.5939 6.39169
v -18.6329 95.205 -1.94787
v -17.9243 110.595 2.59896
v -19.6608 108.698 -4.94371
v -18.6467 115.593 -6.05778
v -19.0044 122.192 -7.56764
v -17.9757 117.417 1.38449
v -18.9939 128.485 -9.2529
v -19.7588 134.424 -10.799
v -16.2625 143.408 -14.0979
v -18.7269 101.859 -3.34201
v -14.6903 107.017 -11.1759
v -13.8824 121.783 -12.5134
v -14.5755 136.19 -13.2916
v -12.4845 154.115 -13.8751
v -14.9211 99.2322 -10.5001
v -14.6874 91.3352 -8.35352
v -14.8561 93.7259 -1.73589
v -13.3745 95.1558 2.81829
v -14.0112 104.511 10.1026
v -13.4184 95.1275 11.2924
v -13.865 114.567 -11.5335
v -14.6496 112.486 9.1999
v -14.0257 128.837 -13.5578
v -14.6207 119.832 7.8979
v -14.3063 126.446 6.33317
v -18.124 123.805 -0.12581
v -17.9945 144.693 5.864
v -12.2498 149.527 8.41406
v -10.8021 145.996 -15.7686
v -12.4532 161.775 -1.21312
v -8.79789 158.293 4.59975
v -9.53033 94.7164 7.46958
v -9.37368 97.6879 -16.2645
v -10.0343 129.054 12.1233
v -9.31697 121.805 12.5189
v -6.07029 156.794 -13.4364
v -12.2548 94.2442 -6.38048
v -8.98336 106.021 -16.4161
v -7.45395 106.799 13.6096
v -8.41032 114.385 13.2585
v -5.04272 164.7 -1.48624
v -8.93215 89.0696 -14.6403
v -6.45322 94.9449 -11.8481
v -8.778 129.951 -16.4803
v -9.59545 137.931 -15.9668
v -15.5562 140.45 7.6858
v -6.97849 164.313 -8.01018
v -6.22978 98.7774 13.5334
v -5.7239 138.263 13.1496
v -12.1966 135.138 9.67631
v -8.85619 144.126 11.1902
v -1.3645 161.719 4.12425
v -5.47237 91.4488 12.6914
v -2.26284 124.232 15.2312
v -4.5775 147.814 -14.8676
v -1.05331 116.706 15.5679
v -1.82261 97.8182 -16.165
v -4.01912 152.969 8.00754
v -0.930814 90.1755 -15.571
v -2.31638 105.98 -16.1448
v -2.62091 114.251 -16.1051
v -8.7808 114.109 -16.9174
v -0.981298 109.308 17.2081
v -2.64515 122.557 -15.808
v -8.85713 122.069 -16.8745
v -2.90992 130.796 -15.009
v 2.42909 139.9 -15.1091
v 1.8465 149.142 -14.1075
v 1.16849 158.166 -12.873
v 0.742394 166.097 -9.19162
v 0.324101 101.729 16.9209
v -3.62259 139.128 -15.1114
v 3.38831 156.394 6.74062
v 2.38465 140.654 12.4973
v -0.639476 147.217 11.5758
v 0.273236 165.666 -3.4867
v 4.72757 126.072 13.5723
v -3.03996 131.547 13.5347
v 4.20553 133.716 13.4678
v 8.27581 149.734 8.79503
v 1.20682 90.899 13.5373
v -0.780555 94.9719 9.94498
v 8.61349 149.181 -15.9153
v 5.21008 97.5225 -16.1373
v 4.54845 105.853 -16.1479
v 5.46355 118.553 13.6579
v 6.42171 104.137 13.6507
v 2.93518 131.134 -15.111
v 5.6937 111.245 13.5732
v 5.09943 166.323 0.224378
v 0.791336 95.1423 16.625
v 7.28513 97.5329 13.762
v 3.25776 122.682 -15.9903
v 11.3306 143.133 11.5543
v 8.79416 139.964 -16.3014
v 7.68336 91.4874 12.856
v 4.79605 95.177 7.24831
v 3.90335 114.261 -16.1384
v 8.68239 157.729 -13.1442
v 8.31308 163.976 -7.40196
v 9.87713 159.746 2.13322
v 11.3767 127.908 10.6497
v 10.9104 95.2408 4.96117
v 11.9609 120.416 10.8849
v 12.4579 113.091 11.3324
v 10.5449 97.7105 -13.7274
v 5.59219 91.6466 -16.4068
v 10.2915 106.039 -14.9304
v 14.4568 138.811 -14.022
v 15.0872 147.76 -14.0587
v 15.8937 155.867 -11.2161
v 15.1345 161.074 -4.7668
v 13.7526 92.516 10.0018
v 13.053 99.2678 10.764
v 12.7596 106.038 11.0889
v 13.6322 122.302 -12.5899
v 9.05537 122.638 -16.0986
v 9.57858 114.334 -15.7129
v 13.5777 114.411 -12.0185
v 15.6444 154.322 5.00575
v 16.058 128.972 4.28094
v 11.3397 135.598 10.8981
v 15.6291 121.571 4.57466
v 16.395 136.982 4.11062
v 20.0046 144.056 5.44428
v 21.1243 145.187 -12.3671
v 14.404 106.8 -11.2203
v 16.4255 107.398 -5.70909
v 15.9126 114.331 5.18072
v 22.8015 153.106 -9.69862
v 10.7348 89.1629 -11.6993
v 14.915 99.1698 -10.1821
v 17.2425 114.412 -7.08984
v 16.5468 107.539 5.78117
v 22.323 158.076 -2.46966
v 12.943 92.0434 -7.3957
v 18.4106 95.7344 6.87329
v 17.844 95.2068 1.66877
v 17.5173 101.144 6.48253
v 17.5871 100.31 -5.31878
v 17.7279 121.823 -8.15295
v 13.6969 130.494 -12.7648
v 18.3594 129.131 -2.61759
v 18.9812 107.836 -0.25175
v 18.9622 114.721 -1.03576
v 18.7102 121.943 -1.70042
v 18.759 129.352 -9.30577
v 22.4443 134.025 -3.25188
v 20.1421 136.441 -10.313
v 18.9063 101.294 0.489041
v 16.2958 93.5321 -3.15753
v 26.4179 134.63 2.83366
v 25.1168 141.165 -9.70518
v 27.7966 148.085 -8.50921
v 28.6091 137.692 -10.9687
v 27.8555 150.945 -0.684288
v 31.7578 141.965 -8.60592
v 32.4996 143.378 -1.43819
v 37.5181 138.117 -2.54757
v 35.8564 136.179 -8.86098
v 31.7461 131.702 -9.90418
v 39.6612 130.279 -8.03523
v 34.7174 126.404 2.12252
v 29.3095 130.328 2.77592
v 39.1729 121.811 3.05528
v 42.5997 114.435 -3.9672
v 39.289 120.325 -7.06407
v 35.0001 125.698 -8.91413
v 41.9333 133.031 -2.64854
v 44.3725 125.174 -7.49688
v 46.2643 127.589 -2.06229
v 48.6668 119.935 -6.56079
v 49.3211 114.8 6.33619
v 46.7573 109.723 -1.68182
v 44.7147 118.487 4.91637
v 53.1263 115.162 -5.22911
v 50.6811 122.926 -0.390768
v 52.8744 105.057 0.501001
v 54.7069 108.944 7.05322
v 54.6822 117.794 1.12241
v 57.1649 109.822 -2.64136
v 58.5639 112.746 2.66775
v -4.68322 95.1619 3.70332
v 1.11118 95.169 0.659464
v -2.47449 95.1681 -5.61173
v -8.62029 95.1686 -2.19616
v 2.29542 93.5628 -12.0637
v 5.23849 95.163 -6.79782
v 8.16327 95.1653 -1.08516
v 8.91961 131.196 -16.0833
v -22.387 133.542 -0.776348
f 2 3 1 4
f 8 4 1 11
f 2 6 7 3
f 12 6 2 13
f 5 1 3 10
f 3 7 9 10
f 13 2 4 8
f 11 1 5 14
f 17 14 5 10
f 7 6 12 9
f 17 10 9 18
f 19 18 9 12
f 11 15 16 8
f 13 8 16 21
f 19 12 13 21
f 15 11 14 20
f 14 17 23 20
f 15 20 24 22
f 16 15 22 25
f 17 18 27 23
f 26 27 18 19
f 21 16 25 31
f 26 19 21 31
f 24 20 23 30
f 24 32 29 22
f 29 28 25 22
f 30 23 27 35
f 27 26 37 35
f 31 25 28 33
f 28 29 34 44
f 39 33 28 44
f 32 24 30 36
f 37 26 31 33
f 34 29 32 38
f 32 36 45 38
f 41 37 33 39
f 34 43 42 44
f 34 38 46 43
f 36 30 35 40
f 250 40 35 37
f 50 45 36 40
f 38 45 52 46
f 47 86 41 39
f 250 51 50 40
f 48 42 43 49
f 47 39 44 42
f 49 43 46 54
f 48 53 47 42
f 87 86 47 53
f 48 49 57 89
f 50 67 52 45
f 66 67 50 51
f 55 56 51 250
f 54 46 52 68
f 52 67 72 68
f 89 90 53 48
f 54 73 57 49
f 54 68 88 73
f 86 105 55 41
f 56 84 85 51
f 105 109 56 55
f 57 73 95 106
f 100 89 57 106
f 58 59 60 69
f 58 61 81 78
f 59 77 76 60
f 59 58 78 79
f 60 75 74 69
f 60 76 96 75
f 61 62 63 65
f 61 58 69 62
f 70 80 63 62
f 65 63 64 85
f 64 63 80 71
f 81 61 65 83
f 84 83 65 85
f 66 64 71 82
f 66 82 72 67
f 66 51 85 64
f 70 62 69 74
f 70 74 92 97
f 72 104 88 68
f 114 95 73 88
f 92 74 75 101
f 102 101 75 96
f 76 77 245 96
f 77 59 79 91
f 77 91 242 245
f 79 78 98 107
f 79 107 112 91
f 97 121 80 70
f 80 121 124 71
f 81 83 94 99
f 81 99 98 78
f 82 103 104 72
f 124 103 82 71
f 93 94 83 84
f 109 93 84 56
f 87 53 90 117
f 105 86 87 110
f 131 114 88 104
f 111 90 89 100
f 91 112 141 242
f 108 137 93 109
f 113 94 93 137
f 115 99 94 113
f 127 128 95 114
f 95 128 129 106
f 97 92 116 119
f 130 107 98 122
f 122 98 99 115
f 100 106 129 135
f 100 135 149 111
f 116 92 101 118
f 118 101 102 246
f 102 96 245 244
f 102 244 247 246
f 103 124 123 125
f 104 103 125 131
f 150 112 107 130
f 134 133 108 110
f 110 108 109 105
f 110 87 117 134
f 117 90 111 132
f 140 141 112 150
f 113 136 145 115
f 126 127 114 131
f 115 145 148 122
f 144 119 116 143
f 117 132 139 134
f 143 116 118 166
f 119 120 121 97
f 157 120 119 144
f 121 120 123 124
f 146 130 122 148
f 147 125 123 152
f 123 120 157 152
f 126 131 125 147
f 126 147 249 154
f 154 142 127 126
f 128 127 142 158
f 128 158 159 129
f 151 150 130 146
f 132 111 149 160
f 133 138 137 108
f 134 139 153 133
f 135 129 159 149
f 136 113 137 138
f 181 161 136 138
f 153 181 138 133
f 139 132 160 179
f 184 153 139 179
f 140 150 151 155
f 155 156 141 140
f 168 169 142 154
f 170 158 142 169
f 144 143 165 167
f 145 136 161 163
f 145 163 164 148
f 146 148 164 174
f 173 151 146 174
f 172 155 151 173
f 152 157 177 176
f 249 147 152 176
f 183 181 153 184
f 162 156 155 172
f 156 243 242 141
f 157 144 167 177
f 171 159 158 170
f 160 149 159 171
f 196 197 162 172
f 162 197 210 248
f 162 248 243 156
f 163 161 180 182
f 164 163 182 188
f 164 188 193 174
f 165 143 166 190
f 166 118 246 190
f 167 165 191 186
f 185 169 168 208
f 168 201 206 208
f 249 201 168 154
f 170 169 185 189
f 170 189 194 171
f 179 160 171 194
f 173 198 196 172
f 174 193 198 173
f 175 176 177 178
f 192 200 175 178
f 249 176 175 201
f 177 167 186 178
f 178 186 187 192
f 215 184 179 194
f 180 161 181 183
f 207 202 180 183
f 182 180 202 205
f 204 188 182 205
f 207 183 184 211
f 184 215 217 211
f 185 208 207 212
f 185 212 213 189
f 187 186 191 199
f 187 199 209 203
f 215 194 189 213
f 191 165 190 195
f 192 187 203 204
f 205 200 192 204
f 193 188 204 203
f 199 191 195 210
f 195 190 246 247
f 196 198 209 197
f 203 209 198 193
f 201 175 200 206
f 202 206 200 205
f 202 207 208 206
f 214 212 207 211
f 209 199 210 197
f 247 248 210 195
f 214 216 213 212
f 217 215 213 216
f 223 220 214 211
f 218 217 216 219
f 216 214 220 219
f 217 218 223 211
f 222 223 218 228
f 219 221 228 218
f 221 219 220 227
f 222 227 220 223
f 221 227 226 229
f 230 228 221 229
f 225 226 224 234
f 227 222 224 226
f 224 222 228 230
f 225 233 235 231
f 226 225 231 229
f 230 229 231 236
f 234 224 230 236
f 237 233 232 238
f 232 239 241 238
f 234 232 233 225
f 233 237 240 235
f 239 232 234 236
f 236 231 235 239
f 241 240 237 238
f 239 235 240 241
f 243 244 245 242
f 244 243 248 247
f 250 37 41 55
